  0
SECTION
  2
HEADER
  9
$ANGBASE
  50
0.0
  9
$ANGDIR
  70
1
  9
$MEASUREMENT
  70
0
  0
ENDSEC
  0
SECTION
  2
TABLES
  0
TABLE
  2
LTYPE
  70
4
  0
LTYPE
  5
40F
  2
CONTINUOUS
  70
0
  3
Solid line
  72
65
  73
0
  40
0.0
  0
LTYPE
  5
410
  2
DASHDOT
 70
0
  3
Dash Dot ____ _ ____ _
 72
65
 73
4
 40
2.0
 49
1.25
 49
-0.25
 49
0.25
 49
-0.25
  0
LTYPE
  5
411
  2
DASHED
 70
0
  3
Dashed __ __ __ __ __
 72
65
 73
2
 40
0.75
 49
0.5
 49
-0.25
  0
LTYPE
  5
43B
  2
DOTTED
 70
0
  3
Dotted .  .  .  .
 72
65
 73
2
 40
0.2
 49
0.0
 49
-0.2
  0
ENDTAB
  0
TABLE
  2
STYLE
  70
4
  0
STYLE
  2
KICAD
  70
0
  40
0
  41
1
  42
1
  50
0
  71
0
  3
isocp.shx
  0
STYLE
  2
KICADB
  70
0
  40
0
  41
1
  42
1
  50
0
  71
0
  3
isocp.shx
  0
STYLE
  2
KICADI
  70
0
  40
0
  41
1
  42
1
  50
15
  71
0
  3
isocp.shx
  0
STYLE
  2
KICADBI
  70
0
  40
0
  41
1
  42
1
  50
15
  71
0
  3
isocp.shx
  0
ENDTAB
  0
TABLE
  2
LAYER
  70
1
  0
LAYER
  2
BLACK
  70
0
  62
7
  6
CONTINUOUS
  0
ENDTAB
  0
ENDSEC
  0
SECTION
  2
ENTITIES
0
LINE
8
BLACK
6
CONTINUOUS
10
2.1584499212598423
20
-3.0071625196850391
11
2.1667782283464567
21
-3.0093940944881887
0
LINE
8
BLACK
6
CONTINUOUS
10
2.1667782283464567
20
-3.0093940944881887
11
2.1747440157480313
21
-3.012693622047244
0
LINE
8
BLACK
6
CONTINUOUS
10
2.1747440157480313
20
-3.012693622047244
11
2.1822109842519684
21
-3.0170046850393701
0
LINE
8
BLACK
6
CONTINUOUS
10
2.1822109842519684
20
-3.0170046850393701
11
2.1890513385826771
21
-3.022253464566929
0
LINE
8
BLACK
6
CONTINUOUS
10
2.1890513385826771
20
-3.022253464566929
11
2.1951481102362203
21
-3.0283502362204722
0
LINE
8
BLACK
6
CONTINUOUS
10
2.1951481102362203
20
-3.0283502362204722
11
2.2003968897637796
21
-3.0351905905511809
0
LINE
8
BLACK
6
CONTINUOUS
10
2.2003968897637796
20
-3.0351905905511809
11
2.2047079527559053
21
-3.0426575590551179
0
LINE
8
BLACK
6
CONTINUOUS
10
2.2047079527559053
20
-3.0426575590551179
11
2.2080074803149605
21
-3.050623346456693
0
LINE
8
BLACK
6
CONTINUOUS
10
2.2080074803149605
20
-3.050623346456693
11
2.2102390551181101
21
-3.058951653543307
0
LINE
8
BLACK
6
CONTINUOUS
10
2.2102390551181101
20
-3.058951653543307
11
2.2113644488188977
21
-3.0674999606299211
0
LINE
8
BLACK
6
CONTINUOUS
10
2.2113644488188977
20
-3.0674999606299211
11
2.2113644488188977
21
-3.076122086614173
0
LINE
8
BLACK
6
CONTINUOUS
10
2.2113644488188977
20
-3.076122086614173
11
2.2102390551181101
21
-3.0846703937007875
0
LINE
8
BLACK
6
CONTINUOUS
10
2.2102390551181101
20
-3.0846703937007875
11
2.2080074803149605
21
-3.0929987007874016
0
LINE
8
BLACK
6
CONTINUOUS
10
2.2080074803149605
20
-3.0929987007874016
11
2.2047079527559053
21
-3.1009644881889762
0
LINE
8
BLACK
6
CONTINUOUS
10
2.2047079527559053
20
-3.1009644881889762
11
2.2003968897637796
21
-3.1084314566929132
0
LINE
8
BLACK
6
CONTINUOUS
10
2.2003968897637796
20
-3.1084314566929132
11
2.1951481102362203
21
-3.1152718110236219
0
LINE
8
BLACK
6
CONTINUOUS
10
2.1951481102362203
20
-3.1152718110236219
11
2.1890513385826771
21
-3.1213685826771651
0
LINE
8
BLACK
6
CONTINUOUS
10
2.1890513385826771
20
-3.1213685826771651
11
2.1822109842519684
21
-3.1266173622047244
0
LINE
8
BLACK
6
CONTINUOUS
10
2.1822109842519684
20
-3.1266173622047244
11
2.1747440157480313
21
-3.1309284251968501
0
LINE
8
BLACK
6
CONTINUOUS
10
2.1747440157480313
20
-3.1309284251968501
11
2.1667782283464567
21
-3.1342279527559054
0
LINE
8
BLACK
6
CONTINUOUS
10
2.1667782283464567
20
-3.1342279527559054
11
2.1584499212598423
21
-3.136459527559055
0
LINE
8
BLACK
6
CONTINUOUS
10
2.1584499212598423
20
-3.136459527559055
11
2.1499016141732281
21
-3.1375849212598426
0
LINE
8
BLACK
6
CONTINUOUS
10
2.1499016141732281
20
-3.1375849212598426
11
2.1412794881889763
21
-3.1375849212598426
0
LINE
8
BLACK
6
CONTINUOUS
10
2.1412794881889763
20
-3.1375849212598426
11
2.1327311811023622
21
-3.136459527559055
0
LINE
8
BLACK
6
CONTINUOUS
10
2.1327311811023622
20
-3.136459527559055
11
2.1244028740157481
21
-3.1342279527559054
0
LINE
8
BLACK
6
CONTINUOUS
10
2.1244028740157481
20
-3.1342279527559054
11
2.1164370866141731
21
-3.1309284251968501
0
LINE
8
BLACK
6
CONTINUOUS
10
2.1164370866141731
20
-3.1309284251968501
11
2.108970118110236
21
-3.1266173622047244
0
LINE
8
BLACK
6
CONTINUOUS
10
2.108970118110236
20
-3.1266173622047244
11
2.1021297637795273
21
-3.1213685826771651
0
LINE
8
BLACK
6
CONTINUOUS
10
2.1021297637795273
20
-3.1213685826771651
11
2.0960329921259842
21
-3.1152718110236219
0
LINE
8
BLACK
6
CONTINUOUS
10
2.0960329921259842
20
-3.1152718110236219
11
2.0907842125984253
21
-3.1084314566929132
0
LINE
8
BLACK
6
CONTINUOUS
10
2.0907842125984253
20
-3.1084314566929132
11
2.0864731496062991
21
-3.1009644881889762
0
LINE
8
BLACK
6
CONTINUOUS
10
2.0864731496062991
20
-3.1009644881889762
11
2.0831736220472439
21
-3.0929987007874016
0
LINE
8
BLACK
6
CONTINUOUS
10
2.0831736220472439
20
-3.0929987007874016
11
2.0809420472440943
21
-3.0846703937007875
0
LINE
8
BLACK
6
CONTINUOUS
10
2.0809420472440943
20
-3.0846703937007875
11
2.0798166535433071
21
-3.076122086614173
0
LINE
8
BLACK
6
CONTINUOUS
10
2.0798166535433071
20
-3.076122086614173
11
2.0798166535433071
21
-3.0674999606299211
0
LINE
8
BLACK
6
CONTINUOUS
10
2.0798166535433071
20
-3.0674999606299211
11
2.0799116535433071
21
-3.0667783070866141
0
LINE
8
BLACK
6
CONTINUOUS
10
2.0799116535433071
20
-3.0667783070866141
11
2.0809420472440943
21
-3.058951653543307
0
LINE
8
BLACK
6
CONTINUOUS
10
2.0809420472440943
20
-3.058951653543307
11
2.0831736220472439
21
-3.050623346456693
0
LINE
8
BLACK
6
CONTINUOUS
10
2.0831736220472439
20
-3.050623346456693
11
2.0864731496062991
21
-3.0426575590551179
0
LINE
8
BLACK
6
CONTINUOUS
10
2.0864731496062991
20
-3.0426575590551179
11
2.0907842125984253
21
-3.0351905905511809
0
LINE
8
BLACK
6
CONTINUOUS
10
2.0907842125984253
20
-3.0351905905511809
11
2.0960329921259842
21
-3.0283502362204722
0
LINE
8
BLACK
6
CONTINUOUS
10
2.0960329921259842
20
-3.0283502362204722
11
2.1021297637795273
21
-3.022253464566929
0
LINE
8
BLACK
6
CONTINUOUS
10
2.1021297637795273
20
-3.022253464566929
11
2.108970118110236
21
-3.0170046850393701
0
LINE
8
BLACK
6
CONTINUOUS
10
2.108970118110236
20
-3.0170046850393701
11
2.1164370866141731
21
-3.012693622047244
0
LINE
8
BLACK
6
CONTINUOUS
10
2.1164370866141731
20
-3.012693622047244
11
2.1244028740157481
21
-3.0093940944881887
0
LINE
8
BLACK
6
CONTINUOUS
10
2.1244028740157481
20
-3.0093940944881887
11
2.1327311811023622
21
-3.0071625196850391
0
LINE
8
BLACK
6
CONTINUOUS
10
2.1327311811023622
20
-3.0071625196850391
11
2.1412794881889763
21
-3.006037125984252
0
LINE
8
BLACK
6
CONTINUOUS
10
2.1412794881889763
20
-3.006037125984252
11
2.1499016141732281
21
-3.006037125984252
0
LINE
8
BLACK
6
CONTINUOUS
10
2.1499016141732281
20
-3.006037125984252
11
2.1584499212598423
21
-3.0071625196850391
0
LINE
8
BLACK
6
CONTINUOUS
10
2.0816440157480316
20
-3.0768437401574804
11
2.083218622047244
21
-3.0867851968503937
0
LINE
8
BLACK
6
CONTINUOUS
10
2.083218622047244
20
-3.0867851968503937
11
2.0863289763779527
21
-3.0963579527559055
0
LINE
8
BLACK
6
CONTINUOUS
10
2.0863289763779527
20
-3.0963579527559055
11
2.0908985826771653
21
-3.1053262992125985
0
LINE
8
BLACK
6
CONTINUOUS
10
2.0908985826771653
20
-3.1053262992125985
11
2.0968148818897636
21
-3.1134693700787399
0
LINE
8
BLACK
6
CONTINUOUS
10
2.0968148818897636
20
-3.1134693700787399
11
2.1039322047244093
21
-3.1205866929133856
0
LINE
8
BLACK
6
CONTINUOUS
10
2.1039322047244093
20
-3.1205866929133856
11
2.1120752755905512
21
-3.1265029921259844
0
LINE
8
BLACK
6
CONTINUOUS
10
2.1120752755905512
20
-3.1265029921259844
11
2.1210436220472442
21
-3.1310725984251966
0
LINE
8
BLACK
6
CONTINUOUS
10
2.1210436220472442
20
-3.1310725984251966
11
2.130616377952756
21
-3.1341829527559053
0
LINE
8
BLACK
6
CONTINUOUS
10
2.130616377952756
20
-3.1341829527559053
11
2.1405578346456693
21
-3.1357575590551181
0
LINE
8
BLACK
6
CONTINUOUS
10
2.1405578346456693
20
-3.1357575590551181
11
2.1506232677165356
21
-3.1357575590551181
0
LINE
8
BLACK
6
CONTINUOUS
10
2.1506232677165356
20
-3.1357575590551181
11
2.1605647244094488
21
-3.1341829527559053
0
LINE
8
BLACK
6
CONTINUOUS
10
2.1605647244094488
20
-3.1341829527559053
11
2.1701374803149607
21
-3.1310725984251966
0
LINE
8
BLACK
6
CONTINUOUS
10
2.1701374803149607
20
-3.1310725984251966
11
2.1791058267716537
21
-3.1265029921259844
0
LINE
8
BLACK
6
CONTINUOUS
10
2.1791058267716537
20
-3.1265029921259844
11
2.1872488976377951
21
-3.1205866929133856
0
LINE
8
BLACK
6
CONTINUOUS
10
2.1872488976377951
20
-3.1205866929133856
11
2.1943662204724408
21
-3.1134693700787399
0
LINE
8
BLACK
6
CONTINUOUS
10
2.1943662204724408
20
-3.1134693700787399
11
2.2002825196850395
21
-3.1053262992125985
0
LINE
8
BLACK
6
CONTINUOUS
10
2.2002825196850395
20
-3.1053262992125985
11
2.2048521259842517
21
-3.0963579527559055
0
LINE
8
BLACK
6
CONTINUOUS
10
2.2048521259842517
20
-3.0963579527559055
11
2.2079624803149605
21
-3.0867851968503937
0
LINE
8
BLACK
6
CONTINUOUS
10
2.2079624803149605
20
-3.0867851968503937
11
2.2095370866141733
21
-3.0768437401574804
0
LINE
8
BLACK
6
CONTINUOUS
10
2.2095370866141733
20
-3.0768437401574804
11
2.2095370866141733
21
-3.0667783070866141
0
LINE
8
BLACK
6
CONTINUOUS
10
2.2095370866141733
20
-3.0667783070866141
11
2.2079624803149605
21
-3.0568368503937009
0
LINE
8
BLACK
6
CONTINUOUS
10
2.2079624803149605
20
-3.0568368503937009
11
2.2048521259842517
21
-3.047264094488189
0
LINE
8
BLACK
6
CONTINUOUS
10
2.2048521259842517
20
-3.047264094488189
11
2.2002825196850395
21
-3.038295748031496
0
LINE
8
BLACK
6
CONTINUOUS
10
2.2002825196850395
20
-3.038295748031496
11
2.1943662204724408
21
-3.0301526771653542
0
LINE
8
BLACK
6
CONTINUOUS
10
2.1943662204724408
20
-3.0301526771653542
11
2.1872488976377951
21
-3.0230353543307085
0
LINE
8
BLACK
6
CONTINUOUS
10
2.1872488976377951
20
-3.0230353543307085
11
2.1791058267716537
21
-3.0171190551181102
0
LINE
8
BLACK
6
CONTINUOUS
10
2.1791058267716537
20
-3.0171190551181102
11
2.1701374803149607
21
-3.0125494488188975
0
LINE
8
BLACK
6
CONTINUOUS
10
2.1701374803149607
20
-3.0125494488188975
11
2.1605647244094488
21
-3.0094390944881888
0
LINE
8
BLACK
6
CONTINUOUS
10
2.1605647244094488
20
-3.0094390944881888
11
2.1506232677165356
21
-3.0078644881889764
0
LINE
8
BLACK
6
CONTINUOUS
10
2.1506232677165356
20
-3.0078644881889764
11
2.1405578346456693
21
-3.0078644881889764
0
LINE
8
BLACK
6
CONTINUOUS
10
2.1405578346456693
20
-3.0078644881889764
11
2.130616377952756
21
-3.0094390944881888
0
LINE
8
BLACK
6
CONTINUOUS
10
2.130616377952756
20
-3.0094390944881888
11
2.1210436220472442
21
-3.0125494488188975
0
LINE
8
BLACK
6
CONTINUOUS
10
2.1210436220472442
20
-3.0125494488188975
11
2.1120752755905512
21
-3.0171190551181102
0
LINE
8
BLACK
6
CONTINUOUS
10
2.1120752755905512
20
-3.0171190551181102
11
2.1039322047244093
21
-3.0230353543307085
0
LINE
8
BLACK
6
CONTINUOUS
10
2.1039322047244093
20
-3.0230353543307085
11
2.0968148818897636
21
-3.0301526771653542
0
LINE
8
BLACK
6
CONTINUOUS
10
2.0968148818897636
20
-3.0301526771653542
11
2.0908985826771653
21
-3.038295748031496
0
LINE
8
BLACK
6
CONTINUOUS
10
2.0908985826771653
20
-3.038295748031496
11
2.0863289763779527
21
-3.047264094488189
0
LINE
8
BLACK
6
CONTINUOUS
10
2.0863289763779527
20
-3.047264094488189
11
2.083218622047244
21
-3.0568368503937009
0
LINE
8
BLACK
6
CONTINUOUS
10
2.083218622047244
20
-3.0568368503937009
11
2.0816440157480316
21
-3.0667783070866141
0
LINE
8
BLACK
6
CONTINUOUS
10
2.0816440157480316
20
-3.0667783070866141
11
2.0816440157480316
21
-3.0768437401574804
0
LINE
8
BLACK
6
CONTINUOUS
10
6.0560877165354325
20
-3.0071625196850391
11
6.064416023622047
21
-3.0093940944881887
0
LINE
8
BLACK
6
CONTINUOUS
10
6.064416023622047
20
-3.0093940944881887
11
6.0723818110236216
21
-3.012693622047244
0
LINE
8
BLACK
6
CONTINUOUS
10
6.0723818110236216
20
-3.012693622047244
11
6.0798487795275591
21
-3.0170046850393701
0
LINE
8
BLACK
6
CONTINUOUS
10
6.0798487795275591
20
-3.0170046850393701
11
6.0866891338582674
21
-3.022253464566929
0
LINE
8
BLACK
6
CONTINUOUS
10
6.0866891338582674
20
-3.022253464566929
11
6.0927859055118105
21
-3.0283502362204722
0
LINE
8
BLACK
6
CONTINUOUS
10
6.0927859055118105
20
-3.0283502362204722
11
6.0980346850393703
21
-3.0351905905511809
0
LINE
8
BLACK
6
CONTINUOUS
10
6.0980346850393703
20
-3.0351905905511809
11
6.102345748031496
21
-3.0426575590551179
0
LINE
8
BLACK
6
CONTINUOUS
10
6.102345748031496
20
-3.0426575590551179
11
6.1056452755905513
21
-3.050623346456693
0
LINE
8
BLACK
6
CONTINUOUS
10
6.1056452755905513
20
-3.050623346456693
11
6.1078768503937004
21
-3.058951653543307
0
LINE
8
BLACK
6
CONTINUOUS
10
6.1078768503937004
20
-3.058951653543307
11
6.109002244094488
21
-3.0674999606299211
0
LINE
8
BLACK
6
CONTINUOUS
10
6.109002244094488
20
-3.0674999606299211
11
6.109002244094488
21
-3.076122086614173
0
LINE
8
BLACK
6
CONTINUOUS
10
6.109002244094488
20
-3.076122086614173
11
6.1078768503937004
21
-3.0846703937007875
0
LINE
8
BLACK
6
CONTINUOUS
10
6.1078768503937004
20
-3.0846703937007875
11
6.1056452755905513
21
-3.0929987007874016
0
LINE
8
BLACK
6
CONTINUOUS
10
6.1056452755905513
20
-3.0929987007874016
11
6.102345748031496
21
-3.1009644881889762
0
LINE
8
BLACK
6
CONTINUOUS
10
6.102345748031496
20
-3.1009644881889762
11
6.0980346850393703
21
-3.1084314566929132
0
LINE
8
BLACK
6
CONTINUOUS
10
6.0980346850393703
20
-3.1084314566929132
11
6.0927859055118105
21
-3.1152718110236219
0
LINE
8
BLACK
6
CONTINUOUS
10
6.0927859055118105
20
-3.1152718110236219
11
6.0866891338582674
21
-3.1213685826771651
0
LINE
8
BLACK
6
CONTINUOUS
10
6.0866891338582674
20
-3.1213685826771651
11
6.0798487795275591
21
-3.1266173622047244
0
LINE
8
BLACK
6
CONTINUOUS
10
6.0798487795275591
20
-3.1266173622047244
11
6.0723818110236216
21
-3.1309284251968501
0
LINE
8
BLACK
6
CONTINUOUS
10
6.0723818110236216
20
-3.1309284251968501
11
6.064416023622047
21
-3.1342279527559054
0
LINE
8
BLACK
6
CONTINUOUS
10
6.064416023622047
20
-3.1342279527559054
11
6.0560877165354325
21
-3.136459527559055
0
LINE
8
BLACK
6
CONTINUOUS
10
6.0560877165354325
20
-3.136459527559055
11
6.0475394094488184
21
-3.1375849212598426
0
LINE
8
BLACK
6
CONTINUOUS
10
6.0475394094488184
20
-3.1375849212598426
11
6.038917283464567
21
-3.1375849212598426
0
LINE
8
BLACK
6
CONTINUOUS
10
6.038917283464567
20
-3.1375849212598426
11
6.0303689763779529
21
-3.136459527559055
0
LINE
8
BLACK
6
CONTINUOUS
10
6.0303689763779529
20
-3.136459527559055
11
6.0220406692913384
21
-3.1342279527559054
0
LINE
8
BLACK
6
CONTINUOUS
10
6.0220406692913384
20
-3.1342279527559054
11
6.0140748818897638
21
-3.1309284251968501
0
LINE
8
BLACK
6
CONTINUOUS
10
6.0140748818897638
20
-3.1309284251968501
11
6.0066079133858263
21
-3.1266173622047244
0
LINE
8
BLACK
6
CONTINUOUS
10
6.0066079133858263
20
-3.1266173622047244
11
5.999767559055118
21
-3.1213685826771651
0
LINE
8
BLACK
6
CONTINUOUS
10
5.999767559055118
20
-3.1213685826771651
11
5.9936707874015749
21
-3.1152718110236219
0
LINE
8
BLACK
6
CONTINUOUS
10
5.9936707874015749
20
-3.1152718110236219
11
5.988422007874016
21
-3.1084314566929132
0
LINE
8
BLACK
6
CONTINUOUS
10
5.988422007874016
20
-3.1084314566929132
11
5.9841109448818894
21
-3.1009644881889762
0
LINE
8
BLACK
6
CONTINUOUS
10
5.9841109448818894
20
-3.1009644881889762
11
5.9808114173228342
21
-3.0929987007874016
0
LINE
8
BLACK
6
CONTINUOUS
10
5.9808114173228342
20
-3.0929987007874016
11
5.978579842519685
21
-3.0846703937007875
0
LINE
8
BLACK
6
CONTINUOUS
10
5.978579842519685
20
-3.0846703937007875
11
5.9774544488188974
21
-3.076122086614173
0
LINE
8
BLACK
6
CONTINUOUS
10
5.9774544488188974
20
-3.076122086614173
11
5.9774544488188974
21
-3.0674999606299211
0
LINE
8
BLACK
6
CONTINUOUS
10
5.9774544488188974
20
-3.0674999606299211
11
5.9775494488188974
21
-3.0667783070866141
0
LINE
8
BLACK
6
CONTINUOUS
10
5.9775494488188974
20
-3.0667783070866141
11
5.978579842519685
21
-3.058951653543307
0
LINE
8
BLACK
6
CONTINUOUS
10
5.978579842519685
20
-3.058951653543307
11
5.9808114173228342
21
-3.050623346456693
0
LINE
8
BLACK
6
CONTINUOUS
10
5.9808114173228342
20
-3.050623346456693
11
5.9841109448818894
21
-3.0426575590551179
0
LINE
8
BLACK
6
CONTINUOUS
10
5.9841109448818894
20
-3.0426575590551179
11
5.988422007874016
21
-3.0351905905511809
0
LINE
8
BLACK
6
CONTINUOUS
10
5.988422007874016
20
-3.0351905905511809
11
5.9936707874015749
21
-3.0283502362204722
0
LINE
8
BLACK
6
CONTINUOUS
10
5.9936707874015749
20
-3.0283502362204722
11
5.999767559055118
21
-3.022253464566929
0
LINE
8
BLACK
6
CONTINUOUS
10
5.999767559055118
20
-3.022253464566929
11
6.0066079133858263
21
-3.0170046850393701
0
LINE
8
BLACK
6
CONTINUOUS
10
6.0066079133858263
20
-3.0170046850393701
11
6.0140748818897638
21
-3.012693622047244
0
LINE
8
BLACK
6
CONTINUOUS
10
6.0140748818897638
20
-3.012693622047244
11
6.0220406692913384
21
-3.0093940944881887
0
LINE
8
BLACK
6
CONTINUOUS
10
6.0220406692913384
20
-3.0093940944881887
11
6.0303689763779529
21
-3.0071625196850391
0
LINE
8
BLACK
6
CONTINUOUS
10
6.0303689763779529
20
-3.0071625196850391
11
6.038917283464567
21
-3.006037125984252
0
LINE
8
BLACK
6
CONTINUOUS
10
6.038917283464567
20
-3.006037125984252
11
6.0475394094488184
21
-3.006037125984252
0
LINE
8
BLACK
6
CONTINUOUS
10
6.0475394094488184
20
-3.006037125984252
11
6.0560877165354325
21
-3.0071625196850391
0
LINE
8
BLACK
6
CONTINUOUS
10
5.9792818110236219
20
-3.0768437401574804
11
5.9808564173228342
21
-3.0867851968503937
0
LINE
8
BLACK
6
CONTINUOUS
10
5.9808564173228342
20
-3.0867851968503937
11
5.9839667716535434
21
-3.0963579527559055
0
LINE
8
BLACK
6
CONTINUOUS
10
5.9839667716535434
20
-3.0963579527559055
11
5.9885363779527561
21
-3.1053262992125985
0
LINE
8
BLACK
6
CONTINUOUS
10
5.9885363779527561
20
-3.1053262992125985
11
5.9944526771653539
21
-3.1134693700787399
0
LINE
8
BLACK
6
CONTINUOUS
10
5.9944526771653539
20
-3.1134693700787399
11
6.0015700000000001
21
-3.1205866929133856
0
LINE
8
BLACK
6
CONTINUOUS
10
6.0015700000000001
20
-3.1205866929133856
11
6.0097130708661419
21
-3.1265029921259844
0
LINE
8
BLACK
6
CONTINUOUS
10
6.0097130708661419
20
-3.1265029921259844
11
6.0186814173228349
21
-3.1310725984251966
0
LINE
8
BLACK
6
CONTINUOUS
10
6.0186814173228349
20
-3.1310725984251966
11
6.0282541732283459
21
-3.1341829527559053
0
LINE
8
BLACK
6
CONTINUOUS
10
6.0282541732283459
20
-3.1341829527559053
11
6.03819562992126
21
-3.1357575590551181
0
LINE
8
BLACK
6
CONTINUOUS
10
6.03819562992126
20
-3.1357575590551181
11
6.0482610629921254
21
-3.1357575590551181
0
LINE
8
BLACK
6
CONTINUOUS
10
6.0482610629921254
20
-3.1357575590551181
11
6.0582025196850395
21
-3.1341829527559053
0
LINE
8
BLACK
6
CONTINUOUS
10
6.0582025196850395
20
-3.1341829527559053
11
6.0677752755905514
21
-3.1310725984251966
0
LINE
8
BLACK
6
CONTINUOUS
10
6.0677752755905514
20
-3.1310725984251966
11
6.0767436220472444
21
-3.1265029921259844
0
LINE
8
BLACK
6
CONTINUOUS
10
6.0767436220472444
20
-3.1265029921259844
11
6.0848866929133854
21
-3.1205866929133856
0
LINE
8
BLACK
6
CONTINUOUS
10
6.0848866929133854
20
-3.1205866929133856
11
6.0920040157480315
21
-3.1134693700787399
0
LINE
8
BLACK
6
CONTINUOUS
10
6.0920040157480315
20
-3.1134693700787399
11
6.0979203149606294
21
-3.1053262992125985
0
LINE
8
BLACK
6
CONTINUOUS
10
6.0979203149606294
20
-3.1053262992125985
11
6.102489921259842
21
-3.0963579527559055
0
LINE
8
BLACK
6
CONTINUOUS
10
6.102489921259842
20
-3.0963579527559055
11
6.1056002755905512
21
-3.0867851968503937
0
LINE
8
BLACK
6
CONTINUOUS
10
6.1056002755905512
20
-3.0867851968503937
11
6.1071748818897635
21
-3.0768437401574804
0
LINE
8
BLACK
6
CONTINUOUS
10
6.1071748818897635
20
-3.0768437401574804
11
6.1071748818897635
21
-3.0667783070866141
0
LINE
8
BLACK
6
CONTINUOUS
10
6.1071748818897635
20
-3.0667783070866141
11
6.1056002755905512
21
-3.0568368503937009
0
LINE
8
BLACK
6
CONTINUOUS
10
6.1056002755905512
20
-3.0568368503937009
11
6.102489921259842
21
-3.047264094488189
0
LINE
8
BLACK
6
CONTINUOUS
10
6.102489921259842
20
-3.047264094488189
11
6.0979203149606294
21
-3.038295748031496
0
LINE
8
BLACK
6
CONTINUOUS
10
6.0979203149606294
20
-3.038295748031496
11
6.0920040157480315
21
-3.0301526771653542
0
LINE
8
BLACK
6
CONTINUOUS
10
6.0920040157480315
20
-3.0301526771653542
11
6.0848866929133854
21
-3.0230353543307085
0
LINE
8
BLACK
6
CONTINUOUS
10
6.0848866929133854
20
-3.0230353543307085
11
6.0767436220472444
21
-3.0171190551181102
0
LINE
8
BLACK
6
CONTINUOUS
10
6.0767436220472444
20
-3.0171190551181102
11
6.0677752755905514
21
-3.0125494488188975
0
LINE
8
BLACK
6
CONTINUOUS
10
6.0677752755905514
20
-3.0125494488188975
11
6.0582025196850395
21
-3.0094390944881888
0
LINE
8
BLACK
6
CONTINUOUS
10
6.0582025196850395
20
-3.0094390944881888
11
6.0482610629921254
21
-3.0078644881889764
0
LINE
8
BLACK
6
CONTINUOUS
10
6.0482610629921254
20
-3.0078644881889764
11
6.03819562992126
21
-3.0078644881889764
0
LINE
8
BLACK
6
CONTINUOUS
10
6.03819562992126
20
-3.0078644881889764
11
6.0282541732283459
21
-3.0094390944881888
0
LINE
8
BLACK
6
CONTINUOUS
10
6.0282541732283459
20
-3.0094390944881888
11
6.0186814173228349
21
-3.0125494488188975
0
LINE
8
BLACK
6
CONTINUOUS
10
6.0186814173228349
20
-3.0125494488188975
11
6.0097130708661419
21
-3.0171190551181102
0
LINE
8
BLACK
6
CONTINUOUS
10
6.0097130708661419
20
-3.0171190551181102
11
6.0015700000000001
21
-3.0230353543307085
0
LINE
8
BLACK
6
CONTINUOUS
10
6.0015700000000001
20
-3.0230353543307085
11
5.9944526771653539
21
-3.0301526771653542
0
LINE
8
BLACK
6
CONTINUOUS
10
5.9944526771653539
20
-3.0301526771653542
11
5.9885363779527561
21
-3.038295748031496
0
LINE
8
BLACK
6
CONTINUOUS
10
5.9885363779527561
20
-3.038295748031496
11
5.9839667716535434
21
-3.047264094488189
0
LINE
8
BLACK
6
CONTINUOUS
10
5.9839667716535434
20
-3.047264094488189
11
5.9808564173228342
21
-3.0568368503937009
0
LINE
8
BLACK
6
CONTINUOUS
10
5.9808564173228342
20
-3.0568368503937009
11
5.9792818110236219
21
-3.0667783070866141
0
LINE
8
BLACK
6
CONTINUOUS
10
5.9792818110236219
20
-3.0667783070866141
11
5.9792818110236219
21
-3.0768437401574804
0
LINE
8
BLACK
6
CONTINUOUS
10
2.1589074015748033
20
-1.9812407086614172
11
2.1675319685039369
21
-1.9835516535433071
0
LINE
8
BLACK
6
CONTINUOUS
10
2.1675319685039369
20
-1.9835516535433071
11
2.1757811417322834
21
-1.9869685433070865
0
LINE
8
BLACK
6
CONTINUOUS
10
2.1757811417322834
20
-1.9869685433070865
11
2.1835137007874015
21
-1.9914329527559054
0
LINE
8
BLACK
6
CONTINUOUS
10
2.1835137007874015
20
-1.9914329527559054
11
2.1905974015748031
21
-1.996868464566929
0
LINE
8
BLACK
6
CONTINUOUS
10
2.1905974015748031
20
-1.996868464566929
11
2.1969110629921258
21
-2.0031821259842517
0
LINE
8
BLACK
6
CONTINUOUS
10
2.1969110629921258
20
-2.0031821259842517
11
2.2023465748031494
21
-2.0102658267716533
0
LINE
8
BLACK
6
CONTINUOUS
10
2.2023465748031494
20
-2.0102658267716533
11
2.2068109842519683
21
-2.0179983858267718
0
LINE
8
BLACK
6
CONTINUOUS
10
2.2068109842519683
20
-2.0179983858267718
11
2.2102278740157479
21
-2.0262475590551179
0
LINE
8
BLACK
6
CONTINUOUS
10
2.2102278740157479
20
-2.0262475590551179
11
2.2125388188976376
21
-2.0348721259842519
0
LINE
8
BLACK
6
CONTINUOUS
10
2.2125388188976376
20
-2.0348721259842519
11
2.2137042913385825
21
-2.043724566929134
0
LINE
8
BLACK
6
CONTINUOUS
10
2.2137042913385825
20
-2.043724566929134
11
2.2137042913385825
21
-2.0526533858267717
0
LINE
8
BLACK
6
CONTINUOUS
10
2.2137042913385825
20
-2.0526533858267717
11
2.2125388188976376
21
-2.0615058267716533
0
LINE
8
BLACK
6
CONTINUOUS
10
2.2125388188976376
20
-2.0615058267716533
11
2.2102278740157479
21
-2.0701303937007873
0
LINE
8
BLACK
6
CONTINUOUS
10
2.2102278740157479
20
-2.0701303937007873
11
2.2068109842519683
21
-2.0783795669291338
0
LINE
8
BLACK
6
CONTINUOUS
10
2.2068109842519683
20
-2.0783795669291338
11
2.2023465748031494
21
-2.0861121259842519
0
LINE
8
BLACK
6
CONTINUOUS
10
2.2023465748031494
20
-2.0861121259842519
11
2.1969110629921258
21
-2.0931958267716535
0
LINE
8
BLACK
6
CONTINUOUS
10
2.1969110629921258
20
-2.0931958267716535
11
2.1905974015748031
21
-2.0995094881889762
0
LINE
8
BLACK
6
CONTINUOUS
10
2.1905974015748031
20
-2.0995094881889762
11
2.1835137007874015
21
-2.1049449999999998
0
LINE
8
BLACK
6
CONTINUOUS
10
2.1835137007874015
20
-2.1049449999999998
11
2.1757811417322834
21
-2.1094094094488187
0
LINE
8
BLACK
6
CONTINUOUS
10
2.1757811417322834
20
-2.1094094094488187
11
2.1675319685039369
21
-2.1128262992125983
0
LINE
8
BLACK
6
CONTINUOUS
10
2.1675319685039369
20
-2.1128262992125983
11
2.1589074015748033
21
-2.115137244094488
0
LINE
8
BLACK
6
CONTINUOUS
10
2.1589074015748033
20
-2.115137244094488
11
2.1500549606299213
21
-2.1163027165354329
0
LINE
8
BLACK
6
CONTINUOUS
10
2.1500549606299213
20
-2.1163027165354329
11
2.1411261417322835
21
-2.1163027165354329
0
LINE
8
BLACK
6
CONTINUOUS
10
2.1411261417322835
20
-2.1163027165354329
11
2.1322737007874015
21
-2.115137244094488
0
LINE
8
BLACK
6
CONTINUOUS
10
2.1322737007874015
20
-2.115137244094488
11
2.1236491338582675
21
-2.1128262992125983
0
LINE
8
BLACK
6
CONTINUOUS
10
2.1236491338582675
20
-2.1128262992125983
11
2.1153999606299214
21
-2.1094094094488187
0
LINE
8
BLACK
6
CONTINUOUS
10
2.1153999606299214
20
-2.1094094094488187
11
2.1076674015748029
21
-2.1049449999999998
0
LINE
8
BLACK
6
CONTINUOUS
10
2.1076674015748029
20
-2.1049449999999998
11
2.1005837007874013
21
-2.0995094881889762
0
LINE
8
BLACK
6
CONTINUOUS
10
2.1005837007874013
20
-2.0995094881889762
11
2.0942700393700786
21
-2.0931958267716535
0
LINE
8
BLACK
6
CONTINUOUS
10
2.0942700393700786
20
-2.0931958267716535
11
2.088834527559055
21
-2.0861121259842519
0
LINE
8
BLACK
6
CONTINUOUS
10
2.088834527559055
20
-2.0861121259842519
11
2.0843701181102361
21
-2.0783795669291338
0
LINE
8
BLACK
6
CONTINUOUS
10
2.0843701181102361
20
-2.0783795669291338
11
2.0809532283464565
21
-2.0701303937007873
0
LINE
8
BLACK
6
CONTINUOUS
10
2.0809532283464565
20
-2.0701303937007873
11
2.0786422834645668
21
-2.0615058267716533
0
LINE
8
BLACK
6
CONTINUOUS
10
2.0786422834645668
20
-2.0615058267716533
11
2.0774768110236219
21
-2.0526533858267717
0
LINE
8
BLACK
6
CONTINUOUS
10
2.0774768110236219
20
-2.0526533858267717
11
2.0774768110236219
21
-2.0438440157480313
0
LINE
8
BLACK
6
CONTINUOUS
10
2.0774768110236219
20
-2.0438440157480313
11
2.0774768110236219
21
-2.043724566929134
0
LINE
8
BLACK
6
CONTINUOUS
10
2.0774768110236219
20
-2.043724566929134
11
2.0786422834645668
21
-2.0348721259842519
0
LINE
8
BLACK
6
CONTINUOUS
10
2.0786422834645668
20
-2.0348721259842519
11
2.0809532283464565
21
-2.0262475590551179
0
LINE
8
BLACK
6
CONTINUOUS
10
2.0809532283464565
20
-2.0262475590551179
11
2.0843701181102361
21
-2.0179983858267718
0
LINE
8
BLACK
6
CONTINUOUS
10
2.0843701181102361
20
-2.0179983858267718
11
2.088834527559055
21
-2.0102658267716533
0
LINE
8
BLACK
6
CONTINUOUS
10
2.088834527559055
20
-2.0102658267716533
11
2.0942700393700786
21
-2.0031821259842517
0
LINE
8
BLACK
6
CONTINUOUS
10
2.0942700393700786
20
-2.0031821259842517
11
2.1005837007874013
21
-1.996868464566929
0
LINE
8
BLACK
6
CONTINUOUS
10
2.1005837007874013
20
-1.996868464566929
11
2.1076674015748029
21
-1.9914329527559054
0
LINE
8
BLACK
6
CONTINUOUS
10
2.1076674015748029
20
-1.9914329527559054
11
2.1153999606299214
21
-1.9869685433070865
0
LINE
8
BLACK
6
CONTINUOUS
10
2.1153999606299214
20
-1.9869685433070865
11
2.1236491338582675
21
-1.9835516535433071
0
LINE
8
BLACK
6
CONTINUOUS
10
2.1236491338582675
20
-1.9835516535433071
11
2.1322737007874015
21
-1.9812407086614172
0
LINE
8
BLACK
6
CONTINUOUS
10
2.1322737007874015
20
-1.9812407086614172
11
2.1411261417322835
21
-1.9800752362204723
0
LINE
8
BLACK
6
CONTINUOUS
10
2.1411261417322835
20
-1.9800752362204723
11
2.1500549606299213
21
-1.9800752362204723
0
LINE
8
BLACK
6
CONTINUOUS
10
2.1500549606299213
20
-1.9800752362204723
11
2.1589074015748033
21
-1.9812407086614172
0
LINE
8
BLACK
6
CONTINUOUS
10
2.0792991732283466
20
-2.0525339370078739
11
2.0804334251968504
21
-2.061149527559055
0
LINE
8
BLACK
6
CONTINUOUS
10
2.0804334251968504
20
-2.061149527559055
11
2.0826825590551179
21
-2.069543346456693
0
LINE
8
BLACK
6
CONTINUOUS
10
2.0826825590551179
20
-2.069543346456693
11
2.0860080314960627
21
-2.0775718110236219
0
LINE
8
BLACK
6
CONTINUOUS
10
2.0860080314960627
20
-2.0775718110236219
11
2.090353031496063
21
-2.0850975196850392
0
LINE
8
BLACK
6
CONTINUOUS
10
2.090353031496063
20
-2.0850975196850392
11
2.0956431102362205
21
-2.0919916929133859
0
LINE
8
BLACK
6
CONTINUOUS
10
2.0956431102362205
20
-2.0919916929133859
11
2.1017878346456693
21
-2.0981364173228347
0
LINE
8
BLACK
6
CONTINUOUS
10
2.1017878346456693
20
-2.0981364173228347
11
2.1086820078740156
21
-2.1034264960629923
0
LINE
8
BLACK
6
CONTINUOUS
10
2.1086820078740156
20
-2.1034264960629923
11
2.1162077165354329
21
-2.1077714960629921
0
LINE
8
BLACK
6
CONTINUOUS
10
2.1162077165354329
20
-2.1077714960629921
11
2.1242361811023622
21
-2.1110969685039369
0
LINE
8
BLACK
6
CONTINUOUS
10
2.1242361811023622
20
-2.1110969685039369
11
2.1326299999999998
21
-2.1133461023622049
0
LINE
8
BLACK
6
CONTINUOUS
10
2.1326299999999998
20
-2.1133461023622049
11
2.1412455905511809
21
-2.1144803543307087
0
LINE
8
BLACK
6
CONTINUOUS
10
2.1412455905511809
20
-2.1144803543307087
11
2.1499355118110235
21
-2.1144803543307087
0
LINE
8
BLACK
6
CONTINUOUS
10
2.1499355118110235
20
-2.1144803543307087
11
2.1585511023622046
21
-2.1133461023622049
0
LINE
8
BLACK
6
CONTINUOUS
10
2.1585511023622046
20
-2.1133461023622049
11
2.1669449212598426
21
-2.1110969685039369
0
LINE
8
BLACK
6
CONTINUOUS
10
2.1669449212598426
20
-2.1110969685039369
11
2.1749733858267715
21
-2.1077714960629921
0
LINE
8
BLACK
6
CONTINUOUS
10
2.1749733858267715
20
-2.1077714960629921
11
2.1824990944881888
21
-2.1034264960629923
0
LINE
8
BLACK
6
CONTINUOUS
10
2.1824990944881888
20
-2.1034264960629923
11
2.1893932677165355
21
-2.0981364173228347
0
LINE
8
BLACK
6
CONTINUOUS
10
2.1893932677165355
20
-2.0981364173228347
11
2.1955379921259843
21
-2.0919916929133859
0
LINE
8
BLACK
6
CONTINUOUS
10
2.1955379921259843
20
-2.0919916929133859
11
2.2008280708661419
21
-2.0850975196850392
0
LINE
8
BLACK
6
CONTINUOUS
10
2.2008280708661419
20
-2.0850975196850392
11
2.2051730708661417
21
-2.0775718110236219
0
LINE
8
BLACK
6
CONTINUOUS
10
2.2051730708661417
20
-2.0775718110236219
11
2.2084985433070865
21
-2.069543346456693
0
LINE
8
BLACK
6
CONTINUOUS
10
2.2084985433070865
20
-2.069543346456693
11
2.2107476771653545
21
-2.061149527559055
0
LINE
8
BLACK
6
CONTINUOUS
10
2.2107476771653545
20
-2.061149527559055
11
2.2118819291338583
21
-2.0525339370078739
0
LINE
8
BLACK
6
CONTINUOUS
10
2.2118819291338583
20
-2.0525339370078739
11
2.2118819291338583
21
-2.0438440157480313
0
LINE
8
BLACK
6
CONTINUOUS
10
2.2118819291338583
20
-2.0438440157480313
11
2.2107476771653545
21
-2.0352284251968502
0
LINE
8
BLACK
6
CONTINUOUS
10
2.2107476771653545
20
-2.0352284251968502
11
2.2084985433070865
21
-2.0268346062992126
0
LINE
8
BLACK
6
CONTINUOUS
10
2.2084985433070865
20
-2.0268346062992126
11
2.2051730708661417
21
-2.0188061417322833
0
LINE
8
BLACK
6
CONTINUOUS
10
2.2051730708661417
20
-2.0188061417322833
11
2.2008280708661419
21
-2.011280433070866
0
LINE
8
BLACK
6
CONTINUOUS
10
2.2008280708661419
20
-2.011280433070866
11
2.1955379921259843
21
-2.0043862598425197
0
LINE
8
BLACK
6
CONTINUOUS
10
2.1955379921259843
20
-2.0043862598425197
11
2.1893932677165355
21
-1.9982415354330709
0
LINE
8
BLACK
6
CONTINUOUS
10
2.1893932677165355
20
-1.9982415354330709
11
2.1824990944881888
21
-1.9929514566929134
0
LINE
8
BLACK
6
CONTINUOUS
10
2.1824990944881888
20
-1.9929514566929134
11
2.1749733858267715
21
-1.9886064566929134
0
LINE
8
BLACK
6
CONTINUOUS
10
2.1749733858267715
20
-1.9886064566929134
11
2.1669449212598426
21
-1.9852809842519685
0
LINE
8
BLACK
6
CONTINUOUS
10
2.1669449212598426
20
-1.9852809842519685
11
2.1585511023622046
21
-1.9830318503937008
0
LINE
8
BLACK
6
CONTINUOUS
10
2.1585511023622046
20
-1.9830318503937008
11
2.1499355118110235
21
-1.9818975984251967
0
LINE
8
BLACK
6
CONTINUOUS
10
2.1499355118110235
20
-1.9818975984251967
11
2.1412455905511809
21
-1.9818975984251967
0
LINE
8
BLACK
6
CONTINUOUS
10
2.1412455905511809
20
-1.9818975984251967
11
2.1326299999999998
21
-1.9830318503937008
0
LINE
8
BLACK
6
CONTINUOUS
10
2.1326299999999998
20
-1.9830318503937008
11
2.1242361811023622
21
-1.9852809842519685
0
LINE
8
BLACK
6
CONTINUOUS
10
2.1242361811023622
20
-1.9852809842519685
11
2.1162077165354329
21
-1.9886064566929134
0
LINE
8
BLACK
6
CONTINUOUS
10
2.1162077165354329
20
-1.9886064566929134
11
2.1086820078740156
21
-1.9929514566929134
0
LINE
8
BLACK
6
CONTINUOUS
10
2.1086820078740156
20
-1.9929514566929134
11
2.1017878346456693
21
-1.9982415354330709
0
LINE
8
BLACK
6
CONTINUOUS
10
2.1017878346456693
20
-1.9982415354330709
11
2.0956431102362205
21
-2.0043862598425197
0
LINE
8
BLACK
6
CONTINUOUS
10
2.0956431102362205
20
-2.0043862598425197
11
2.090353031496063
21
-2.011280433070866
0
LINE
8
BLACK
6
CONTINUOUS
10
2.090353031496063
20
-2.011280433070866
11
2.0860080314960627
21
-2.0188061417322833
0
LINE
8
BLACK
6
CONTINUOUS
10
2.0860080314960627
20
-2.0188061417322833
11
2.0826825590551179
21
-2.0268346062992126
0
LINE
8
BLACK
6
CONTINUOUS
10
2.0826825590551179
20
-2.0268346062992126
11
2.0804334251968504
21
-2.0352284251968502
0
LINE
8
BLACK
6
CONTINUOUS
10
2.0804334251968504
20
-2.0352284251968502
11
2.0792991732283466
21
-2.0438440157480313
0
LINE
8
BLACK
6
CONTINUOUS
10
2.0792991732283466
20
-2.0438440157480313
11
2.0792991732283466
21
-2.0525339370078739
0
LINE
8
BLACK
6
CONTINUOUS
10
6.0581633464566931
20
-1.9859802755905511
11
6.0677110629921263
21
-1.9890825196850392
0
LINE
8
BLACK
6
CONTINUOUS
10
6.0677110629921263
20
-1.9890825196850392
11
6.076655905511811
21
-1.9936401574803149
0
LINE
8
BLACK
6
CONTINUOUS
10
6.076655905511811
20
-1.9936401574803149
11
6.0847776771653539
21
-1.9995409448818897
0
LINE
8
BLACK
6
CONTINUOUS
10
6.0847776771653539
20
-1.9995409448818897
11
6.0918763779527554
21
-2.0066396456692912
0
LINE
8
BLACK
6
CONTINUOUS
10
6.0918763779527554
20
-2.0066396456692912
11
6.0977771653543309
21
-2.0147614173228345
0
LINE
8
BLACK
6
CONTINUOUS
10
6.0977771653543309
20
-2.0147614173228345
11
6.1023348031496063
21
-2.0237062598425197
0
LINE
8
BLACK
6
CONTINUOUS
10
6.1023348031496063
20
-2.0237062598425197
11
6.1054370472440942
21
-2.0332539763779529
0
LINE
8
BLACK
6
CONTINUOUS
10
6.1054370472440942
20
-2.0332539763779529
11
6.1070075196850393
21
-2.0431694488188974
0
LINE
8
BLACK
6
CONTINUOUS
10
6.1070075196850393
20
-2.0431694488188974
11
6.1070075196850393
21
-2.0532085039370078
0
LINE
8
BLACK
6
CONTINUOUS
10
6.1070075196850393
20
-2.0532085039370078
11
6.1054370472440942
21
-2.0631239763779528
0
LINE
8
BLACK
6
CONTINUOUS
10
6.1054370472440942
20
-2.0631239763779528
11
6.1023348031496063
21
-2.0726716929133859
0
LINE
8
BLACK
6
CONTINUOUS
10
6.1023348031496063
20
-2.0726716929133859
11
6.0977771653543309
21
-2.0816165354330707
0
LINE
8
BLACK
6
CONTINUOUS
10
6.0977771653543309
20
-2.0816165354330707
11
6.0918763779527554
21
-2.089738307086614
0
LINE
8
BLACK
6
CONTINUOUS
10
6.0918763779527554
20
-2.089738307086614
11
6.0847776771653539
21
-2.0968370078740155
0
LINE
8
BLACK
6
CONTINUOUS
10
6.0847776771653539
20
-2.0968370078740155
11
6.076655905511811
21
-2.1027377952755906
0
LINE
8
BLACK
6
CONTINUOUS
10
6.076655905511811
20
-2.1027377952755906
11
6.0677110629921263
21
-2.107295433070866
0
LINE
8
BLACK
6
CONTINUOUS
10
6.0677110629921263
20
-2.107295433070866
11
6.0581633464566931
21
-2.1103976771653543
0
LINE
8
BLACK
6
CONTINUOUS
10
6.0581633464566931
20
-2.1103976771653543
11
6.0482478740157477
21
-2.111968149606299
0
LINE
8
BLACK
6
CONTINUOUS
10
6.0482478740157477
20
-2.111968149606299
11
6.0382088188976377
21
-2.111968149606299
0
LINE
8
BLACK
6
CONTINUOUS
10
6.0382088188976377
20
-2.111968149606299
11
6.0282933464566923
21
-2.1103976771653543
0
LINE
8
BLACK
6
CONTINUOUS
10
6.0282933464566923
20
-2.1103976771653543
11
6.0187456299212601
21
-2.107295433070866
0
LINE
8
BLACK
6
CONTINUOUS
10
6.0187456299212601
20
-2.107295433070866
11
6.0098007874015744
21
-2.1027377952755906
0
LINE
8
BLACK
6
CONTINUOUS
10
6.0098007874015744
20
-2.1027377952755906
11
6.0016790157480315
21
-2.0968370078740155
0
LINE
8
BLACK
6
CONTINUOUS
10
6.0016790157480315
20
-2.0968370078740155
11
5.99458031496063
21
-2.089738307086614
0
LINE
8
BLACK
6
CONTINUOUS
10
5.99458031496063
20
-2.089738307086614
11
5.9886795275590554
21
-2.0816165354330707
0
LINE
8
BLACK
6
CONTINUOUS
10
5.9886795275590554
20
-2.0816165354330707
11
5.9841218897637791
21
-2.0726716929133859
0
LINE
8
BLACK
6
CONTINUOUS
10
5.9841218897637791
20
-2.0726716929133859
11
5.9810196456692912
21
-2.0631239763779528
0
LINE
8
BLACK
6
CONTINUOUS
10
5.9810196456692912
20
-2.0631239763779528
11
5.9794491732283461
21
-2.0532085039370078
0
LINE
8
BLACK
6
CONTINUOUS
10
5.9794491732283461
20
-2.0532085039370078
11
5.9794491732283461
21
-2.0433088582677166
0
LINE
8
BLACK
6
CONTINUOUS
10
5.9794491732283461
20
-2.0433088582677166
11
5.9794491732283461
21
-2.0431694488188974
0
LINE
8
BLACK
6
CONTINUOUS
10
5.9794491732283461
20
-2.0431694488188974
11
5.9810196456692912
21
-2.0332539763779529
0
LINE
8
BLACK
6
CONTINUOUS
10
5.9810196456692912
20
-2.0332539763779529
11
5.9841218897637791
21
-2.0237062598425197
0
LINE
8
BLACK
6
CONTINUOUS
10
5.9841218897637791
20
-2.0237062598425197
11
5.9886795275590554
21
-2.0147614173228345
0
LINE
8
BLACK
6
CONTINUOUS
10
5.9886795275590554
20
-2.0147614173228345
11
5.99458031496063
21
-2.0066396456692912
0
LINE
8
BLACK
6
CONTINUOUS
10
5.99458031496063
20
-2.0066396456692912
11
6.0016790157480315
21
-1.9995409448818897
0
LINE
8
BLACK
6
CONTINUOUS
10
6.0016790157480315
20
-1.9995409448818897
11
6.0098007874015744
21
-1.9936401574803149
0
LINE
8
BLACK
6
CONTINUOUS
10
6.0098007874015744
20
-1.9936401574803149
11
6.0187456299212601
21
-1.9890825196850392
0
LINE
8
BLACK
6
CONTINUOUS
10
6.0187456299212601
20
-1.9890825196850392
11
6.0282933464566923
21
-1.9859802755905511
0
LINE
8
BLACK
6
CONTINUOUS
10
6.0282933464566923
20
-1.9859802755905511
11
6.0382088188976377
21
-1.9844098031496062
0
LINE
8
BLACK
6
CONTINUOUS
10
6.0382088188976377
20
-1.9844098031496062
11
6.0482478740157477
21
-1.9844098031496062
0
LINE
8
BLACK
6
CONTINUOUS
10
6.0482478740157477
20
-1.9844098031496062
11
6.0581633464566931
21
-1.9859802755905511
0
LINE
8
BLACK
6
CONTINUOUS
10
5.9812204724409446
20
-2.0530690944881891
11
5.9827473228346459
21
-2.0627091732283462
0
LINE
8
BLACK
6
CONTINUOUS
10
5.9827473228346459
20
-2.0627091732283462
11
5.9857633858267718
21
-2.0719917322834647
0
LINE
8
BLACK
6
CONTINUOUS
10
5.9857633858267718
20
-2.0719917322834647
11
5.9901944488188974
21
-2.080688188976378
0
LINE
8
BLACK
6
CONTINUOUS
10
5.9901944488188974
20
-2.080688188976378
11
5.9959313779527559
21
-2.0885843700787401
0
LINE
8
BLACK
6
CONTINUOUS
10
5.9959313779527559
20
-2.0885843700787401
11
6.002832952755905
21
-2.0954859448818897
0
LINE
8
BLACK
6
CONTINUOUS
10
6.002832952755905
20
-2.0954859448818897
11
6.010729133858268
21
-2.1012228740157481
0
LINE
8
BLACK
6
CONTINUOUS
10
6.010729133858268
20
-2.1012228740157481
11
6.0194255905511813
21
-2.1056539370078742
0
LINE
8
BLACK
6
CONTINUOUS
10
6.0194255905511813
20
-2.1056539370078742
11
6.0287081496062989
21
-2.10867
0
LINE
8
BLACK
6
CONTINUOUS
10
6.0287081496062989
20
-2.10867
11
6.0383482283464565
21
-2.1101968503937005
0
LINE
8
BLACK
6
CONTINUOUS
10
6.0383482283464565
20
-2.1101968503937005
11
6.048108464566929
21
-2.1101968503937005
0
LINE
8
BLACK
6
CONTINUOUS
10
6.048108464566929
20
-2.1101968503937005
11
6.0577485433070866
21
-2.10867
0
LINE
8
BLACK
6
CONTINUOUS
10
6.0577485433070866
20
-2.10867
11
6.067031102362205
21
-2.1056539370078742
0
LINE
8
BLACK
6
CONTINUOUS
10
6.067031102362205
20
-2.1056539370078742
11
6.0757275590551183
21
-2.1012228740157481
0
LINE
8
BLACK
6
CONTINUOUS
10
6.0757275590551183
20
-2.1012228740157481
11
6.0836237401574804
21
-2.0954859448818897
0
LINE
8
BLACK
6
CONTINUOUS
10
6.0836237401574804
20
-2.0954859448818897
11
6.0905253149606295
21
-2.0885843700787401
0
LINE
8
BLACK
6
CONTINUOUS
10
6.0905253149606295
20
-2.0885843700787401
11
6.096262244094488
21
-2.080688188976378
0
LINE
8
BLACK
6
CONTINUOUS
10
6.096262244094488
20
-2.080688188976378
11
6.1006933070866136
21
-2.0719917322834647
0
LINE
8
BLACK
6
CONTINUOUS
10
6.1006933070866136
20
-2.0719917322834647
11
6.1037093700787404
21
-2.0627091732283462
0
LINE
8
BLACK
6
CONTINUOUS
10
6.1037093700787404
20
-2.0627091732283462
11
6.1052362204724409
21
-2.0530690944881891
0
LINE
8
BLACK
6
CONTINUOUS
10
6.1052362204724409
20
-2.0530690944881891
11
6.1052362204724409
21
-2.0433088582677166
0
LINE
8
BLACK
6
CONTINUOUS
10
6.1052362204724409
20
-2.0433088582677166
11
6.1037093700787404
21
-2.033668779527559
0
LINE
8
BLACK
6
CONTINUOUS
10
6.1037093700787404
20
-2.033668779527559
11
6.1006933070866136
21
-2.024386220472441
0
LINE
8
BLACK
6
CONTINUOUS
10
6.1006933070866136
20
-2.024386220472441
11
6.096262244094488
21
-2.0156897637795277
0
LINE
8
BLACK
6
CONTINUOUS
10
6.096262244094488
20
-2.0156897637795277
11
6.0905253149606295
21
-2.0077935826771651
0
LINE
8
BLACK
6
CONTINUOUS
10
6.0905253149606295
20
-2.0077935826771651
11
6.0836237401574804
21
-2.0008920078740156
0
LINE
8
BLACK
6
CONTINUOUS
10
6.0836237401574804
20
-2.0008920078740156
11
6.0757275590551183
21
-1.9951550787401575
0
LINE
8
BLACK
6
CONTINUOUS
10
6.0757275590551183
20
-1.9951550787401575
11
6.067031102362205
21
-1.9907240157480315
0
LINE
8
BLACK
6
CONTINUOUS
10
6.067031102362205
20
-1.9907240157480315
11
6.0577485433070866
21
-1.9877079527559054
0
LINE
8
BLACK
6
CONTINUOUS
10
6.0577485433070866
20
-1.9877079527559054
11
6.048108464566929
21
-1.9861811023622047
0
LINE
8
BLACK
6
CONTINUOUS
10
6.048108464566929
20
-1.9861811023622047
11
6.0383482283464565
21
-1.9861811023622047
0
LINE
8
BLACK
6
CONTINUOUS
10
6.0383482283464565
20
-1.9861811023622047
11
6.0287081496062989
21
-1.9877079527559054
0
LINE
8
BLACK
6
CONTINUOUS
10
6.0287081496062989
20
-1.9877079527559054
11
6.0194255905511813
21
-1.9907240157480315
0
LINE
8
BLACK
6
CONTINUOUS
10
6.0194255905511813
20
-1.9907240157480315
11
6.010729133858268
21
-1.9951550787401575
0
LINE
8
BLACK
6
CONTINUOUS
10
6.010729133858268
20
-1.9951550787401575
11
6.002832952755905
21
-2.0008920078740156
0
LINE
8
BLACK
6
CONTINUOUS
10
6.002832952755905
20
-2.0008920078740156
11
5.9959313779527559
21
-2.0077935826771651
0
LINE
8
BLACK
6
CONTINUOUS
10
5.9959313779527559
20
-2.0077935826771651
11
5.9901944488188974
21
-2.0156897637795277
0
LINE
8
BLACK
6
CONTINUOUS
10
5.9901944488188974
20
-2.0156897637795277
11
5.9857633858267718
21
-2.024386220472441
0
LINE
8
BLACK
6
CONTINUOUS
10
5.9857633858267718
20
-2.024386220472441
11
5.9827473228346459
21
-2.033668779527559
0
LINE
8
BLACK
6
CONTINUOUS
10
5.9827473228346459
20
-2.033668779527559
11
5.9812204724409446
21
-2.0433088582677166
0
LINE
8
BLACK
6
CONTINUOUS
10
5.9812204724409446
20
-2.0433088582677166
11
5.9812204724409446
21
-2.0530690944881891
0
LINE
8
BLACK
6
CONTINUOUS
10
6.0825984251968501
20
-1.9290944881889764
11
6.0930045669291335
21
-1.9297765354330709
0
LINE
8
BLACK
6
CONTINUOUS
10
6.0930045669291335
20
-1.9297765354330709
11
6.1032326377952755
21
-1.9318110236220472
0
LINE
8
BLACK
6
CONTINUOUS
10
6.1032326377952755
20
-1.9318110236220472
11
6.1131076377952756
21
-1.9351631496062991
0
LINE
8
BLACK
6
CONTINUOUS
10
6.1131076377952756
20
-1.9351631496062991
11
6.1224606299212594
21
-1.9397755511811023
0
LINE
8
BLACK
6
CONTINUOUS
10
6.1224606299212594
20
-1.9397755511811023
11
6.1311315748031499
21
-1.9455692519685039
0
LINE
8
BLACK
6
CONTINUOUS
10
6.1311315748031499
20
-1.9455692519685039
11
6.1389720866141735
21
-1.9524452362204725
0
LINE
8
BLACK
6
CONTINUOUS
10
6.1389720866141735
20
-1.9524452362204725
11
6.1458480708661414
21
-1.9602857480314959
0
LINE
8
BLACK
6
CONTINUOUS
10
6.1458480708661414
20
-1.9602857480314959
11
6.1516417716535434
21
-1.9689566929133857
0
LINE
8
BLACK
6
CONTINUOUS
10
6.1516417716535434
20
-1.9689566929133857
11
6.156254173228346
21
-1.97830968503937
0
LINE
8
BLACK
6
CONTINUOUS
10
6.156254173228346
20
-1.97830968503937
11
6.1596062992125979
21
-1.9881846850393701
0
LINE
8
BLACK
6
CONTINUOUS
10
6.1596062992125979
20
-1.9881846850393701
11
6.1616407874015744
21
-1.9984127559055118
0
LINE
8
BLACK
6
CONTINUOUS
10
6.1616407874015744
20
-1.9984127559055118
11
6.1623228346456695
21
-2.0088188976377954
0
LINE
8
BLACK
6
CONTINUOUS
10
6.1623228346456695
20
-2.0088188976377954
11
6.1623228346456695
21
-3.1111811023622047
0
LINE
8
BLACK
6
CONTINUOUS
10
6.1623228346456695
20
-3.1111811023622047
11
6.1616407874015744
21
-3.1215872440944881
0
LINE
8
BLACK
6
CONTINUOUS
10
6.1616407874015744
20
-3.1215872440944881
11
6.1596062992125979
21
-3.13181531496063
0
LINE
8
BLACK
6
CONTINUOUS
10
6.1596062992125979
20
-3.13181531496063
11
6.156254173228346
21
-3.1416903149606297
0
LINE
8
BLACK
6
CONTINUOUS
10
6.156254173228346
20
-3.1416903149606297
11
6.1516417716535434
21
-3.151043307086614
0
LINE
8
BLACK
6
CONTINUOUS
10
6.1516417716535434
20
-3.151043307086614
11
6.1458480708661414
21
-3.159714251968504
0
LINE
8
BLACK
6
CONTINUOUS
10
6.1458480708661414
20
-3.159714251968504
11
6.1389720866141735
21
-3.1675547637795276
0
LINE
8
BLACK
6
CONTINUOUS
10
6.1389720866141735
20
-3.1675547637795276
11
6.1311315748031499
21
-3.1744307480314959
0
LINE
8
BLACK
6
CONTINUOUS
10
6.1311315748031499
20
-3.1744307480314959
11
6.1224606299212594
21
-3.1802244488188975
0
LINE
8
BLACK
6
CONTINUOUS
10
6.1224606299212594
20
-3.1802244488188975
11
6.1131076377952756
21
-3.1848368503937006
0
LINE
8
BLACK
6
CONTINUOUS
10
6.1131076377952756
20
-3.1848368503937006
11
6.1032326377952755
21
-3.1881889763779525
0
LINE
8
BLACK
6
CONTINUOUS
10
6.1032326377952755
20
-3.1881889763779525
11
6.0930045669291335
21
-3.190223464566929
0
LINE
8
BLACK
6
CONTINUOUS
10
6.0930045669291335
20
-3.190223464566929
11
6.0825984251968501
21
-3.1909055118110237
0
LINE
8
BLACK
6
CONTINUOUS
10
6.0825984251968501
20
-3.1909055118110237
11
2.106220472440945
21
-3.1909055118110237
0
LINE
8
BLACK
6
CONTINUOUS
10
2.106220472440945
20
-3.1909055118110237
11
2.0958143307086612
21
-3.190223464566929
0
LINE
8
BLACK
6
CONTINUOUS
10
2.0958143307086612
20
-3.190223464566929
11
2.0855862598425197
21
-3.1881889763779525
0
LINE
8
BLACK
6
CONTINUOUS
10
2.0855862598425197
20
-3.1881889763779525
11
2.0757112598425196
21
-3.1848368503937006
0
LINE
8
BLACK
6
CONTINUOUS
10
2.0757112598425196
20
-3.1848368503937006
11
2.0663582677165353
21
-3.1802244488188975
0
LINE
8
BLACK
6
CONTINUOUS
10
2.0663582677165353
20
-3.1802244488188975
11
2.0576873228346457
21
-3.1744307480314959
0
LINE
8
BLACK
6
CONTINUOUS
10
2.0576873228346457
20
-3.1744307480314959
11
2.0498468110236221
21
-3.1675547637795276
0
LINE
8
BLACK
6
CONTINUOUS
10
2.0498468110236221
20
-3.1675547637795276
11
2.0429708267716533
21
-3.159714251968504
0
LINE
8
BLACK
6
CONTINUOUS
10
2.0429708267716533
20
-3.159714251968504
11
2.0371771259842517
21
-3.151043307086614
0
LINE
8
BLACK
6
CONTINUOUS
10
2.0371771259842517
20
-3.151043307086614
11
2.0325647244094487
21
-3.1416903149606297
0
LINE
8
BLACK
6
CONTINUOUS
10
2.0325647244094487
20
-3.1416903149606297
11
2.0292125984251967
21
-3.13181531496063
0
LINE
8
BLACK
6
CONTINUOUS
10
2.0292125984251967
20
-3.13181531496063
11
2.0271781102362203
21
-3.1215872440944881
0
LINE
8
BLACK
6
CONTINUOUS
10
2.0271781102362203
20
-3.1215872440944881
11
2.026496062992126
21
-3.1111811023622047
0
LINE
8
BLACK
6
CONTINUOUS
10
2.026496062992126
20
-3.1111811023622047
11
2.026496062992126
21
-2.8749606299212598
0
LINE
8
BLACK
6
CONTINUOUS
10
2.026496062992126
20
-2.8749606299212598
11
2.0271091338582679
21
-2.8679531889763781
0
LINE
8
BLACK
6
CONTINUOUS
10
2.0271091338582679
20
-2.8679531889763781
11
2.0289297244094486
21
-2.861158622047244
0
LINE
8
BLACK
6
CONTINUOUS
10
2.0289297244094486
20
-2.861158622047244
11
2.0319025196850395
21
-2.8547834645669292
0
LINE
8
BLACK
6
CONTINUOUS
10
2.0319025196850395
20
-2.8547834645669292
11
2.0359371653543308
21
-2.8490213779527558
0
LINE
8
BLACK
6
CONTINUOUS
10
2.0359371653543308
20
-2.8490213779527558
11
2.0409111417322836
21
-2.844047401574803
0
LINE
8
BLACK
6
CONTINUOUS
10
2.0409111417322836
20
-2.844047401574803
11
2.0466732283464566
21
-2.8400127559055117
0
LINE
8
BLACK
6
CONTINUOUS
10
2.0466732283464566
20
-2.8400127559055117
11
2.0530483858267714
21
-2.8370399606299213
0
LINE
8
BLACK
6
CONTINUOUS
10
2.0530483858267714
20
-2.8370399606299213
11
2.0598429527559055
21
-2.83521937007874
0
LINE
8
BLACK
6
CONTINUOUS
10
2.0598429527559055
20
-2.83521937007874
11
2.0668503937007872
21
-2.8346062992125982
0
LINE
8
BLACK
6
CONTINUOUS
10
2.0668503937007872
20
-2.8346062992125982
11
2.2243307086614172
21
-2.8346062992125982
0
LINE
8
BLACK
6
CONTINUOUS
10
2.2243307086614172
20
-2.8346062992125982
11
2.2247073622047244
21
-2.834681220472441
0
LINE
8
BLACK
6
CONTINUOUS
10
2.2247073622047244
20
-2.834681220472441
11
2.2252400393700786
21
-2.8352138976377952
0
LINE
8
BLACK
6
CONTINUOUS
10
2.2252400393700786
20
-2.8352138976377952
11
2.2253149606299214
21
-2.8355905511811024
0
LINE
8
BLACK
6
CONTINUOUS
10
2.2253149606299214
20
-2.8355905511811024
11
2.2253149606299214
21
-2.9920866141732283
0
LINE
8
BLACK
6
CONTINUOUS
10
2.2253149606299214
20
-2.9920866141732283
11
5.9635039370078742
21
-2.9920866141732283
0
LINE
8
BLACK
6
CONTINUOUS
10
5.9635039370078742
20
-2.9920866141732283
11
5.9635039370078742
21
-2.1279133858267718
0
LINE
8
BLACK
6
CONTINUOUS
10
5.9635039370078742
20
-2.1279133858267718
11
2.2253149606299214
21
-2.1279133858267718
0
LINE
8
BLACK
6
CONTINUOUS
10
2.2253149606299214
20
-2.1279133858267718
11
2.2253149606299214
21
-2.2844094488188977
0
LINE
8
BLACK
6
CONTINUOUS
10
2.2253149606299214
20
-2.2844094488188977
11
2.2252400393700786
21
-2.2847861023622045
0
LINE
8
BLACK
6
CONTINUOUS
10
2.2252400393700786
20
-2.2847861023622045
11
2.2247073622047244
21
-2.2853187795275591
0
LINE
8
BLACK
6
CONTINUOUS
10
2.2247073622047244
20
-2.2853187795275591
11
2.2243307086614172
21
-2.2853937007874014
0
LINE
8
BLACK
6
CONTINUOUS
10
2.2243307086614172
20
-2.2853937007874014
11
2.0668503937007872
21
-2.2853937007874014
0
LINE
8
BLACK
6
CONTINUOUS
10
2.0668503937007872
20
-2.2853937007874014
11
2.0598429527559055
21
-2.2847806299212596
0
LINE
8
BLACK
6
CONTINUOUS
10
2.0598429527559055
20
-2.2847806299212596
11
2.0530483858267714
21
-2.2829600393700789
0
LINE
8
BLACK
6
CONTINUOUS
10
2.0530483858267714
20
-2.2829600393700789
11
2.0466732283464566
21
-2.2799872440944879
0
LINE
8
BLACK
6
CONTINUOUS
10
2.0466732283464566
20
-2.2799872440944879
11
2.0409111417322836
21
-2.2759525984251967
0
LINE
8
BLACK
6
CONTINUOUS
10
2.0409111417322836
20
-2.2759525984251967
11
2.0359371653543308
21
-2.2709786220472439
0
LINE
8
BLACK
6
CONTINUOUS
10
2.0359371653543308
20
-2.2709786220472439
11
2.0319025196850395
21
-2.2652165354330709
0
LINE
8
BLACK
6
CONTINUOUS
10
2.0319025196850395
20
-2.2652165354330709
11
2.0289297244094486
21
-2.2588413779527556
0
LINE
8
BLACK
6
CONTINUOUS
10
2.0289297244094486
20
-2.2588413779527556
11
2.0271091338582679
21
-2.252046811023622
0
LINE
8
BLACK
6
CONTINUOUS
10
2.0271091338582679
20
-2.252046811023622
11
2.026496062992126
21
-2.2450393700787403
0
LINE
8
BLACK
6
CONTINUOUS
10
2.026496062992126
20
-2.2450393700787403
11
2.026496062992126
21
-2.0088188976377954
0
LINE
8
BLACK
6
CONTINUOUS
10
2.026496062992126
20
-2.0088188976377954
11
2.0271781102362203
21
-1.9984127559055118
0
LINE
8
BLACK
6
CONTINUOUS
10
2.0271781102362203
20
-1.9984127559055118
11
2.0292125984251967
21
-1.9881846850393701
0
LINE
8
BLACK
6
CONTINUOUS
10
2.0292125984251967
20
-1.9881846850393701
11
2.0325647244094487
21
-1.97830968503937
0
LINE
8
BLACK
6
CONTINUOUS
10
2.0325647244094487
20
-1.97830968503937
11
2.0371771259842517
21
-1.9689566929133857
0
LINE
8
BLACK
6
CONTINUOUS
10
2.0371771259842517
20
-1.9689566929133857
11
2.0429708267716533
21
-1.9602857480314959
0
LINE
8
BLACK
6
CONTINUOUS
10
2.0429708267716533
20
-1.9602857480314959
11
2.0498468110236221
21
-1.9524452362204725
0
LINE
8
BLACK
6
CONTINUOUS
10
2.0498468110236221
20
-1.9524452362204725
11
2.0576873228346457
21
-1.9455692519685039
0
LINE
8
BLACK
6
CONTINUOUS
10
2.0576873228346457
20
-1.9455692519685039
11
2.0663582677165353
21
-1.9397755511811023
0
LINE
8
BLACK
6
CONTINUOUS
10
2.0663582677165353
20
-1.9397755511811023
11
2.0757112598425196
21
-1.9351631496062991
0
LINE
8
BLACK
6
CONTINUOUS
10
2.0757112598425196
20
-1.9351631496062991
11
2.0855862598425197
21
-1.9318110236220472
0
LINE
8
BLACK
6
CONTINUOUS
10
2.0855862598425197
20
-1.9318110236220472
11
2.0958143307086612
21
-1.9297765354330709
0
LINE
8
BLACK
6
CONTINUOUS
10
2.0958143307086612
20
-1.9297765354330709
11
2.106220472440945
21
-1.9290944881889764
0
LINE
8
BLACK
6
CONTINUOUS
10
2.106220472440945
20
-1.9290944881889764
11
6.0825984251968501
21
-1.9290944881889764
0
LINE
8
BLACK
6
CONTINUOUS
10
2.106220472440945
20
-1.9310629921259843
11
2.1011240944881888
21
-1.9310629921259843
0
LINE
8
BLACK
6
CONTINUOUS
10
2.1011240944881888
20
-1.9310629921259843
11
2.0910185039370077
21
-1.9323934251968504
0
LINE
8
BLACK
6
CONTINUOUS
10
2.0910185039370077
20
-1.9323934251968504
11
2.0811730314960628
21
-1.9350314960629922
0
LINE
8
BLACK
6
CONTINUOUS
10
2.0811730314960628
20
-1.9350314960629922
11
2.0717561023622046
21
-1.9389320866141733
0
LINE
8
BLACK
6
CONTINUOUS
10
2.0717561023622046
20
-1.9389320866141733
11
2.0629288976377951
21
-1.9440285039370078
0
LINE
8
BLACK
6
CONTINUOUS
10
2.0629288976377951
20
-1.9440285039370078
11
2.0548424409448818
21
-1.950233464566929
0
LINE
8
BLACK
6
CONTINUOUS
10
2.0548424409448818
20
-1.950233464566929
11
2.0476350393700788
21
-1.9574408661417322
0
LINE
8
BLACK
6
CONTINUOUS
10
2.0476350393700788
20
-1.9574408661417322
11
2.0414300787401576
21
-1.9655273228346457
0
LINE
8
BLACK
6
CONTINUOUS
10
2.0414300787401576
20
-1.9655273228346457
11
2.0363336614173226
21
-1.9743545275590551
0
LINE
8
BLACK
6
CONTINUOUS
10
2.0363336614173226
20
-1.9743545275590551
11
2.0324330708661416
21
-1.9837714566929134
0
LINE
8
BLACK
6
CONTINUOUS
10
2.0324330708661416
20
-1.9837714566929134
11
2.029795
21
-1.9936169291338581
0
LINE
8
BLACK
6
CONTINUOUS
10
2.029795
20
-1.9936169291338581
11
2.0284645669291339
21
-2.0037225196850392
0
LINE
8
BLACK
6
CONTINUOUS
10
2.0284645669291339
20
-2.0037225196850392
11
2.0284645669291339
21
-2.0088188976377954
0
LINE
8
BLACK
6
CONTINUOUS
10
2.0284645669291339
20
-2.0088188976377954
11
2.0284645669291339
21
-2.2450393700787403
0
LINE
8
BLACK
6
CONTINUOUS
10
2.0284645669291339
20
-2.2450393700787403
11
2.0284645669291339
21
-2.2483976771653542
0
LINE
8
BLACK
6
CONTINUOUS
10
2.0284645669291339
20
-2.2483976771653542
11
2.0296309055118109
21
-2.2550122834645667
0
LINE
8
BLACK
6
CONTINUOUS
10
2.0296309055118109
20
-2.2550122834645667
11
2.0319281496062991
21
-2.2613238976377952
0
LINE
8
BLACK
6
CONTINUOUS
10
2.0319281496062991
20
-2.2613238976377952
11
2.0352864566929134
21
-2.2671406692913387
0
LINE
8
BLACK
6
CONTINUOUS
10
2.0352864566929134
20
-2.2671406692913387
11
2.0396038582677165
21
-2.272285905511811
0
LINE
8
BLACK
6
CONTINUOUS
10
2.0396038582677165
20
-2.272285905511811
11
2.0447490944881888
21
-2.2766033070866141
0
LINE
8
BLACK
6
CONTINUOUS
10
2.0447490944881888
20
-2.2766033070866141
11
2.0505658661417323
21
-2.2799616141732284
0
LINE
8
BLACK
6
CONTINUOUS
10
2.0505658661417323
20
-2.2799616141732284
11
2.0568774803149608
21
-2.2822588582677166
0
LINE
8
BLACK
6
CONTINUOUS
10
2.0568774803149608
20
-2.2822588582677166
11
2.0634920866141733
21
-2.2834251968503936
0
LINE
8
BLACK
6
CONTINUOUS
10
2.0634920866141733
20
-2.2834251968503936
11
2.0668503937007872
21
-2.2834251968503936
0
LINE
8
BLACK
6
CONTINUOUS
10
2.0668503937007872
20
-2.2834251968503936
11
2.2233464566929135
21
-2.2834251968503936
0
LINE
8
BLACK
6
CONTINUOUS
10
2.2233464566929135
20
-2.2834251968503936
11
2.2233464566929135
21
-2.1269291338582677
0
LINE
8
BLACK
6
CONTINUOUS
10
2.2233464566929135
20
-2.1269291338582677
11
2.2234213779527559
21
-2.1265524803149605
0
LINE
8
BLACK
6
CONTINUOUS
10
2.2234213779527559
20
-2.1265524803149605
11
2.2239540551181101
21
-2.1260198031496063
0
LINE
8
BLACK
6
CONTINUOUS
10
2.2239540551181101
20
-2.1260198031496063
11
2.2243307086614172
21
-2.1259448818897639
0
LINE
8
BLACK
6
CONTINUOUS
10
2.2243307086614172
20
-2.1259448818897639
11
5.9644881889763779
21
-2.1259448818897639
0
LINE
8
BLACK
6
CONTINUOUS
10
5.9644881889763779
20
-2.1259448818897639
11
5.9648648425196846
21
-2.1260198031496063
0
LINE
8
BLACK
6
CONTINUOUS
10
5.9648648425196846
20
-2.1260198031496063
11
5.9653975196850393
21
-2.1265524803149605
0
LINE
8
BLACK
6
CONTINUOUS
10
5.9653975196850393
20
-2.1265524803149605
11
5.9654724409448816
21
-2.1269291338582677
0
LINE
8
BLACK
6
CONTINUOUS
10
5.9654724409448816
20
-2.1269291338582677
11
5.9654724409448816
21
-2.993070866141732
0
LINE
8
BLACK
6
CONTINUOUS
10
5.9654724409448816
20
-2.993070866141732
11
5.9653975196850393
21
-2.9934475196850392
0
LINE
8
BLACK
6
CONTINUOUS
10
5.9653975196850393
20
-2.9934475196850392
11
5.9648648425196846
21
-2.9939801968503938
0
LINE
8
BLACK
6
CONTINUOUS
10
5.9648648425196846
20
-2.9939801968503938
11
5.9644881889763779
21
-2.9940551181102362
0
LINE
8
BLACK
6
CONTINUOUS
10
5.9644881889763779
20
-2.9940551181102362
11
2.2243307086614172
21
-2.9940551181102362
0
LINE
8
BLACK
6
CONTINUOUS
10
2.2243307086614172
20
-2.9940551181102362
11
2.2239540551181101
21
-2.9939801968503938
0
LINE
8
BLACK
6
CONTINUOUS
10
2.2239540551181101
20
-2.9939801968503938
11
2.2234213779527559
21
-2.9934475196850392
0
LINE
8
BLACK
6
CONTINUOUS
10
2.2234213779527559
20
-2.9934475196850392
11
2.2233464566929135
21
-2.993070866141732
0
LINE
8
BLACK
6
CONTINUOUS
10
2.2233464566929135
20
-2.993070866141732
11
2.2233464566929135
21
-2.8365748031496061
0
LINE
8
BLACK
6
CONTINUOUS
10
2.2233464566929135
20
-2.8365748031496061
11
2.0668503937007872
21
-2.8365748031496061
0
LINE
8
BLACK
6
CONTINUOUS
10
2.0668503937007872
20
-2.8365748031496061
11
2.0634920866141733
21
-2.8365748031496061
0
LINE
8
BLACK
6
CONTINUOUS
10
2.0634920866141733
20
-2.8365748031496061
11
2.0568774803149608
21
-2.8377411417322835
0
LINE
8
BLACK
6
CONTINUOUS
10
2.0568774803149608
20
-2.8377411417322835
11
2.0505658661417323
21
-2.8400383858267717
0
LINE
8
BLACK
6
CONTINUOUS
10
2.0505658661417323
20
-2.8400383858267717
11
2.0447490944881888
21
-2.8433966929133856
0
LINE
8
BLACK
6
CONTINUOUS
10
2.0447490944881888
20
-2.8433966929133856
11
2.0396038582677165
21
-2.8477140944881891
0
LINE
8
BLACK
6
CONTINUOUS
10
2.0396038582677165
20
-2.8477140944881891
11
2.0352864566929134
21
-2.8528593307086614
0
LINE
8
BLACK
6
CONTINUOUS
10
2.0352864566929134
20
-2.8528593307086614
11
2.0319281496062991
21
-2.8586761023622045
0
LINE
8
BLACK
6
CONTINUOUS
10
2.0319281496062991
20
-2.8586761023622045
11
2.0296309055118109
21
-2.8649877165354329
0
LINE
8
BLACK
6
CONTINUOUS
10
2.0296309055118109
20
-2.8649877165354329
11
2.0284645669291339
21
-2.8716023228346454
0
LINE
8
BLACK
6
CONTINUOUS
10
2.0284645669291339
20
-2.8716023228346454
11
2.0284645669291339
21
-2.8749606299212598
0
LINE
8
BLACK
6
CONTINUOUS
10
2.0284645669291339
20
-2.8749606299212598
11
2.0284645669291339
21
-3.1111811023622047
0
LINE
8
BLACK
6
CONTINUOUS
10
2.0284645669291339
20
-3.1111811023622047
11
2.0284645669291339
21
-3.1162774803149604
0
LINE
8
BLACK
6
CONTINUOUS
10
2.0284645669291339
20
-3.1162774803149604
11
2.029795
21
-3.1263830708661415
0
LINE
8
BLACK
6
CONTINUOUS
10
2.029795
20
-3.1263830708661415
11
2.0324330708661416
21
-3.1362285433070864
0
LINE
8
BLACK
6
CONTINUOUS
10
2.0324330708661416
20
-3.1362285433070864
11
2.0363336614173226
21
-3.1456454724409446
0
LINE
8
BLACK
6
CONTINUOUS
10
2.0363336614173226
20
-3.1456454724409446
11
2.0414300787401576
21
-3.1544726771653542
0
LINE
8
BLACK
6
CONTINUOUS
10
2.0414300787401576
20
-3.1544726771653542
11
2.0476350393700788
21
-3.1625591338582675
0
LINE
8
BLACK
6
CONTINUOUS
10
2.0476350393700788
20
-3.1625591338582675
11
2.0548424409448818
21
-3.1697665354330709
0
LINE
8
BLACK
6
CONTINUOUS
10
2.0548424409448818
20
-3.1697665354330709
11
2.0629288976377951
21
-3.1759714960629921
0
LINE
8
BLACK
6
CONTINUOUS
10
2.0629288976377951
20
-3.1759714960629921
11
2.0717561023622046
21
-3.1810679133858266
0
LINE
8
BLACK
6
CONTINUOUS
10
2.0717561023622046
20
-3.1810679133858266
11
2.0811730314960628
21
-3.1849685039370077
0
LINE
8
BLACK
6
CONTINUOUS
10
2.0811730314960628
20
-3.1849685039370077
11
2.0910185039370077
21
-3.1876065748031497
0
LINE
8
BLACK
6
CONTINUOUS
10
2.0910185039370077
20
-3.1876065748031497
11
2.1011240944881888
21
-3.1889370078740158
0
LINE
8
BLACK
6
CONTINUOUS
10
2.1011240944881888
20
-3.1889370078740158
11
2.106220472440945
21
-3.1889370078740158
0
LINE
8
BLACK
6
CONTINUOUS
10
2.106220472440945
20
-3.1889370078740158
11
6.0825984251968501
21
-3.1889370078740158
0
LINE
8
BLACK
6
CONTINUOUS
10
6.0825984251968501
20
-3.1889370078740158
11
6.0876948031496063
21
-3.1889370078740158
0
LINE
8
BLACK
6
CONTINUOUS
10
6.0876948031496063
20
-3.1889370078740158
11
6.097800393700787
21
-3.1876065748031497
0
LINE
8
BLACK
6
CONTINUOUS
10
6.097800393700787
20
-3.1876065748031497
11
6.1076458661417323
21
-3.1849685039370077
0
LINE
8
BLACK
6
CONTINUOUS
10
6.1076458661417323
20
-3.1849685039370077
11
6.11706279527559
21
-3.1810679133858266
0
LINE
8
BLACK
6
CONTINUOUS
10
6.11706279527559
20
-3.1810679133858266
11
6.1258900000000001
21
-3.1759714960629921
0
LINE
8
BLACK
6
CONTINUOUS
10
6.1258900000000001
20
-3.1759714960629921
11
6.1339764566929134
21
-3.1697665354330709
0
LINE
8
BLACK
6
CONTINUOUS
10
6.1339764566929134
20
-3.1697665354330709
11
6.1411838582677163
21
-3.1625591338582675
0
LINE
8
BLACK
6
CONTINUOUS
10
6.1411838582677163
20
-3.1625591338582675
11
6.147388818897638
21
-3.1544726771653542
0
LINE
8
BLACK
6
CONTINUOUS
10
6.147388818897638
20
-3.1544726771653542
11
6.1524852362204721
21
-3.1456454724409446
0
LINE
8
BLACK
6
CONTINUOUS
10
6.1524852362204721
20
-3.1456454724409446
11
6.1563858267716531
21
-3.1362285433070864
0
LINE
8
BLACK
6
CONTINUOUS
10
6.1563858267716531
20
-3.1362285433070864
11
6.1590238976377956
21
-3.1263830708661415
0
LINE
8
BLACK
6
CONTINUOUS
10
6.1590238976377956
20
-3.1263830708661415
11
6.1603543307086612
21
-3.1162774803149604
0
LINE
8
BLACK
6
CONTINUOUS
10
6.1603543307086612
20
-3.1162774803149604
11
6.1603543307086612
21
-3.1111811023622047
0
LINE
8
BLACK
6
CONTINUOUS
10
6.1603543307086612
20
-3.1111811023622047
11
6.1603543307086612
21
-2.0088188976377954
0
LINE
8
BLACK
6
CONTINUOUS
10
6.1603543307086612
20
-2.0088188976377954
11
6.1603543307086612
21
-2.0037225196850392
0
LINE
8
BLACK
6
CONTINUOUS
10
6.1603543307086612
20
-2.0037225196850392
11
6.1590238976377956
21
-1.9936169291338581
0
LINE
8
BLACK
6
CONTINUOUS
10
6.1590238976377956
20
-1.9936169291338581
11
6.1563858267716531
21
-1.9837714566929134
0
LINE
8
BLACK
6
CONTINUOUS
10
6.1563858267716531
20
-1.9837714566929134
11
6.1524852362204721
21
-1.9743545275590551
0
LINE
8
BLACK
6
CONTINUOUS
10
6.1524852362204721
20
-1.9743545275590551
11
6.147388818897638
21
-1.9655273228346457
0
LINE
8
BLACK
6
CONTINUOUS
10
6.147388818897638
20
-1.9655273228346457
11
6.1411838582677163
21
-1.9574408661417322
0
LINE
8
BLACK
6
CONTINUOUS
10
6.1411838582677163
20
-1.9574408661417322
11
6.1339764566929134
21
-1.950233464566929
0
LINE
8
BLACK
6
CONTINUOUS
10
6.1339764566929134
20
-1.950233464566929
11
6.1258900000000001
21
-1.9440285039370078
0
LINE
8
BLACK
6
CONTINUOUS
10
6.1258900000000001
20
-1.9440285039370078
11
6.11706279527559
21
-1.9389320866141733
0
LINE
8
BLACK
6
CONTINUOUS
10
6.11706279527559
20
-1.9389320866141733
11
6.1076458661417323
21
-1.9350314960629922
0
LINE
8
BLACK
6
CONTINUOUS
10
6.1076458661417323
20
-1.9350314960629922
11
6.097800393700787
21
-1.9323934251968504
0
LINE
8
BLACK
6
CONTINUOUS
10
6.097800393700787
20
-1.9323934251968504
11
6.0876948031496063
21
-1.9310629921259843
0
LINE
8
BLACK
6
CONTINUOUS
10
6.0876948031496063
20
-1.9310629921259843
11
6.0825984251968501
21
-1.9310629921259843
0
LINE
8
BLACK
6
CONTINUOUS
10
6.0825984251968501
20
-1.9310629921259843
11
2.106220472440945
21
-1.9310629921259843
  0
ENDSEC
  0
EOF
