  0
SECTION
  2
HEADER
  9
$ANGBASE
  50
0.0
  9
$ANGDIR
  70
1
  9
$MEASUREMENT
  70
0
  0
ENDSEC
  0
SECTION
  2
TABLES
  0
TABLE
  2
LTYPE
  70
4
  0
LTYPE
  5
40F
  2
CONTINUOUS
  70
0
  3
Solid line
  72
65
  73
0
  40
0.0
  0
LTYPE
  5
410
  2
DASHDOT
 70
0
  3
Dash Dot ____ _ ____ _
 72
65
 73
4
 40
2.0
 49
1.25
 49
-0.25
 49
0.25
 49
-0.25
  0
LTYPE
  5
411
  2
DASHED
 70
0
  3
Dashed __ __ __ __ __
 72
65
 73
2
 40
0.75
 49
0.5
 49
-0.25
  0
LTYPE
  5
43B
  2
DOTTED
 70
0
  3
Dotted .  .  .  .
 72
65
 73
2
 40
0.2
 49
0.0
 49
-0.2
  0
ENDTAB
  0
TABLE
  2
STYLE
  70
4
  0
STYLE
  2
KICAD
  70
0
  40
0
  41
1
  42
1
  50
0
  71
0
  3
isocp.shx
  0
STYLE
  2
KICADB
  70
0
  40
0
  41
1
  42
1
  50
0
  71
0
  3
isocp.shx
  0
STYLE
  2
KICADI
  70
0
  40
0
  41
1
  42
1
  50
15
  71
0
  3
isocp.shx
  0
STYLE
  2
KICADBI
  70
0
  40
0
  41
1
  42
1
  50
15
  71
0
  3
isocp.shx
  0
ENDTAB
  0
TABLE
  2
LAYER
  70
1
  0
LAYER
  2
BLACK
  70
0
  62
7
  6
CONTINUOUS
  0
ENDTAB
  0
ENDSEC
  0
SECTION
  2
ENTITIES
0
LINE
8
BLACK
6
CONTINUOUS
10
2.2398278740157478
20
-3.0481467716535433
11
2.2481561811023623
21
-3.0503783464566929
0
LINE
8
BLACK
6
CONTINUOUS
10
2.2481561811023623
20
-3.0503783464566929
11
2.2561219685039369
21
-3.0536778740157478
0
LINE
8
BLACK
6
CONTINUOUS
10
2.2561219685039369
20
-3.0536778740157478
11
2.2635889370078739
21
-3.0579889370078739
0
LINE
8
BLACK
6
CONTINUOUS
10
2.2635889370078739
20
-3.0579889370078739
11
2.2704292913385826
21
-3.0632377165354332
0
LINE
8
BLACK
6
CONTINUOUS
10
2.2704292913385826
20
-3.0632377165354332
11
2.2765260629921258
21
-3.0693344881889764
0
LINE
8
BLACK
6
CONTINUOUS
10
2.2765260629921258
20
-3.0693344881889764
11
2.2817748425196851
21
-3.0761748425196851
0
LINE
8
BLACK
6
CONTINUOUS
10
2.2817748425196851
20
-3.0761748425196851
11
2.2860859055118108
21
-3.0836418110236221
0
LINE
8
BLACK
6
CONTINUOUS
10
2.2860859055118108
20
-3.0836418110236221
11
2.2893854330708661
21
-3.0916075984251967
0
LINE
8
BLACK
6
CONTINUOUS
10
2.2893854330708661
20
-3.0916075984251967
11
2.2916170078740157
21
-3.0999359055118108
0
LINE
8
BLACK
6
CONTINUOUS
10
2.2916170078740157
20
-3.0999359055118108
11
2.2927424015748032
21
-3.1084842125984253
0
LINE
8
BLACK
6
CONTINUOUS
10
2.2927424015748032
20
-3.1084842125984253
11
2.2927424015748032
21
-3.1171063385826772
0
LINE
8
BLACK
6
CONTINUOUS
10
2.2927424015748032
20
-3.1171063385826772
11
2.2916170078740157
21
-3.1256546456692913
0
LINE
8
BLACK
6
CONTINUOUS
10
2.2916170078740157
20
-3.1256546456692913
11
2.2893854330708661
21
-3.1339829527559053
0
LINE
8
BLACK
6
CONTINUOUS
10
2.2893854330708661
20
-3.1339829527559053
11
2.2860859055118108
21
-3.1419487401574804
0
LINE
8
BLACK
6
CONTINUOUS
10
2.2860859055118108
20
-3.1419487401574804
11
2.2817748425196851
21
-3.1494157086614174
0
LINE
8
BLACK
6
CONTINUOUS
10
2.2817748425196851
20
-3.1494157086614174
11
2.2765260629921258
21
-3.1562560629921261
0
LINE
8
BLACK
6
CONTINUOUS
10
2.2765260629921258
20
-3.1562560629921261
11
2.2704292913385826
21
-3.1623528346456693
0
LINE
8
BLACK
6
CONTINUOUS
10
2.2704292913385826
20
-3.1623528346456693
11
2.2635889370078739
21
-3.1676016141732282
0
LINE
8
BLACK
6
CONTINUOUS
10
2.2635889370078739
20
-3.1676016141732282
11
2.2561219685039369
21
-3.1719126771653543
0
LINE
8
BLACK
6
CONTINUOUS
10
2.2561219685039369
20
-3.1719126771653543
11
2.2481561811023623
21
-3.1752122047244096
0
LINE
8
BLACK
6
CONTINUOUS
10
2.2481561811023623
20
-3.1752122047244096
11
2.2398278740157478
21
-3.1774437795275592
0
LINE
8
BLACK
6
CONTINUOUS
10
2.2398278740157478
20
-3.1774437795275592
11
2.2312795669291337
21
-3.1785691732283463
0
LINE
8
BLACK
6
CONTINUOUS
10
2.2312795669291337
20
-3.1785691732283463
11
2.2226574409448818
21
-3.1785691732283463
0
LINE
8
BLACK
6
CONTINUOUS
10
2.2226574409448818
20
-3.1785691732283463
11
2.2141091338582677
21
-3.1774437795275592
0
LINE
8
BLACK
6
CONTINUOUS
10
2.2141091338582677
20
-3.1774437795275592
11
2.2057808267716537
21
-3.1752122047244096
0
LINE
8
BLACK
6
CONTINUOUS
10
2.2057808267716537
20
-3.1752122047244096
11
2.1978150393700786
21
-3.1719126771653543
0
LINE
8
BLACK
6
CONTINUOUS
10
2.1978150393700786
20
-3.1719126771653543
11
2.1903480708661416
21
-3.1676016141732282
0
LINE
8
BLACK
6
CONTINUOUS
10
2.1903480708661416
20
-3.1676016141732282
11
2.1835077165354329
21
-3.1623528346456693
0
LINE
8
BLACK
6
CONTINUOUS
10
2.1835077165354329
20
-3.1623528346456693
11
2.1774109448818897
21
-3.1562560629921261
0
LINE
8
BLACK
6
CONTINUOUS
10
2.1774109448818897
20
-3.1562560629921261
11
2.1721621653543308
21
-3.1494157086614174
0
LINE
8
BLACK
6
CONTINUOUS
10
2.1721621653543308
20
-3.1494157086614174
11
2.1678511023622047
21
-3.1419487401574804
0
LINE
8
BLACK
6
CONTINUOUS
10
2.1678511023622047
20
-3.1419487401574804
11
2.1645515748031494
21
-3.1339829527559053
0
LINE
8
BLACK
6
CONTINUOUS
10
2.1645515748031494
20
-3.1339829527559053
11
2.1623199999999998
21
-3.1256546456692913
0
LINE
8
BLACK
6
CONTINUOUS
10
2.1623199999999998
20
-3.1256546456692913
11
2.1611946062992127
21
-3.1171063385826772
0
LINE
8
BLACK
6
CONTINUOUS
10
2.1611946062992127
20
-3.1171063385826772
11
2.1611946062992127
21
-3.1084842125984253
0
LINE
8
BLACK
6
CONTINUOUS
10
2.1611946062992127
20
-3.1084842125984253
11
2.1612896062992126
21
-3.1077625590551179
0
LINE
8
BLACK
6
CONTINUOUS
10
2.1612896062992126
20
-3.1077625590551179
11
2.1623199999999998
21
-3.0999359055118108
0
LINE
8
BLACK
6
CONTINUOUS
10
2.1623199999999998
20
-3.0999359055118108
11
2.1645515748031494
21
-3.0916075984251967
0
LINE
8
BLACK
6
CONTINUOUS
10
2.1645515748031494
20
-3.0916075984251967
11
2.1678511023622047
21
-3.0836418110236221
0
LINE
8
BLACK
6
CONTINUOUS
10
2.1678511023622047
20
-3.0836418110236221
11
2.1721621653543308
21
-3.0761748425196851
0
LINE
8
BLACK
6
CONTINUOUS
10
2.1721621653543308
20
-3.0761748425196851
11
2.1774109448818897
21
-3.0693344881889764
0
LINE
8
BLACK
6
CONTINUOUS
10
2.1774109448818897
20
-3.0693344881889764
11
2.1835077165354329
21
-3.0632377165354332
0
LINE
8
BLACK
6
CONTINUOUS
10
2.1835077165354329
20
-3.0632377165354332
11
2.1903480708661416
21
-3.0579889370078739
0
LINE
8
BLACK
6
CONTINUOUS
10
2.1903480708661416
20
-3.0579889370078739
11
2.1978150393700786
21
-3.0536778740157478
0
LINE
8
BLACK
6
CONTINUOUS
10
2.1978150393700786
20
-3.0536778740157478
11
2.2057808267716537
21
-3.0503783464566929
0
LINE
8
BLACK
6
CONTINUOUS
10
2.2057808267716537
20
-3.0503783464566929
11
2.2141091338582677
21
-3.0481467716535433
0
LINE
8
BLACK
6
CONTINUOUS
10
2.2141091338582677
20
-3.0481467716535433
11
2.2226574409448818
21
-3.0470213779527557
0
LINE
8
BLACK
6
CONTINUOUS
10
2.2226574409448818
20
-3.0470213779527557
11
2.2312795669291337
21
-3.0470213779527557
0
LINE
8
BLACK
6
CONTINUOUS
10
2.2312795669291337
20
-3.0470213779527557
11
2.2398278740157478
21
-3.0481467716535433
0
LINE
8
BLACK
6
CONTINUOUS
10
2.1630219685039371
20
-3.1178279921259842
11
2.1645965748031495
21
-3.1277694488188974
0
LINE
8
BLACK
6
CONTINUOUS
10
2.1645965748031495
20
-3.1277694488188974
11
2.1677069291338582
21
-3.1373422047244093
0
LINE
8
BLACK
6
CONTINUOUS
10
2.1677069291338582
20
-3.1373422047244093
11
2.1722765354330709
21
-3.1463105511811023
0
LINE
8
BLACK
6
CONTINUOUS
10
2.1722765354330709
20
-3.1463105511811023
11
2.1781928346456692
21
-3.1544536220472441
0
LINE
8
BLACK
6
CONTINUOUS
10
2.1781928346456692
20
-3.1544536220472441
11
2.1853101574803149
21
-3.1615709448818898
0
LINE
8
BLACK
6
CONTINUOUS
10
2.1853101574803149
20
-3.1615709448818898
11
2.1934532283464567
21
-3.1674872440944881
0
LINE
8
BLACK
6
CONTINUOUS
10
2.1934532283464567
20
-3.1674872440944881
11
2.2024215748031497
21
-3.1720568503937008
0
LINE
8
BLACK
6
CONTINUOUS
10
2.2024215748031497
20
-3.1720568503937008
11
2.2119943307086616
21
-3.1751672047244095
0
LINE
8
BLACK
6
CONTINUOUS
10
2.2119943307086616
20
-3.1751672047244095
11
2.2219357874015748
21
-3.1767418110236219
0
LINE
8
BLACK
6
CONTINUOUS
10
2.2219357874015748
20
-3.1767418110236219
11
2.2320012204724411
21
-3.1767418110236219
0
LINE
8
BLACK
6
CONTINUOUS
10
2.2320012204724411
20
-3.1767418110236219
11
2.2419426771653543
21
-3.1751672047244095
0
LINE
8
BLACK
6
CONTINUOUS
10
2.2419426771653543
20
-3.1751672047244095
11
2.2515154330708662
21
-3.1720568503937008
0
LINE
8
BLACK
6
CONTINUOUS
10
2.2515154330708662
20
-3.1720568503937008
11
2.2604837795275592
21
-3.1674872440944881
0
LINE
8
BLACK
6
CONTINUOUS
10
2.2604837795275592
20
-3.1674872440944881
11
2.2686268503937006
21
-3.1615709448818898
0
LINE
8
BLACK
6
CONTINUOUS
10
2.2686268503937006
20
-3.1615709448818898
11
2.2757441732283463
21
-3.1544536220472441
0
LINE
8
BLACK
6
CONTINUOUS
10
2.2757441732283463
20
-3.1544536220472441
11
2.2816604724409446
21
-3.1463105511811023
0
LINE
8
BLACK
6
CONTINUOUS
10
2.2816604724409446
20
-3.1463105511811023
11
2.2862300787401573
21
-3.1373422047244093
0
LINE
8
BLACK
6
CONTINUOUS
10
2.2862300787401573
20
-3.1373422047244093
11
2.289340433070866
21
-3.1277694488188974
0
LINE
8
BLACK
6
CONTINUOUS
10
2.289340433070866
20
-3.1277694488188974
11
2.2909150393700788
21
-3.1178279921259842
0
LINE
8
BLACK
6
CONTINUOUS
10
2.2909150393700788
20
-3.1178279921259842
11
2.2909150393700788
21
-3.1077625590551179
0
LINE
8
BLACK
6
CONTINUOUS
10
2.2909150393700788
20
-3.1077625590551179
11
2.289340433070866
21
-3.0978211023622046
0
LINE
8
BLACK
6
CONTINUOUS
10
2.289340433070866
20
-3.0978211023622046
11
2.2862300787401573
21
-3.0882483464566928
0
LINE
8
BLACK
6
CONTINUOUS
10
2.2862300787401573
20
-3.0882483464566928
11
2.2816604724409446
21
-3.0792799999999998
0
LINE
8
BLACK
6
CONTINUOUS
10
2.2816604724409446
20
-3.0792799999999998
11
2.2757441732283463
21
-3.0711369291338584
0
LINE
8
BLACK
6
CONTINUOUS
10
2.2757441732283463
20
-3.0711369291338584
11
2.2686268503937006
21
-3.0640196062992127
0
LINE
8
BLACK
6
CONTINUOUS
10
2.2686268503937006
20
-3.0640196062992127
11
2.2604837795275592
21
-3.0581033070866139
0
LINE
8
BLACK
6
CONTINUOUS
10
2.2604837795275592
20
-3.0581033070866139
11
2.2515154330708662
21
-3.0535337007874017
0
LINE
8
BLACK
6
CONTINUOUS
10
2.2515154330708662
20
-3.0535337007874017
11
2.2419426771653543
21
-3.050423346456693
0
LINE
8
BLACK
6
CONTINUOUS
10
2.2419426771653543
20
-3.050423346456693
11
2.2320012204724411
21
-3.0488487401574802
0
LINE
8
BLACK
6
CONTINUOUS
10
2.2320012204724411
20
-3.0488487401574802
11
2.2219357874015748
21
-3.0488487401574802
0
LINE
8
BLACK
6
CONTINUOUS
10
2.2219357874015748
20
-3.0488487401574802
11
2.2119943307086616
21
-3.050423346456693
0
LINE
8
BLACK
6
CONTINUOUS
10
2.2119943307086616
20
-3.050423346456693
11
2.2024215748031497
21
-3.0535337007874017
0
LINE
8
BLACK
6
CONTINUOUS
10
2.2024215748031497
20
-3.0535337007874017
11
2.1934532283464567
21
-3.0581033070866139
0
LINE
8
BLACK
6
CONTINUOUS
10
2.1934532283464567
20
-3.0581033070866139
11
2.1853101574803149
21
-3.0640196062992127
0
LINE
8
BLACK
6
CONTINUOUS
10
2.1853101574803149
20
-3.0640196062992127
11
2.1781928346456692
21
-3.0711369291338584
0
LINE
8
BLACK
6
CONTINUOUS
10
2.1781928346456692
20
-3.0711369291338584
11
2.1722765354330709
21
-3.0792799999999998
0
LINE
8
BLACK
6
CONTINUOUS
10
2.1722765354330709
20
-3.0792799999999998
11
2.1677069291338582
21
-3.0882483464566928
0
LINE
8
BLACK
6
CONTINUOUS
10
2.1677069291338582
20
-3.0882483464566928
11
2.1645965748031495
21
-3.0978211023622046
0
LINE
8
BLACK
6
CONTINUOUS
10
2.1645965748031495
20
-3.0978211023622046
11
2.1630219685039371
21
-3.1077625590551179
0
LINE
8
BLACK
6
CONTINUOUS
10
2.1630219685039371
20
-3.1077625590551179
11
2.1630219685039371
21
-3.1178279921259842
0
LINE
8
BLACK
6
CONTINUOUS
10
6.1374656692913385
20
-3.0481467716535433
11
6.145793976377953
21
-3.0503783464566929
0
LINE
8
BLACK
6
CONTINUOUS
10
6.145793976377953
20
-3.0503783464566929
11
6.1537597637795276
21
-3.0536778740157478
0
LINE
8
BLACK
6
CONTINUOUS
10
6.1537597637795276
20
-3.0536778740157478
11
6.1612267322834642
21
-3.0579889370078739
0
LINE
8
BLACK
6
CONTINUOUS
10
6.1612267322834642
20
-3.0579889370078739
11
6.1680670866141734
21
-3.0632377165354332
0
LINE
8
BLACK
6
CONTINUOUS
10
6.1680670866141734
20
-3.0632377165354332
11
6.1741638582677165
21
-3.0693344881889764
0
LINE
8
BLACK
6
CONTINUOUS
10
6.1741638582677165
20
-3.0693344881889764
11
6.1794126377952754
21
-3.0761748425196851
0
LINE
8
BLACK
6
CONTINUOUS
10
6.1794126377952754
20
-3.0761748425196851
11
6.1837237007874011
21
-3.0836418110236221
0
LINE
8
BLACK
6
CONTINUOUS
10
6.1837237007874011
20
-3.0836418110236221
11
6.1870232283464563
21
-3.0916075984251967
0
LINE
8
BLACK
6
CONTINUOUS
10
6.1870232283464563
20
-3.0916075984251967
11
6.1892548031496064
21
-3.0999359055118108
0
LINE
8
BLACK
6
CONTINUOUS
10
6.1892548031496064
20
-3.0999359055118108
11
6.190380196850394
21
-3.1084842125984253
0
LINE
8
BLACK
6
CONTINUOUS
10
6.190380196850394
20
-3.1084842125984253
11
6.190380196850394
21
-3.1171063385826772
0
LINE
8
BLACK
6
CONTINUOUS
10
6.190380196850394
20
-3.1171063385826772
11
6.1892548031496064
21
-3.1256546456692913
0
LINE
8
BLACK
6
CONTINUOUS
10
6.1892548031496064
20
-3.1256546456692913
11
6.1870232283464563
21
-3.1339829527559053
0
LINE
8
BLACK
6
CONTINUOUS
10
6.1870232283464563
20
-3.1339829527559053
11
6.1837237007874011
21
-3.1419487401574804
0
LINE
8
BLACK
6
CONTINUOUS
10
6.1837237007874011
20
-3.1419487401574804
11
6.1794126377952754
21
-3.1494157086614174
0
LINE
8
BLACK
6
CONTINUOUS
10
6.1794126377952754
20
-3.1494157086614174
11
6.1741638582677165
21
-3.1562560629921261
0
LINE
8
BLACK
6
CONTINUOUS
10
6.1741638582677165
20
-3.1562560629921261
11
6.1680670866141734
21
-3.1623528346456693
0
LINE
8
BLACK
6
CONTINUOUS
10
6.1680670866141734
20
-3.1623528346456693
11
6.1612267322834642
21
-3.1676016141732282
0
LINE
8
BLACK
6
CONTINUOUS
10
6.1612267322834642
20
-3.1676016141732282
11
6.1537597637795276
21
-3.1719126771653543
0
LINE
8
BLACK
6
CONTINUOUS
10
6.1537597637795276
20
-3.1719126771653543
11
6.145793976377953
21
-3.1752122047244096
0
LINE
8
BLACK
6
CONTINUOUS
10
6.145793976377953
20
-3.1752122047244096
11
6.1374656692913385
21
-3.1774437795275592
0
LINE
8
BLACK
6
CONTINUOUS
10
6.1374656692913385
20
-3.1774437795275592
11
6.1289173622047244
21
-3.1785691732283463
0
LINE
8
BLACK
6
CONTINUOUS
10
6.1289173622047244
20
-3.1785691732283463
11
6.1202952362204721
21
-3.1785691732283463
0
LINE
8
BLACK
6
CONTINUOUS
10
6.1202952362204721
20
-3.1785691732283463
11
6.111746929133858
21
-3.1774437795275592
0
LINE
8
BLACK
6
CONTINUOUS
10
6.111746929133858
20
-3.1774437795275592
11
6.1034186220472444
21
-3.1752122047244096
0
LINE
8
BLACK
6
CONTINUOUS
10
6.1034186220472444
20
-3.1752122047244096
11
6.0954528346456689
21
-3.1719126771653543
0
LINE
8
BLACK
6
CONTINUOUS
10
6.0954528346456689
20
-3.1719126771653543
11
6.0879858661417323
21
-3.1676016141732282
0
LINE
8
BLACK
6
CONTINUOUS
10
6.0879858661417323
20
-3.1676016141732282
11
6.0811455118110231
21
-3.1623528346456693
0
LINE
8
BLACK
6
CONTINUOUS
10
6.0811455118110231
20
-3.1623528346456693
11
6.07504874015748
21
-3.1562560629921261
0
LINE
8
BLACK
6
CONTINUOUS
10
6.07504874015748
20
-3.1562560629921261
11
6.0697999606299211
21
-3.1494157086614174
0
LINE
8
BLACK
6
CONTINUOUS
10
6.0697999606299211
20
-3.1494157086614174
11
6.0654888976377954
21
-3.1419487401574804
0
LINE
8
BLACK
6
CONTINUOUS
10
6.0654888976377954
20
-3.1419487401574804
11
6.0621893700787401
21
-3.1339829527559053
0
LINE
8
BLACK
6
CONTINUOUS
10
6.0621893700787401
20
-3.1339829527559053
11
6.0599577952755901
21
-3.1256546456692913
0
LINE
8
BLACK
6
CONTINUOUS
10
6.0599577952755901
20
-3.1256546456692913
11
6.0588324015748034
21
-3.1171063385826772
0
LINE
8
BLACK
6
CONTINUOUS
10
6.0588324015748034
20
-3.1171063385826772
11
6.0588324015748034
21
-3.1084842125984253
0
LINE
8
BLACK
6
CONTINUOUS
10
6.0588324015748034
20
-3.1084842125984253
11
6.0589274015748034
21
-3.1077625590551179
0
LINE
8
BLACK
6
CONTINUOUS
10
6.0589274015748034
20
-3.1077625590551179
11
6.0599577952755901
21
-3.0999359055118108
0
LINE
8
BLACK
6
CONTINUOUS
10
6.0599577952755901
20
-3.0999359055118108
11
6.0621893700787401
21
-3.0916075984251967
0
LINE
8
BLACK
6
CONTINUOUS
10
6.0621893700787401
20
-3.0916075984251967
11
6.0654888976377954
21
-3.0836418110236221
0
LINE
8
BLACK
6
CONTINUOUS
10
6.0654888976377954
20
-3.0836418110236221
11
6.0697999606299211
21
-3.0761748425196851
0
LINE
8
BLACK
6
CONTINUOUS
10
6.0697999606299211
20
-3.0761748425196851
11
6.07504874015748
21
-3.0693344881889764
0
LINE
8
BLACK
6
CONTINUOUS
10
6.07504874015748
20
-3.0693344881889764
11
6.0811455118110231
21
-3.0632377165354332
0
LINE
8
BLACK
6
CONTINUOUS
10
6.0811455118110231
20
-3.0632377165354332
11
6.0879858661417323
21
-3.0579889370078739
0
LINE
8
BLACK
6
CONTINUOUS
10
6.0879858661417323
20
-3.0579889370078739
11
6.0954528346456689
21
-3.0536778740157478
0
LINE
8
BLACK
6
CONTINUOUS
10
6.0954528346456689
20
-3.0536778740157478
11
6.1034186220472444
21
-3.0503783464566929
0
LINE
8
BLACK
6
CONTINUOUS
10
6.1034186220472444
20
-3.0503783464566929
11
6.111746929133858
21
-3.0481467716535433
0
LINE
8
BLACK
6
CONTINUOUS
10
6.111746929133858
20
-3.0481467716535433
11
6.1202952362204721
21
-3.0470213779527557
0
LINE
8
BLACK
6
CONTINUOUS
10
6.1202952362204721
20
-3.0470213779527557
11
6.1289173622047244
21
-3.0470213779527557
0
LINE
8
BLACK
6
CONTINUOUS
10
6.1289173622047244
20
-3.0470213779527557
11
6.1374656692913385
21
-3.0481467716535433
0
LINE
8
BLACK
6
CONTINUOUS
10
6.0606597637795279
20
-3.1178279921259842
11
6.0622343700787402
21
-3.1277694488188974
0
LINE
8
BLACK
6
CONTINUOUS
10
6.0622343700787402
20
-3.1277694488188974
11
6.0653447244094485
21
-3.1373422047244093
0
LINE
8
BLACK
6
CONTINUOUS
10
6.0653447244094485
20
-3.1373422047244093
11
6.0699143307086612
21
-3.1463105511811023
0
LINE
8
BLACK
6
CONTINUOUS
10
6.0699143307086612
20
-3.1463105511811023
11
6.0758306299212599
21
-3.1544536220472441
0
LINE
8
BLACK
6
CONTINUOUS
10
6.0758306299212599
20
-3.1544536220472441
11
6.0829479527559052
21
-3.1615709448818898
0
LINE
8
BLACK
6
CONTINUOUS
10
6.0829479527559052
20
-3.1615709448818898
11
6.091091023622047
21
-3.1674872440944881
0
LINE
8
BLACK
6
CONTINUOUS
10
6.091091023622047
20
-3.1674872440944881
11
6.10005937007874
21
-3.1720568503937008
0
LINE
8
BLACK
6
CONTINUOUS
10
6.10005937007874
20
-3.1720568503937008
11
6.1096321259842519
21
-3.1751672047244095
0
LINE
8
BLACK
6
CONTINUOUS
10
6.1096321259842519
20
-3.1751672047244095
11
6.1195735826771651
21
-3.1767418110236219
0
LINE
8
BLACK
6
CONTINUOUS
10
6.1195735826771651
20
-3.1767418110236219
11
6.1296390157480314
21
-3.1767418110236219
0
LINE
8
BLACK
6
CONTINUOUS
10
6.1296390157480314
20
-3.1767418110236219
11
6.1395804724409446
21
-3.1751672047244095
0
LINE
8
BLACK
6
CONTINUOUS
10
6.1395804724409446
20
-3.1751672047244095
11
6.1491532283464565
21
-3.1720568503937008
0
LINE
8
BLACK
6
CONTINUOUS
10
6.1491532283464565
20
-3.1720568503937008
11
6.1581215748031495
21
-3.1674872440944881
0
LINE
8
BLACK
6
CONTINUOUS
10
6.1581215748031495
20
-3.1674872440944881
11
6.1662646456692913
21
-3.1615709448818898
0
LINE
8
BLACK
6
CONTINUOUS
10
6.1662646456692913
20
-3.1615709448818898
11
6.1733819685039366
21
-3.1544536220472441
0
LINE
8
BLACK
6
CONTINUOUS
10
6.1733819685039366
20
-3.1544536220472441
11
6.1792982677165353
21
-3.1463105511811023
0
LINE
8
BLACK
6
CONTINUOUS
10
6.1792982677165353
20
-3.1463105511811023
11
6.183867874015748
21
-3.1373422047244093
0
LINE
8
BLACK
6
CONTINUOUS
10
6.183867874015748
20
-3.1373422047244093
11
6.1869782283464563
21
-3.1277694488188974
0
LINE
8
BLACK
6
CONTINUOUS
10
6.1869782283464563
20
-3.1277694488188974
11
6.1885528346456695
21
-3.1178279921259842
0
LINE
8
BLACK
6
CONTINUOUS
10
6.1885528346456695
20
-3.1178279921259842
11
6.1885528346456695
21
-3.1077625590551179
0
LINE
8
BLACK
6
CONTINUOUS
10
6.1885528346456695
20
-3.1077625590551179
11
6.1869782283464563
21
-3.0978211023622046
0
LINE
8
BLACK
6
CONTINUOUS
10
6.1869782283464563
20
-3.0978211023622046
11
6.183867874015748
21
-3.0882483464566928
0
LINE
8
BLACK
6
CONTINUOUS
10
6.183867874015748
20
-3.0882483464566928
11
6.1792982677165353
21
-3.0792799999999998
0
LINE
8
BLACK
6
CONTINUOUS
10
6.1792982677165353
20
-3.0792799999999998
11
6.1733819685039366
21
-3.0711369291338584
0
LINE
8
BLACK
6
CONTINUOUS
10
6.1733819685039366
20
-3.0711369291338584
11
6.1662646456692913
21
-3.0640196062992127
0
LINE
8
BLACK
6
CONTINUOUS
10
6.1662646456692913
20
-3.0640196062992127
11
6.1581215748031495
21
-3.0581033070866139
0
LINE
8
BLACK
6
CONTINUOUS
10
6.1581215748031495
20
-3.0581033070866139
11
6.1491532283464565
21
-3.0535337007874017
0
LINE
8
BLACK
6
CONTINUOUS
10
6.1491532283464565
20
-3.0535337007874017
11
6.1395804724409446
21
-3.050423346456693
0
LINE
8
BLACK
6
CONTINUOUS
10
6.1395804724409446
20
-3.050423346456693
11
6.1296390157480314
21
-3.0488487401574802
0
LINE
8
BLACK
6
CONTINUOUS
10
6.1296390157480314
20
-3.0488487401574802
11
6.1195735826771651
21
-3.0488487401574802
0
LINE
8
BLACK
6
CONTINUOUS
10
6.1195735826771651
20
-3.0488487401574802
11
6.1096321259842519
21
-3.050423346456693
0
LINE
8
BLACK
6
CONTINUOUS
10
6.1096321259842519
20
-3.050423346456693
11
6.10005937007874
21
-3.0535337007874017
0
LINE
8
BLACK
6
CONTINUOUS
10
6.10005937007874
20
-3.0535337007874017
11
6.091091023622047
21
-3.0581033070866139
0
LINE
8
BLACK
6
CONTINUOUS
10
6.091091023622047
20
-3.0581033070866139
11
6.0829479527559052
21
-3.0640196062992127
0
LINE
8
BLACK
6
CONTINUOUS
10
6.0829479527559052
20
-3.0640196062992127
11
6.0758306299212599
21
-3.0711369291338584
0
LINE
8
BLACK
6
CONTINUOUS
10
6.0758306299212599
20
-3.0711369291338584
11
6.0699143307086612
21
-3.0792799999999998
0
LINE
8
BLACK
6
CONTINUOUS
10
6.0699143307086612
20
-3.0792799999999998
11
6.0653447244094485
21
-3.0882483464566928
0
LINE
8
BLACK
6
CONTINUOUS
10
6.0653447244094485
20
-3.0882483464566928
11
6.0622343700787402
21
-3.0978211023622046
0
LINE
8
BLACK
6
CONTINUOUS
10
6.0622343700787402
20
-3.0978211023622046
11
6.0606597637795279
21
-3.1077625590551179
0
LINE
8
BLACK
6
CONTINUOUS
10
6.0606597637795279
20
-3.1077625590551179
11
6.0606597637795279
21
-3.1178279921259842
0
LINE
8
BLACK
6
CONTINUOUS
10
2.4347075590551182
20
-2.8804327952755906
11
2.4416685433070864
21
-2.8826945669291337
0
LINE
8
BLACK
6
CONTINUOUS
10
2.4416685433070864
20
-2.8826945669291337
11
2.4481899606299211
21
-2.886017401574803
0
LINE
8
BLACK
6
CONTINUOUS
10
2.4481899606299211
20
-2.886017401574803
11
2.4541113385826772
21
-2.890319527559055
0
LINE
8
BLACK
6
CONTINUOUS
10
2.4541113385826772
20
-2.890319527559055
11
2.4592867716535434
21
-2.8954949606299212
0
LINE
8
BLACK
6
CONTINUOUS
10
2.4592867716535434
20
-2.8954949606299212
11
2.4635888976377953
21
-2.9014163385826772
0
LINE
8
BLACK
6
CONTINUOUS
10
2.4635888976377953
20
-2.9014163385826772
11
2.4669117322834646
21
-2.907937755905512
0
LINE
8
BLACK
6
CONTINUOUS
10
2.4669117322834646
20
-2.907937755905512
11
2.4691735039370077
21
-2.9148987401574802
0
LINE
8
BLACK
6
CONTINUOUS
10
2.4691735039370077
20
-2.9148987401574802
11
2.4703184645669292
21
-2.9221277952755904
0
LINE
8
BLACK
6
CONTINUOUS
10
2.4703184645669292
20
-2.9221277952755904
11
2.4703184645669292
21
-2.9294470078740158
0
LINE
8
BLACK
6
CONTINUOUS
10
2.4703184645669292
20
-2.9294470078740158
11
2.4691735039370077
21
-2.936676062992126
0
LINE
8
BLACK
6
CONTINUOUS
10
2.4691735039370077
20
-2.936676062992126
11
2.4669117322834646
21
-2.9436370472440943
0
LINE
8
BLACK
6
CONTINUOUS
10
2.4669117322834646
20
-2.9436370472440943
11
2.4635888976377953
21
-2.950158464566929
0
LINE
8
BLACK
6
CONTINUOUS
10
2.4635888976377953
20
-2.950158464566929
11
2.4592867716535434
21
-2.956079842519685
0
LINE
8
BLACK
6
CONTINUOUS
10
2.4592867716535434
20
-2.956079842519685
11
2.4541113385826772
21
-2.9612552755905512
0
LINE
8
BLACK
6
CONTINUOUS
10
2.4541113385826772
20
-2.9612552755905512
11
2.4481899606299211
21
-2.9655574015748032
0
LINE
8
BLACK
6
CONTINUOUS
10
2.4481899606299211
20
-2.9655574015748032
11
2.4416685433070864
21
-2.9688802362204725
0
LINE
8
BLACK
6
CONTINUOUS
10
2.4416685433070864
20
-2.9688802362204725
11
2.4347075590551182
21
-2.9711420078740156
0
LINE
8
BLACK
6
CONTINUOUS
10
2.4347075590551182
20
-2.9711420078740156
11
2.4274785039370079
21
-2.972286968503937
0
LINE
8
BLACK
6
CONTINUOUS
10
2.4274785039370079
20
-2.972286968503937
11
2.4201592913385825
21
-2.972286968503937
0
LINE
8
BLACK
6
CONTINUOUS
10
2.4201592913385825
20
-2.972286968503937
11
2.4129302362204723
21
-2.9711420078740156
0
LINE
8
BLACK
6
CONTINUOUS
10
2.4129302362204723
20
-2.9711420078740156
11
2.4059692519685041
21
-2.9688802362204725
0
LINE
8
BLACK
6
CONTINUOUS
10
2.4059692519685041
20
-2.9688802362204725
11
2.3994478346456694
21
-2.9655574015748032
0
LINE
8
BLACK
6
CONTINUOUS
10
2.3994478346456694
20
-2.9655574015748032
11
2.3935264566929133
21
-2.9612552755905512
0
LINE
8
BLACK
6
CONTINUOUS
10
2.3935264566929133
20
-2.9612552755905512
11
2.3883510236220471
21
-2.956079842519685
0
LINE
8
BLACK
6
CONTINUOUS
10
2.3883510236220471
20
-2.956079842519685
11
2.3840488976377952
21
-2.950158464566929
0
LINE
8
BLACK
6
CONTINUOUS
10
2.3840488976377952
20
-2.950158464566929
11
2.3807260629921259
21
-2.9436370472440943
0
LINE
8
BLACK
6
CONTINUOUS
10
2.3807260629921259
20
-2.9436370472440943
11
2.3784642913385827
21
-2.936676062992126
0
LINE
8
BLACK
6
CONTINUOUS
10
2.3784642913385827
20
-2.936676062992126
11
2.3773193307086613
21
-2.9294470078740158
0
LINE
8
BLACK
6
CONTINUOUS
10
2.3773193307086613
20
-2.9294470078740158
11
2.3773193307086613
21
-2.9222714173228348
0
LINE
8
BLACK
6
CONTINUOUS
10
2.3773193307086613
20
-2.9222714173228348
11
2.3773193307086613
21
-2.9221277952755904
0
LINE
8
BLACK
6
CONTINUOUS
10
2.3773193307086613
20
-2.9221277952755904
11
2.3784642913385827
21
-2.9148987401574802
0
LINE
8
BLACK
6
CONTINUOUS
10
2.3784642913385827
20
-2.9148987401574802
11
2.3807260629921259
21
-2.907937755905512
0
LINE
8
BLACK
6
CONTINUOUS
10
2.3807260629921259
20
-2.907937755905512
11
2.3840488976377952
21
-2.9014163385826772
0
LINE
8
BLACK
6
CONTINUOUS
10
2.3840488976377952
20
-2.9014163385826772
11
2.3883510236220471
21
-2.8954949606299212
0
LINE
8
BLACK
6
CONTINUOUS
10
2.3883510236220471
20
-2.8954949606299212
11
2.3935264566929133
21
-2.890319527559055
0
LINE
8
BLACK
6
CONTINUOUS
10
2.3935264566929133
20
-2.890319527559055
11
2.3994478346456694
21
-2.886017401574803
0
LINE
8
BLACK
6
CONTINUOUS
10
2.3994478346456694
20
-2.886017401574803
11
2.4059692519685041
21
-2.8826945669291337
0
LINE
8
BLACK
6
CONTINUOUS
10
2.4059692519685041
20
-2.8826945669291337
11
2.4129302362204723
21
-2.8804327952755906
0
LINE
8
BLACK
6
CONTINUOUS
10
2.4129302362204723
20
-2.8804327952755906
11
2.4201592913385825
21
-2.8792878346456692
0
LINE
8
BLACK
6
CONTINUOUS
10
2.4201592913385825
20
-2.8792878346456692
11
2.4274785039370079
21
-2.8792878346456692
0
LINE
8
BLACK
6
CONTINUOUS
10
2.4274785039370079
20
-2.8792878346456692
11
2.4347075590551182
21
-2.8804327952755906
0
LINE
8
BLACK
6
CONTINUOUS
10
2.3791440551181102
20
-2.9293033858267714
11
2.3802440944881891
21
-2.9362487795275589
0
LINE
8
BLACK
6
CONTINUOUS
10
2.3802440944881891
20
-2.9362487795275589
11
2.3824170866141734
21
-2.9429365748031495
0
LINE
8
BLACK
6
CONTINUOUS
10
2.3824170866141734
20
-2.9429365748031495
11
2.3856095275590552
21
-2.949202125984252
0
LINE
8
BLACK
6
CONTINUOUS
10
2.3856095275590552
20
-2.949202125984252
11
2.3897428346456691
21
-2.9548911023622049
0
LINE
8
BLACK
6
CONTINUOUS
10
2.3897428346456691
20
-2.9548911023622049
11
2.3947151968503935
21
-2.9598634645669293
0
LINE
8
BLACK
6
CONTINUOUS
10
2.3947151968503935
20
-2.9598634645669293
11
2.4004041732283463
21
-2.9639967716535431
0
LINE
8
BLACK
6
CONTINUOUS
10
2.4004041732283463
20
-2.9639967716535431
11
2.4066697244094488
21
-2.9671892125984249
0
LINE
8
BLACK
6
CONTINUOUS
10
2.4066697244094488
20
-2.9671892125984249
11
2.4133575196850394
21
-2.9693622047244093
0
LINE
8
BLACK
6
CONTINUOUS
10
2.4133575196850394
20
-2.9693622047244093
11
2.4203029133858269
21
-2.9704622440944881
0
LINE
8
BLACK
6
CONTINUOUS
10
2.4203029133858269
20
-2.9704622440944881
11
2.4273348818897635
21
-2.9704622440944881
0
LINE
8
BLACK
6
CONTINUOUS
10
2.4273348818897635
20
-2.9704622440944881
11
2.434280275590551
21
-2.9693622047244093
0
LINE
8
BLACK
6
CONTINUOUS
10
2.434280275590551
20
-2.9693622047244093
11
2.4409680708661416
21
-2.9671892125984249
0
LINE
8
BLACK
6
CONTINUOUS
10
2.4409680708661416
20
-2.9671892125984249
11
2.4472336220472442
21
-2.9639967716535431
0
LINE
8
BLACK
6
CONTINUOUS
10
2.4472336220472442
20
-2.9639967716535431
11
2.452922598425197
21
-2.9598634645669293
0
LINE
8
BLACK
6
CONTINUOUS
10
2.452922598425197
20
-2.9598634645669293
11
2.4578949606299214
21
-2.9548911023622049
0
LINE
8
BLACK
6
CONTINUOUS
10
2.4578949606299214
20
-2.9548911023622049
11
2.4620282677165353
21
-2.949202125984252
0
LINE
8
BLACK
6
CONTINUOUS
10
2.4620282677165353
20
-2.949202125984252
11
2.4652207086614171
21
-2.9429365748031495
0
LINE
8
BLACK
6
CONTINUOUS
10
2.4652207086614171
20
-2.9429365748031495
11
2.4673937007874014
21
-2.9362487795275589
0
LINE
8
BLACK
6
CONTINUOUS
10
2.4673937007874014
20
-2.9362487795275589
11
2.4684937401574802
21
-2.9293033858267714
0
LINE
8
BLACK
6
CONTINUOUS
10
2.4684937401574802
20
-2.9293033858267714
11
2.4684937401574802
21
-2.9222714173228348
0
LINE
8
BLACK
6
CONTINUOUS
10
2.4684937401574802
20
-2.9222714173228348
11
2.4673937007874014
21
-2.9153260236220473
0
LINE
8
BLACK
6
CONTINUOUS
10
2.4673937007874014
20
-2.9153260236220473
11
2.4652207086614171
21
-2.9086382283464567
0
LINE
8
BLACK
6
CONTINUOUS
10
2.4652207086614171
20
-2.9086382283464567
11
2.4620282677165353
21
-2.9023726771653542
0
LINE
8
BLACK
6
CONTINUOUS
10
2.4620282677165353
20
-2.9023726771653542
11
2.4578949606299214
21
-2.8966837007874013
0
LINE
8
BLACK
6
CONTINUOUS
10
2.4578949606299214
20
-2.8966837007874013
11
2.452922598425197
21
-2.8917113385826769
0
LINE
8
BLACK
6
CONTINUOUS
10
2.452922598425197
20
-2.8917113385826769
11
2.4472336220472442
21
-2.8875780314960631
0
LINE
8
BLACK
6
CONTINUOUS
10
2.4472336220472442
20
-2.8875780314960631
11
2.4409680708661416
21
-2.8843855905511808
0
LINE
8
BLACK
6
CONTINUOUS
10
2.4409680708661416
20
-2.8843855905511808
11
2.434280275590551
21
-2.8822125984251969
0
LINE
8
BLACK
6
CONTINUOUS
10
2.434280275590551
20
-2.8822125984251969
11
2.4273348818897635
21
-2.8811125590551181
0
LINE
8
BLACK
6
CONTINUOUS
10
2.4273348818897635
20
-2.8811125590551181
11
2.4203029133858269
21
-2.8811125590551181
0
LINE
8
BLACK
6
CONTINUOUS
10
2.4203029133858269
20
-2.8811125590551181
11
2.4133575196850394
21
-2.8822125984251969
0
LINE
8
BLACK
6
CONTINUOUS
10
2.4133575196850394
20
-2.8822125984251969
11
2.4066697244094488
21
-2.8843855905511808
0
LINE
8
BLACK
6
CONTINUOUS
10
2.4066697244094488
20
-2.8843855905511808
11
2.4004041732283463
21
-2.8875780314960631
0
LINE
8
BLACK
6
CONTINUOUS
10
2.4004041732283463
20
-2.8875780314960631
11
2.3947151968503935
21
-2.8917113385826769
0
LINE
8
BLACK
6
CONTINUOUS
10
2.3947151968503935
20
-2.8917113385826769
11
2.3897428346456691
21
-2.8966837007874013
0
LINE
8
BLACK
6
CONTINUOUS
10
2.3897428346456691
20
-2.8966837007874013
11
2.3856095275590552
21
-2.9023726771653542
0
LINE
8
BLACK
6
CONTINUOUS
10
2.3856095275590552
20
-2.9023726771653542
11
2.3824170866141734
21
-2.9086382283464567
0
LINE
8
BLACK
6
CONTINUOUS
10
2.3824170866141734
20
-2.9086382283464567
11
2.3802440944881891
21
-2.9153260236220473
0
LINE
8
BLACK
6
CONTINUOUS
10
2.3802440944881891
20
-2.9153260236220473
11
2.3791440551181102
21
-2.9222714173228348
0
LINE
8
BLACK
6
CONTINUOUS
10
2.3791440551181102
20
-2.9222714173228348
11
2.3791440551181102
21
-2.9293033858267714
0
LINE
8
BLACK
6
CONTINUOUS
10
5.9386445669291339
20
-2.8804327952755906
11
5.9456055511811021
21
-2.8826945669291337
0
LINE
8
BLACK
6
CONTINUOUS
10
5.9456055511811021
20
-2.8826945669291337
11
5.9521269685039373
21
-2.886017401574803
0
LINE
8
BLACK
6
CONTINUOUS
10
5.9521269685039373
20
-2.886017401574803
11
5.9580483464566925
21
-2.890319527559055
0
LINE
8
BLACK
6
CONTINUOUS
10
5.9580483464566925
20
-2.890319527559055
11
5.9632237795275591
21
-2.8954949606299212
0
LINE
8
BLACK
6
CONTINUOUS
10
5.9632237795275591
20
-2.8954949606299212
11
5.9675259055118106
21
-2.9014163385826772
0
LINE
8
BLACK
6
CONTINUOUS
10
5.9675259055118106
20
-2.9014163385826772
11
5.9708487401574803
21
-2.907937755905512
0
LINE
8
BLACK
6
CONTINUOUS
10
5.9708487401574803
20
-2.907937755905512
11
5.9731105118110239
21
-2.9148987401574802
0
LINE
8
BLACK
6
CONTINUOUS
10
5.9731105118110239
20
-2.9148987401574802
11
5.9742554724409445
21
-2.9221277952755904
0
LINE
8
BLACK
6
CONTINUOUS
10
5.9742554724409445
20
-2.9221277952755904
11
5.9742554724409445
21
-2.9294470078740158
0
LINE
8
BLACK
6
CONTINUOUS
10
5.9742554724409445
20
-2.9294470078740158
11
5.9731105118110239
21
-2.936676062992126
0
LINE
8
BLACK
6
CONTINUOUS
10
5.9731105118110239
20
-2.936676062992126
11
5.9708487401574803
21
-2.9436370472440943
0
LINE
8
BLACK
6
CONTINUOUS
10
5.9708487401574803
20
-2.9436370472440943
11
5.9675259055118106
21
-2.950158464566929
0
LINE
8
BLACK
6
CONTINUOUS
10
5.9675259055118106
20
-2.950158464566929
11
5.9632237795275591
21
-2.956079842519685
0
LINE
8
BLACK
6
CONTINUOUS
10
5.9632237795275591
20
-2.956079842519685
11
5.9580483464566925
21
-2.9612552755905512
0
LINE
8
BLACK
6
CONTINUOUS
10
5.9580483464566925
20
-2.9612552755905512
11
5.9521269685039373
21
-2.9655574015748032
0
LINE
8
BLACK
6
CONTINUOUS
10
5.9521269685039373
20
-2.9655574015748032
11
5.9456055511811021
21
-2.9688802362204725
0
LINE
8
BLACK
6
CONTINUOUS
10
5.9456055511811021
20
-2.9688802362204725
11
5.9386445669291339
21
-2.9711420078740156
0
LINE
8
BLACK
6
CONTINUOUS
10
5.9386445669291339
20
-2.9711420078740156
11
5.9314155118110232
21
-2.972286968503937
0
LINE
8
BLACK
6
CONTINUOUS
10
5.9314155118110232
20
-2.972286968503937
11
5.9240962992125983
21
-2.972286968503937
0
LINE
8
BLACK
6
CONTINUOUS
10
5.9240962992125983
20
-2.972286968503937
11
5.9168672440944885
21
-2.9711420078740156
0
LINE
8
BLACK
6
CONTINUOUS
10
5.9168672440944885
20
-2.9711420078740156
11
5.9099062598425194
21
-2.9688802362204725
0
LINE
8
BLACK
6
CONTINUOUS
10
5.9099062598425194
20
-2.9688802362204725
11
5.9033848425196851
21
-2.9655574015748032
0
LINE
8
BLACK
6
CONTINUOUS
10
5.9033848425196851
20
-2.9655574015748032
11
5.897463464566929
21
-2.9612552755905512
0
LINE
8
BLACK
6
CONTINUOUS
10
5.897463464566929
20
-2.9612552755905512
11
5.8922880314960633
21
-2.956079842519685
0
LINE
8
BLACK
6
CONTINUOUS
10
5.8922880314960633
20
-2.956079842519685
11
5.8879859055118109
21
-2.950158464566929
0
LINE
8
BLACK
6
CONTINUOUS
10
5.8879859055118109
20
-2.950158464566929
11
5.8846630708661412
21
-2.9436370472440943
0
LINE
8
BLACK
6
CONTINUOUS
10
5.8846630708661412
20
-2.9436370472440943
11
5.8824012992125985
21
-2.936676062992126
0
LINE
8
BLACK
6
CONTINUOUS
10
5.8824012992125985
20
-2.936676062992126
11
5.881256338582677
21
-2.9294470078740158
0
LINE
8
BLACK
6
CONTINUOUS
10
5.881256338582677
20
-2.9294470078740158
11
5.881256338582677
21
-2.9222714173228348
0
LINE
8
BLACK
6
CONTINUOUS
10
5.881256338582677
20
-2.9222714173228348
11
5.881256338582677
21
-2.9221277952755904
0
LINE
8
BLACK
6
CONTINUOUS
10
5.881256338582677
20
-2.9221277952755904
11
5.8824012992125985
21
-2.9148987401574802
0
LINE
8
BLACK
6
CONTINUOUS
10
5.8824012992125985
20
-2.9148987401574802
11
5.8846630708661412
21
-2.907937755905512
0
LINE
8
BLACK
6
CONTINUOUS
10
5.8846630708661412
20
-2.907937755905512
11
5.8879859055118109
21
-2.9014163385826772
0
LINE
8
BLACK
6
CONTINUOUS
10
5.8879859055118109
20
-2.9014163385826772
11
5.8922880314960633
21
-2.8954949606299212
0
LINE
8
BLACK
6
CONTINUOUS
10
5.8922880314960633
20
-2.8954949606299212
11
5.897463464566929
21
-2.890319527559055
0
LINE
8
BLACK
6
CONTINUOUS
10
5.897463464566929
20
-2.890319527559055
11
5.9033848425196851
21
-2.886017401574803
0
LINE
8
BLACK
6
CONTINUOUS
10
5.9033848425196851
20
-2.886017401574803
11
5.9099062598425194
21
-2.8826945669291337
0
LINE
8
BLACK
6
CONTINUOUS
10
5.9099062598425194
20
-2.8826945669291337
11
5.9168672440944885
21
-2.8804327952755906
0
LINE
8
BLACK
6
CONTINUOUS
10
5.9168672440944885
20
-2.8804327952755906
11
5.9240962992125983
21
-2.8792878346456692
0
LINE
8
BLACK
6
CONTINUOUS
10
5.9240962992125983
20
-2.8792878346456692
11
5.9314155118110232
21
-2.8792878346456692
0
LINE
8
BLACK
6
CONTINUOUS
10
5.9314155118110232
20
-2.8792878346456692
11
5.9386445669291339
21
-2.8804327952755906
0
LINE
8
BLACK
6
CONTINUOUS
10
5.883081062992126
20
-2.9293033858267714
11
5.8841811023622048
21
-2.9362487795275589
0
LINE
8
BLACK
6
CONTINUOUS
10
5.8841811023622048
20
-2.9362487795275589
11
5.8863540944881887
21
-2.9429365748031495
0
LINE
8
BLACK
6
CONTINUOUS
10
5.8863540944881887
20
-2.9429365748031495
11
5.8895465354330705
21
-2.949202125984252
0
LINE
8
BLACK
6
CONTINUOUS
10
5.8895465354330705
20
-2.949202125984252
11
5.8936798425196848
21
-2.9548911023622049
0
LINE
8
BLACK
6
CONTINUOUS
10
5.8936798425196848
20
-2.9548911023622049
11
5.8986522047244092
21
-2.9598634645669293
0
LINE
8
BLACK
6
CONTINUOUS
10
5.8986522047244092
20
-2.9598634645669293
11
5.9043411811023621
21
-2.9639967716535431
0
LINE
8
BLACK
6
CONTINUOUS
10
5.9043411811023621
20
-2.9639967716535431
11
5.9106067322834646
21
-2.9671892125984249
0
LINE
8
BLACK
6
CONTINUOUS
10
5.9106067322834646
20
-2.9671892125984249
11
5.9172945275590552
21
-2.9693622047244093
0
LINE
8
BLACK
6
CONTINUOUS
10
5.9172945275590552
20
-2.9693622047244093
11
5.9242399212598427
21
-2.9704622440944881
0
LINE
8
BLACK
6
CONTINUOUS
10
5.9242399212598427
20
-2.9704622440944881
11
5.9312718897637797
21
-2.9704622440944881
0
LINE
8
BLACK
6
CONTINUOUS
10
5.9312718897637797
20
-2.9704622440944881
11
5.9382172834645672
21
-2.9693622047244093
0
LINE
8
BLACK
6
CONTINUOUS
10
5.9382172834645672
20
-2.9693622047244093
11
5.9449050787401569
21
-2.9671892125984249
0
LINE
8
BLACK
6
CONTINUOUS
10
5.9449050787401569
20
-2.9671892125984249
11
5.9511706299212594
21
-2.9639967716535431
0
LINE
8
BLACK
6
CONTINUOUS
10
5.9511706299212594
20
-2.9639967716535431
11
5.9568596062992123
21
-2.9598634645669293
0
LINE
8
BLACK
6
CONTINUOUS
10
5.9568596062992123
20
-2.9598634645669293
11
5.9618319685039367
21
-2.9548911023622049
0
LINE
8
BLACK
6
CONTINUOUS
10
5.9618319685039367
20
-2.9548911023622049
11
5.965965275590551
21
-2.949202125984252
0
LINE
8
BLACK
6
CONTINUOUS
10
5.965965275590551
20
-2.949202125984252
11
5.9691577165354328
21
-2.9429365748031495
0
LINE
8
BLACK
6
CONTINUOUS
10
5.9691577165354328
20
-2.9429365748031495
11
5.9713307086614176
21
-2.9362487795275589
0
LINE
8
BLACK
6
CONTINUOUS
10
5.9713307086614176
20
-2.9362487795275589
11
5.9724307480314955
21
-2.9293033858267714
0
LINE
8
BLACK
6
CONTINUOUS
10
5.9724307480314955
20
-2.9293033858267714
11
5.9724307480314955
21
-2.9222714173228348
0
LINE
8
BLACK
6
CONTINUOUS
10
5.9724307480314955
20
-2.9222714173228348
11
5.9713307086614176
21
-2.9153260236220473
0
LINE
8
BLACK
6
CONTINUOUS
10
5.9713307086614176
20
-2.9153260236220473
11
5.9691577165354328
21
-2.9086382283464567
0
LINE
8
BLACK
6
CONTINUOUS
10
5.9691577165354328
20
-2.9086382283464567
11
5.965965275590551
21
-2.9023726771653542
0
LINE
8
BLACK
6
CONTINUOUS
10
5.965965275590551
20
-2.9023726771653542
11
5.9618319685039367
21
-2.8966837007874013
0
LINE
8
BLACK
6
CONTINUOUS
10
5.9618319685039367
20
-2.8966837007874013
11
5.9568596062992123
21
-2.8917113385826769
0
LINE
8
BLACK
6
CONTINUOUS
10
5.9568596062992123
20
-2.8917113385826769
11
5.9511706299212594
21
-2.8875780314960631
0
LINE
8
BLACK
6
CONTINUOUS
10
5.9511706299212594
20
-2.8875780314960631
11
5.9449050787401569
21
-2.8843855905511808
0
LINE
8
BLACK
6
CONTINUOUS
10
5.9449050787401569
20
-2.8843855905511808
11
5.9382172834645672
21
-2.8822125984251969
0
LINE
8
BLACK
6
CONTINUOUS
10
5.9382172834645672
20
-2.8822125984251969
11
5.9312718897637797
21
-2.8811125590551181
0
LINE
8
BLACK
6
CONTINUOUS
10
5.9312718897637797
20
-2.8811125590551181
11
5.9242399212598427
21
-2.8811125590551181
0
LINE
8
BLACK
6
CONTINUOUS
10
5.9242399212598427
20
-2.8811125590551181
11
5.9172945275590552
21
-2.8822125984251969
0
LINE
8
BLACK
6
CONTINUOUS
10
5.9172945275590552
20
-2.8822125984251969
11
5.9106067322834646
21
-2.8843855905511808
0
LINE
8
BLACK
6
CONTINUOUS
10
5.9106067322834646
20
-2.8843855905511808
11
5.9043411811023621
21
-2.8875780314960631
0
LINE
8
BLACK
6
CONTINUOUS
10
5.9043411811023621
20
-2.8875780314960631
11
5.8986522047244092
21
-2.8917113385826769
0
LINE
8
BLACK
6
CONTINUOUS
10
5.8986522047244092
20
-2.8917113385826769
11
5.8936798425196848
21
-2.8966837007874013
0
LINE
8
BLACK
6
CONTINUOUS
10
5.8936798425196848
20
-2.8966837007874013
11
5.8895465354330705
21
-2.9023726771653542
0
LINE
8
BLACK
6
CONTINUOUS
10
5.8895465354330705
20
-2.9023726771653542
11
5.8863540944881887
21
-2.9086382283464567
0
LINE
8
BLACK
6
CONTINUOUS
10
5.8863540944881887
20
-2.9086382283464567
11
5.8841811023622048
21
-2.9153260236220473
0
LINE
8
BLACK
6
CONTINUOUS
10
5.8841811023622048
20
-2.9153260236220473
11
5.883081062992126
21
-2.9222714173228348
0
LINE
8
BLACK
6
CONTINUOUS
10
5.883081062992126
20
-2.9222714173228348
11
5.883081062992126
21
-2.9293033858267714
0
LINE
8
BLACK
6
CONTINUOUS
10
4.9045105118110239
20
-2.5213347637795276
11
4.9050431889763777
21
-2.5218674409448818
0
LINE
8
BLACK
6
CONTINUOUS
10
4.9050431889763777
20
-2.5218674409448818
11
4.90511811023622
21
-2.522244094488189
0
LINE
8
BLACK
6
CONTINUOUS
10
4.90511811023622
20
-2.522244094488189
11
4.90511811023622
21
-2.8765748031496061
0
LINE
8
BLACK
6
CONTINUOUS
10
4.90511811023622
20
-2.8765748031496061
11
4.9050431889763777
21
-2.8769514566929133
0
LINE
8
BLACK
6
CONTINUOUS
10
4.9050431889763777
20
-2.8769514566929133
11
4.9045105118110239
21
-2.8774841338582675
0
LINE
8
BLACK
6
CONTINUOUS
10
4.9045105118110239
20
-2.8774841338582675
11
4.9041338582677163
21
-2.8775590551181103
0
LINE
8
BLACK
6
CONTINUOUS
10
4.9041338582677163
20
-2.8775590551181103
11
4.4710629921259839
21
-2.8775590551181103
0
LINE
8
BLACK
6
CONTINUOUS
10
4.4710629921259839
20
-2.8775590551181103
11
4.4706863385826772
21
-2.8774841338582675
0
LINE
8
BLACK
6
CONTINUOUS
10
4.4706863385826772
20
-2.8774841338582675
11
4.4701536614173225
21
-2.8769514566929133
0
LINE
8
BLACK
6
CONTINUOUS
10
4.4701536614173225
20
-2.8769514566929133
11
4.4700787401574802
21
-2.8765748031496061
0
LINE
8
BLACK
6
CONTINUOUS
10
4.4700787401574802
20
-2.8765748031496061
11
4.4700787401574802
21
-2.522244094488189
0
LINE
8
BLACK
6
CONTINUOUS
10
4.4700787401574802
20
-2.522244094488189
11
4.4701536614173225
21
-2.5218674409448818
0
LINE
8
BLACK
6
CONTINUOUS
10
4.4701536614173225
20
-2.5218674409448818
11
4.4706863385826772
21
-2.5213347637795276
0
LINE
8
BLACK
6
CONTINUOUS
10
4.4706863385826772
20
-2.5213347637795276
11
4.4710629921259839
21
-2.5212598425196848
0
LINE
8
BLACK
6
CONTINUOUS
10
4.4710629921259839
20
-2.5212598425196848
11
4.9041338582677163
21
-2.5212598425196848
0
LINE
8
BLACK
6
CONTINUOUS
10
4.9041338582677163
20
-2.5212598425196848
11
4.9045105118110239
21
-2.5213347637795276
0
LINE
8
BLACK
6
CONTINUOUS
10
4.4720472440944885
20
-2.5232283464566927
11
4.4720472440944885
21
-2.8755905511811024
0
LINE
8
BLACK
6
CONTINUOUS
10
4.4720472440944885
20
-2.8755905511811024
11
4.9031496062992126
21
-2.8755905511811024
0
LINE
8
BLACK
6
CONTINUOUS
10
4.9031496062992126
20
-2.8755905511811024
11
4.9031496062992126
21
-2.5232283464566927
0
LINE
8
BLACK
6
CONTINUOUS
10
4.9031496062992126
20
-2.5232283464566927
11
4.4720472440944885
21
-2.5232283464566927
0
LINE
8
BLACK
6
CONTINUOUS
10
3.1604117322834644
20
-2.319712992125984
11
3.1704848425196848
21
-2.3224120472440943
0
LINE
8
BLACK
6
CONTINUOUS
10
3.1704848425196848
20
-2.3224120472440943
11
3.1801194881889763
21
-2.3264028740157481
0
LINE
8
BLACK
6
CONTINUOUS
10
3.1801194881889763
20
-2.3264028740157481
11
3.1891507874015748
21
-2.3316170866141732
0
LINE
8
BLACK
6
CONTINUOUS
10
3.1891507874015748
20
-2.3316170866141732
11
3.1974242125984249
21
-2.3379655118110234
0
LINE
8
BLACK
6
CONTINUOUS
10
3.1974242125984249
20
-2.3379655118110234
11
3.2047982677165354
21
-2.3453395669291339
0
LINE
8
BLACK
6
CONTINUOUS
10
3.2047982677165354
20
-2.3453395669291339
11
3.2111466929133856
21
-2.3536129921259841
0
LINE
8
BLACK
6
CONTINUOUS
10
3.2111466929133856
20
-2.3536129921259841
11
3.2163609055118108
21
-2.3626442913385826
0
LINE
8
BLACK
6
CONTINUOUS
10
3.2163609055118108
20
-2.3626442913385826
11
3.2203517322834645
21
-2.3722789370078741
0
LINE
8
BLACK
6
CONTINUOUS
10
3.2203517322834645
20
-2.3722789370078741
11
3.2230507874015748
21
-2.3823520472440944
0
LINE
8
BLACK
6
CONTINUOUS
10
3.2230507874015748
20
-2.3823520472440944
11
3.224411968503937
21
-2.3926912992125984
0
LINE
8
BLACK
6
CONTINUOUS
10
3.224411968503937
20
-2.3926912992125984
11
3.224411968503937
21
-2.4031197244094487
0
LINE
8
BLACK
6
CONTINUOUS
10
3.224411968503937
20
-2.4031197244094487
11
3.2230507874015748
21
-2.4134589763779526
0
LINE
8
BLACK
6
CONTINUOUS
10
3.2230507874015748
20
-2.4134589763779526
11
3.2203517322834645
21
-2.423532086614173
0
LINE
8
BLACK
6
CONTINUOUS
10
3.2203517322834645
20
-2.423532086614173
11
3.2163609055118108
21
-2.4331667322834645
0
LINE
8
BLACK
6
CONTINUOUS
10
3.2163609055118108
20
-2.4331667322834645
11
3.2111466929133856
21
-2.442198031496063
0
LINE
8
BLACK
6
CONTINUOUS
10
3.2111466929133856
20
-2.442198031496063
11
3.2047982677165354
21
-2.4504714566929131
0
LINE
8
BLACK
6
CONTINUOUS
10
3.2047982677165354
20
-2.4504714566929131
11
3.1974242125984249
21
-2.4578455118110236
0
LINE
8
BLACK
6
CONTINUOUS
10
3.1974242125984249
20
-2.4578455118110236
11
3.1891507874015748
21
-2.4641939370078738
0
LINE
8
BLACK
6
CONTINUOUS
10
3.1891507874015748
20
-2.4641939370078738
11
3.1801194881889763
21
-2.469408149606299
0
LINE
8
BLACK
6
CONTINUOUS
10
3.1801194881889763
20
-2.469408149606299
11
3.1704848425196848
21
-2.4733989763779527
0
LINE
8
BLACK
6
CONTINUOUS
10
3.1704848425196848
20
-2.4733989763779527
11
3.1604117322834644
21
-2.476098031496063
0
LINE
8
BLACK
6
CONTINUOUS
10
3.1604117322834644
20
-2.476098031496063
11
3.1500724803149605
21
-2.4774592125984252
0
LINE
8
BLACK
6
CONTINUOUS
10
3.1500724803149605
20
-2.4774592125984252
11
3.1396440551181102
21
-2.4774592125984252
0
LINE
8
BLACK
6
CONTINUOUS
10
3.1396440551181102
20
-2.4774592125984252
11
3.1293048031496062
21
-2.476098031496063
0
LINE
8
BLACK
6
CONTINUOUS
10
3.1293048031496062
20
-2.476098031496063
11
3.1192316929133859
21
-2.4733989763779527
0
LINE
8
BLACK
6
CONTINUOUS
10
3.1192316929133859
20
-2.4733989763779527
11
3.1095970472440944
21
-2.469408149606299
0
LINE
8
BLACK
6
CONTINUOUS
10
3.1095970472440944
20
-2.469408149606299
11
3.1005657480314959
21
-2.4641939370078738
0
LINE
8
BLACK
6
CONTINUOUS
10
3.1005657480314959
20
-2.4641939370078738
11
3.0922923228346457
21
-2.4578455118110236
0
LINE
8
BLACK
6
CONTINUOUS
10
3.0922923228346457
20
-2.4578455118110236
11
3.0849182677165352
21
-2.4504714566929131
0
LINE
8
BLACK
6
CONTINUOUS
10
3.0849182677165352
20
-2.4504714566929131
11
3.078569842519685
21
-2.442198031496063
0
LINE
8
BLACK
6
CONTINUOUS
10
3.078569842519685
20
-2.442198031496063
11
3.0733556299212599
21
-2.4331667322834645
0
LINE
8
BLACK
6
CONTINUOUS
10
3.0733556299212599
20
-2.4331667322834645
11
3.0693648031496061
21
-2.423532086614173
0
LINE
8
BLACK
6
CONTINUOUS
10
3.0693648031496061
20
-2.423532086614173
11
3.0666657480314958
21
-2.4134589763779526
0
LINE
8
BLACK
6
CONTINUOUS
10
3.0666657480314958
20
-2.4134589763779526
11
3.0653045669291337
21
-2.4031197244094487
0
LINE
8
BLACK
6
CONTINUOUS
10
3.0653045669291337
20
-2.4031197244094487
11
3.0653045669291337
21
-2.3928091338582678
0
LINE
8
BLACK
6
CONTINUOUS
10
3.0653045669291337
20
-2.3928091338582678
11
3.0653045669291337
21
-2.3926912992125984
0
LINE
8
BLACK
6
CONTINUOUS
10
3.0653045669291337
20
-2.3926912992125984
11
3.0666657480314958
21
-2.3823520472440944
0
LINE
8
BLACK
6
CONTINUOUS
10
3.0666657480314958
20
-2.3823520472440944
11
3.0693648031496061
21
-2.3722789370078741
0
LINE
8
BLACK
6
CONTINUOUS
10
3.0693648031496061
20
-2.3722789370078741
11
3.0733556299212599
21
-2.3626442913385826
0
LINE
8
BLACK
6
CONTINUOUS
10
3.0733556299212599
20
-2.3626442913385826
11
3.078569842519685
21
-2.3536129921259841
0
LINE
8
BLACK
6
CONTINUOUS
10
3.078569842519685
20
-2.3536129921259841
11
3.0849182677165352
21
-2.3453395669291339
0
LINE
8
BLACK
6
CONTINUOUS
10
3.0849182677165352
20
-2.3453395669291339
11
3.0922923228346457
21
-2.3379655118110234
0
LINE
8
BLACK
6
CONTINUOUS
10
3.0922923228346457
20
-2.3379655118110234
11
3.1005657480314959
21
-2.3316170866141732
0
LINE
8
BLACK
6
CONTINUOUS
10
3.1005657480314959
20
-2.3316170866141732
11
3.1095970472440944
21
-2.3264028740157481
0
LINE
8
BLACK
6
CONTINUOUS
10
3.1095970472440944
20
-2.3264028740157481
11
3.1192316929133859
21
-2.3224120472440943
0
LINE
8
BLACK
6
CONTINUOUS
10
3.1192316929133859
20
-2.3224120472440943
11
3.1293048031496062
21
-2.319712992125984
0
LINE
8
BLACK
6
CONTINUOUS
10
3.1293048031496062
20
-2.319712992125984
11
3.1396440551181102
21
-2.3183518110236219
0
LINE
8
BLACK
6
CONTINUOUS
10
3.1396440551181102
20
-2.3183518110236219
11
3.1500724803149605
21
-2.3183518110236219
0
LINE
8
BLACK
6
CONTINUOUS
10
3.1500724803149605
20
-2.3183518110236219
11
3.1604117322834644
21
-2.319712992125984
0
LINE
8
BLACK
6
CONTINUOUS
10
3.0671023622047242
20
-2.4030018897637793
11
3.0684327952755903
21
-2.4131074803149604
0
LINE
8
BLACK
6
CONTINUOUS
10
3.0684327952755903
20
-2.4131074803149604
11
3.0710708661417323
21
-2.4229529527559053
0
LINE
8
BLACK
6
CONTINUOUS
10
3.0710708661417323
20
-2.4229529527559053
11
3.0749714566929134
21
-2.4323698818897639
0
LINE
8
BLACK
6
CONTINUOUS
10
3.0749714566929134
20
-2.4323698818897639
11
3.0800678740157479
21
-2.441197086614173
0
LINE
8
BLACK
6
CONTINUOUS
10
3.0800678740157479
20
-2.441197086614173
11
3.0862728346456691
21
-2.4492835433070868
0
LINE
8
BLACK
6
CONTINUOUS
10
3.0862728346456691
20
-2.4492835433070868
11
3.0934802362204725
21
-2.4564909448818897
0
LINE
8
BLACK
6
CONTINUOUS
10
3.0934802362204725
20
-2.4564909448818897
11
3.1015666929133858
21
-2.4626959055118109
0
LINE
8
BLACK
6
CONTINUOUS
10
3.1015666929133858
20
-2.4626959055118109
11
3.1103938976377954
21
-2.4677923228346454
0
LINE
8
BLACK
6
CONTINUOUS
10
3.1103938976377954
20
-2.4677923228346454
11
3.1198108267716536
21
-2.4716929133858265
0
LINE
8
BLACK
6
CONTINUOUS
10
3.1198108267716536
20
-2.4716929133858265
11
3.1296562992125985
21
-2.4743309842519685
0
LINE
8
BLACK
6
CONTINUOUS
10
3.1296562992125985
20
-2.4743309842519685
11
3.1397618897637796
21
-2.4756614173228346
0
LINE
8
BLACK
6
CONTINUOUS
10
3.1397618897637796
20
-2.4756614173228346
11
3.1499546456692911
21
-2.4756614173228346
0
LINE
8
BLACK
6
CONTINUOUS
10
3.1499546456692911
20
-2.4756614173228346
11
3.1600602362204722
21
-2.4743309842519685
0
LINE
8
BLACK
6
CONTINUOUS
10
3.1600602362204722
20
-2.4743309842519685
11
3.1699057086614171
21
-2.4716929133858265
0
LINE
8
BLACK
6
CONTINUOUS
10
3.1699057086614171
20
-2.4716929133858265
11
3.1793226377952757
21
-2.4677923228346454
0
LINE
8
BLACK
6
CONTINUOUS
10
3.1793226377952757
20
-2.4677923228346454
11
3.1881498425196848
21
-2.4626959055118109
0
LINE
8
BLACK
6
CONTINUOUS
10
3.1881498425196848
20
-2.4626959055118109
11
3.1962362992125986
21
-2.4564909448818897
0
LINE
8
BLACK
6
CONTINUOUS
10
3.1962362992125986
20
-2.4564909448818897
11
3.2034437007874015
21
-2.4492835433070868
0
LINE
8
BLACK
6
CONTINUOUS
10
3.2034437007874015
20
-2.4492835433070868
11
3.2096486614173227
21
-2.441197086614173
0
LINE
8
BLACK
6
CONTINUOUS
10
3.2096486614173227
20
-2.441197086614173
11
3.2147450787401572
21
-2.4323698818897639
0
LINE
8
BLACK
6
CONTINUOUS
10
3.2147450787401572
20
-2.4323698818897639
11
3.2186456692913383
21
-2.4229529527559053
0
LINE
8
BLACK
6
CONTINUOUS
10
3.2186456692913383
20
-2.4229529527559053
11
3.2212837401574803
21
-2.4131074803149604
0
LINE
8
BLACK
6
CONTINUOUS
10
3.2212837401574803
20
-2.4131074803149604
11
3.2226141732283464
21
-2.4030018897637793
0
LINE
8
BLACK
6
CONTINUOUS
10
3.2226141732283464
20
-2.4030018897637793
11
3.2226141732283464
21
-2.3928091338582678
0
LINE
8
BLACK
6
CONTINUOUS
10
3.2226141732283464
20
-2.3928091338582678
11
3.2212837401574803
21
-2.3827035433070867
0
LINE
8
BLACK
6
CONTINUOUS
10
3.2212837401574803
20
-2.3827035433070867
11
3.2186456692913383
21
-2.3728580708661418
0
LINE
8
BLACK
6
CONTINUOUS
10
3.2186456692913383
20
-2.3728580708661418
11
3.2147450787401572
21
-2.3634411417322836
0
LINE
8
BLACK
6
CONTINUOUS
10
3.2147450787401572
20
-2.3634411417322836
11
3.2096486614173227
21
-2.354613937007874
0
LINE
8
BLACK
6
CONTINUOUS
10
3.2096486614173227
20
-2.354613937007874
11
3.2034437007874015
21
-2.3465274803149607
0
LINE
8
BLACK
6
CONTINUOUS
10
3.2034437007874015
20
-2.3465274803149607
11
3.1962362992125986
21
-2.3393200787401573
0
LINE
8
BLACK
6
CONTINUOUS
10
3.1962362992125986
20
-2.3393200787401573
11
3.1881498425196848
21
-2.3331151181102361
0
LINE
8
BLACK
6
CONTINUOUS
10
3.1881498425196848
20
-2.3331151181102361
11
3.1793226377952757
21
-2.3280187007874016
0
LINE
8
BLACK
6
CONTINUOUS
10
3.1793226377952757
20
-2.3280187007874016
11
3.1699057086614171
21
-2.3241181102362205
0
LINE
8
BLACK
6
CONTINUOUS
10
3.1699057086614171
20
-2.3241181102362205
11
3.1600602362204722
21
-2.3214800393700785
0
LINE
8
BLACK
6
CONTINUOUS
10
3.1600602362204722
20
-2.3214800393700785
11
3.1499546456692911
21
-2.3201496062992124
0
LINE
8
BLACK
6
CONTINUOUS
10
3.1499546456692911
20
-2.3201496062992124
11
3.1397618897637796
21
-2.3201496062992124
0
LINE
8
BLACK
6
CONTINUOUS
10
3.1397618897637796
20
-2.3201496062992124
11
3.1296562992125985
21
-2.3214800393700785
0
LINE
8
BLACK
6
CONTINUOUS
10
3.1296562992125985
20
-2.3214800393700785
11
3.1198108267716536
21
-2.3241181102362205
0
LINE
8
BLACK
6
CONTINUOUS
10
3.1198108267716536
20
-2.3241181102362205
11
3.1103938976377954
21
-2.3280187007874016
0
LINE
8
BLACK
6
CONTINUOUS
10
3.1103938976377954
20
-2.3280187007874016
11
3.1015666929133858
21
-2.3331151181102361
0
LINE
8
BLACK
6
CONTINUOUS
10
3.1015666929133858
20
-2.3331151181102361
11
3.0934802362204725
21
-2.3393200787401573
0
LINE
8
BLACK
6
CONTINUOUS
10
3.0934802362204725
20
-2.3393200787401573
11
3.0862728346456691
21
-2.3465274803149607
0
LINE
8
BLACK
6
CONTINUOUS
10
3.0862728346456691
20
-2.3465274803149607
11
3.0800678740157479
21
-2.354613937007874
0
LINE
8
BLACK
6
CONTINUOUS
10
3.0800678740157479
20
-2.354613937007874
11
3.0749714566929134
21
-2.3634411417322836
0
LINE
8
BLACK
6
CONTINUOUS
10
3.0749714566929134
20
-2.3634411417322836
11
3.0710708661417323
21
-2.3728580708661418
0
LINE
8
BLACK
6
CONTINUOUS
10
3.0710708661417323
20
-2.3728580708661418
11
3.0684327952755903
21
-2.3827035433070867
0
LINE
8
BLACK
6
CONTINUOUS
10
3.0684327952755903
20
-2.3827035433070867
11
3.0671023622047242
21
-2.3928091338582678
0
LINE
8
BLACK
6
CONTINUOUS
10
3.0671023622047242
20
-2.3928091338582678
11
3.0671023622047242
21
-2.4030018897637793
0
LINE
8
BLACK
6
CONTINUOUS
10
5.4856577165354325
20
-2.1980606299212599
11
5.4986782283464564
21
-2.2010324803149608
0
LINE
8
BLACK
6
CONTINUOUS
10
5.4986782283464564
20
-2.2010324803149608
11
5.5112841338582674
21
-2.2054434645669292
0
LINE
8
BLACK
6
CONTINUOUS
10
5.5112841338582674
20
-2.2054434645669292
11
5.5233169291338582
21
-2.2112381496062992
0
LINE
8
BLACK
6
CONTINUOUS
10
5.5233169291338582
20
-2.2112381496062992
11
5.5346252362204726
21
-2.2183436220472439
0
LINE
8
BLACK
6
CONTINUOUS
10
5.5346252362204726
20
-2.2183436220472439
11
5.5450668503937006
21
-2.2266705511811025
0
LINE
8
BLACK
6
CONTINUOUS
10
5.5450668503937006
20
-2.2266705511811025
11
5.5545105511811022
21
-2.236114251968504
0
LINE
8
BLACK
6
CONTINUOUS
10
5.5545105511811022
20
-2.236114251968504
11
5.5628374803149603
21
-2.2465558661417324
0
LINE
8
BLACK
6
CONTINUOUS
10
5.5628374803149603
20
-2.2465558661417324
11
5.5699429527559055
21
-2.2578641732283464
0
LINE
8
BLACK
6
CONTINUOUS
10
5.5699429527559055
20
-2.2578641732283464
11
5.5757376377952754
21
-2.2698969685039367
0
LINE
8
BLACK
6
CONTINUOUS
10
5.5757376377952754
20
-2.2698969685039367
11
5.5801486220472443
21
-2.2825028740157478
0
LINE
8
BLACK
6
CONTINUOUS
10
5.5801486220472443
20
-2.2825028740157478
11
5.5831204724409451
21
-2.2955233858267716
0
LINE
8
BLACK
6
CONTINUOUS
10
5.5831204724409451
20
-2.2955233858267716
11
5.5846157874015745
21
-2.3087947637795274
0
LINE
8
BLACK
6
CONTINUOUS
10
5.5846157874015745
20
-2.3087947637795274
11
5.5846157874015745
21
-2.322150118110236
0
LINE
8
BLACK
6
CONTINUOUS
10
5.5846157874015745
20
-2.322150118110236
11
5.5831204724409451
21
-2.3354214960629922
0
LINE
8
BLACK
6
CONTINUOUS
10
5.5831204724409451
20
-2.3354214960629922
11
5.5801486220472443
21
-2.3484420078740156
0
LINE
8
BLACK
6
CONTINUOUS
10
5.5801486220472443
20
-2.3484420078740156
11
5.5757376377952754
21
-2.3610479133858266
0
LINE
8
BLACK
6
CONTINUOUS
10
5.5757376377952754
20
-2.3610479133858266
11
5.5699429527559055
21
-2.3730807086614174
0
LINE
8
BLACK
6
CONTINUOUS
10
5.5699429527559055
20
-2.3730807086614174
11
5.5628374803149603
21
-2.3843890157480314
0
LINE
8
BLACK
6
CONTINUOUS
10
5.5628374803149603
20
-2.3843890157480314
11
5.5545105511811022
21
-2.3948306299212598
0
LINE
8
BLACK
6
CONTINUOUS
10
5.5545105511811022
20
-2.3948306299212598
11
5.5450668503937006
21
-2.4042743307086614
0
LINE
8
BLACK
6
CONTINUOUS
10
5.5450668503937006
20
-2.4042743307086614
11
5.5346252362204726
21
-2.4126012598425195
0
LINE
8
BLACK
6
CONTINUOUS
10
5.5346252362204726
20
-2.4126012598425195
11
5.5233169291338582
21
-2.4197067322834647
0
LINE
8
BLACK
6
CONTINUOUS
10
5.5233169291338582
20
-2.4197067322834647
11
5.5112841338582674
21
-2.4255014173228346
0
LINE
8
BLACK
6
CONTINUOUS
10
5.5112841338582674
20
-2.4255014173228346
11
5.4986782283464564
21
-2.429912401574803
0
LINE
8
BLACK
6
CONTINUOUS
10
5.4986782283464564
20
-2.429912401574803
11
5.4856577165354325
21
-2.4328842519685039
0
LINE
8
BLACK
6
CONTINUOUS
10
5.4856577165354325
20
-2.4328842519685039
11
5.4723863385826768
21
-2.4343795669291337
0
LINE
8
BLACK
6
CONTINUOUS
10
5.4723863385826768
20
-2.4343795669291337
11
5.4590309842519682
21
-2.4343795669291337
0
LINE
8
BLACK
6
CONTINUOUS
10
5.4590309842519682
20
-2.4343795669291337
11
5.4457596062992124
21
-2.4328842519685039
0
LINE
8
BLACK
6
CONTINUOUS
10
5.4457596062992124
20
-2.4328842519685039
11
5.4327390944881886
21
-2.429912401574803
0
LINE
8
BLACK
6
CONTINUOUS
10
5.4327390944881886
20
-2.429912401574803
11
5.4201331889763775
21
-2.4255014173228346
0
LINE
8
BLACK
6
CONTINUOUS
10
5.4201331889763775
20
-2.4255014173228346
11
5.4081003937007877
21
-2.4197067322834647
0
LINE
8
BLACK
6
CONTINUOUS
10
5.4081003937007877
20
-2.4197067322834647
11
5.3967920866141732
21
-2.4126012598425195
0
LINE
8
BLACK
6
CONTINUOUS
10
5.3967920866141732
20
-2.4126012598425195
11
5.3863504724409443
21
-2.4042743307086614
0
LINE
8
BLACK
6
CONTINUOUS
10
5.3863504724409443
20
-2.4042743307086614
11
5.3769067716535428
21
-2.3948306299212598
0
LINE
8
BLACK
6
CONTINUOUS
10
5.3769067716535428
20
-2.3948306299212598
11
5.3685798425196847
21
-2.3843890157480314
0
LINE
8
BLACK
6
CONTINUOUS
10
5.3685798425196847
20
-2.3843890157480314
11
5.3614743700787404
21
-2.3730807086614174
0
LINE
8
BLACK
6
CONTINUOUS
10
5.3614743700787404
20
-2.3730807086614174
11
5.3556796850393695
21
-2.3610479133858266
0
LINE
8
BLACK
6
CONTINUOUS
10
5.3556796850393695
20
-2.3610479133858266
11
5.3512687007874016
21
-2.3484420078740156
0
LINE
8
BLACK
6
CONTINUOUS
10
5.3512687007874016
20
-2.3484420078740156
11
5.3482968503937007
21
-2.3354214960629922
0
LINE
8
BLACK
6
CONTINUOUS
10
5.3482968503937007
20
-2.3354214960629922
11
5.3468015354330705
21
-2.322150118110236
0
LINE
8
BLACK
6
CONTINUOUS
10
5.3468015354330705
20
-2.322150118110236
11
5.3468015354330705
21
-2.3088948031496064
0
LINE
8
BLACK
6
CONTINUOUS
10
5.3468015354330705
20
-2.3088948031496064
11
5.3468015354330705
21
-2.3087947637795274
0
LINE
8
BLACK
6
CONTINUOUS
10
5.3468015354330705
20
-2.3087947637795274
11
5.3482968503937007
21
-2.2955233858267716
0
LINE
8
BLACK
6
CONTINUOUS
10
5.3482968503937007
20
-2.2955233858267716
11
5.3512687007874016
21
-2.2825028740157478
0
LINE
8
BLACK
6
CONTINUOUS
10
5.3512687007874016
20
-2.2825028740157478
11
5.3556796850393695
21
-2.2698969685039367
0
LINE
8
BLACK
6
CONTINUOUS
10
5.3556796850393695
20
-2.2698969685039367
11
5.3614743700787404
21
-2.2578641732283464
0
LINE
8
BLACK
6
CONTINUOUS
10
5.3614743700787404
20
-2.2578641732283464
11
5.3685798425196847
21
-2.2465558661417324
0
LINE
8
BLACK
6
CONTINUOUS
10
5.3685798425196847
20
-2.2465558661417324
11
5.3769067716535428
21
-2.236114251968504
0
LINE
8
BLACK
6
CONTINUOUS
10
5.3769067716535428
20
-2.236114251968504
11
5.3863504724409443
21
-2.2266705511811025
0
LINE
8
BLACK
6
CONTINUOUS
10
5.3863504724409443
20
-2.2266705511811025
11
5.3967920866141732
21
-2.2183436220472439
0
LINE
8
BLACK
6
CONTINUOUS
10
5.3967920866141732
20
-2.2183436220472439
11
5.4081003937007877
21
-2.2112381496062992
0
LINE
8
BLACK
6
CONTINUOUS
10
5.4081003937007877
20
-2.2112381496062992
11
5.4201331889763775
21
-2.2054434645669292
0
LINE
8
BLACK
6
CONTINUOUS
10
5.4201331889763775
20
-2.2054434645669292
11
5.4327390944881886
21
-2.2010324803149608
0
LINE
8
BLACK
6
CONTINUOUS
10
5.4327390944881886
20
-2.2010324803149608
11
5.4457596062992124
21
-2.1980606299212599
0
LINE
8
BLACK
6
CONTINUOUS
10
5.4457596062992124
20
-2.1980606299212599
11
5.4590309842519682
21
-2.1965653149606297
0
LINE
8
BLACK
6
CONTINUOUS
10
5.4590309842519682
20
-2.1965653149606297
11
5.4723863385826768
21
-2.1965653149606297
0
LINE
8
BLACK
6
CONTINUOUS
10
5.4723863385826768
20
-2.1965653149606297
11
5.4856577165354325
21
-2.1980606299212599
0
LINE
8
BLACK
6
CONTINUOUS
10
5.3485826771653544
20
-2.3220500787401575
11
5.3500555905511806
21
-2.3351226771653542
0
LINE
8
BLACK
6
CONTINUOUS
10
5.3500555905511806
20
-2.3351226771653542
11
5.3529829133858264
21
-2.3479481496062991
0
LINE
8
BLACK
6
CONTINUOUS
10
5.3529829133858264
20
-2.3479481496062991
11
5.3573278346456688
21
-2.3603652362204723
0
LINE
8
BLACK
6
CONTINUOUS
10
5.3573278346456688
20
-2.3603652362204723
11
5.3630357086614175
21
-2.3722177559055115
0
LINE
8
BLACK
6
CONTINUOUS
10
5.3630357086614175
20
-2.3722177559055115
11
5.3700347637795272
21
-2.3833566929133858
0
LINE
8
BLACK
6
CONTINUOUS
10
5.3700347637795272
20
-2.3833566929133858
11
5.3782369685039368
21
-2.3936419291338584
0
LINE
8
BLACK
6
CONTINUOUS
10
5.3782369685039368
20
-2.3936419291338584
11
5.3875391732283466
21
-2.4029441338582678
0
LINE
8
BLACK
6
CONTINUOUS
10
5.3875391732283466
20
-2.4029441338582678
11
5.3978244094488188
21
-2.411146338582677
0
LINE
8
BLACK
6
CONTINUOUS
10
5.3978244094488188
20
-2.411146338582677
11
5.4089633464566926
21
-2.4181453937007875
0
LINE
8
BLACK
6
CONTINUOUS
10
5.4089633464566926
20
-2.4181453937007875
11
5.4208158661417318
21
-2.4238532677165354
0
LINE
8
BLACK
6
CONTINUOUS
10
5.4208158661417318
20
-2.4238532677165354
11
5.4332329527559056
21
-2.4281981889763777
0
LINE
8
BLACK
6
CONTINUOUS
10
5.4332329527559056
20
-2.4281981889763777
11
5.44605842519685
21
-2.4311255118110235
0
LINE
8
BLACK
6
CONTINUOUS
10
5.44605842519685
20
-2.4311255118110235
11
5.4591310236220467
21
-2.4325984251968502
0
LINE
8
BLACK
6
CONTINUOUS
10
5.4591310236220467
20
-2.4325984251968502
11
5.4722862992125982
21
-2.4325984251968502
0
LINE
8
BLACK
6
CONTINUOUS
10
5.4722862992125982
20
-2.4325984251968502
11
5.4853588976377949
21
-2.4311255118110235
0
LINE
8
BLACK
6
CONTINUOUS
10
5.4853588976377949
20
-2.4311255118110235
11
5.4981843700787403
21
-2.4281981889763777
0
LINE
8
BLACK
6
CONTINUOUS
10
5.4981843700787403
20
-2.4281981889763777
11
5.5106014566929131
21
-2.4238532677165354
0
LINE
8
BLACK
6
CONTINUOUS
10
5.5106014566929131
20
-2.4238532677165354
11
5.5224539763779523
21
-2.4181453937007875
0
LINE
8
BLACK
6
CONTINUOUS
10
5.5224539763779523
20
-2.4181453937007875
11
5.533592913385827
21
-2.411146338582677
0
LINE
8
BLACK
6
CONTINUOUS
10
5.533592913385827
20
-2.411146338582677
11
5.5438781496062992
21
-2.4029441338582678
0
LINE
8
BLACK
6
CONTINUOUS
10
5.5438781496062992
20
-2.4029441338582678
11
5.5531803543307081
21
-2.3936419291338584
0
LINE
8
BLACK
6
CONTINUOUS
10
5.5531803543307081
20
-2.3936419291338584
11
5.5613825590551178
21
-2.3833566929133858
0
LINE
8
BLACK
6
CONTINUOUS
10
5.5613825590551178
20
-2.3833566929133858
11
5.5683816141732283
21
-2.3722177559055115
0
LINE
8
BLACK
6
CONTINUOUS
10
5.5683816141732283
20
-2.3722177559055115
11
5.5740894881889762
21
-2.3603652362204723
0
LINE
8
BLACK
6
CONTINUOUS
10
5.5740894881889762
20
-2.3603652362204723
11
5.5784344094488185
21
-2.3479481496062991
0
LINE
8
BLACK
6
CONTINUOUS
10
5.5784344094488185
20
-2.3479481496062991
11
5.5813617322834643
21
-2.3351226771653542
0
LINE
8
BLACK
6
CONTINUOUS
10
5.5813617322834643
20
-2.3351226771653542
11
5.5828346456692914
21
-2.3220500787401575
0
LINE
8
BLACK
6
CONTINUOUS
10
5.5828346456692914
20
-2.3220500787401575
11
5.5828346456692914
21
-2.3088948031496064
0
LINE
8
BLACK
6
CONTINUOUS
10
5.5828346456692914
20
-2.3088948031496064
11
5.5813617322834643
21
-2.2958222047244092
0
LINE
8
BLACK
6
CONTINUOUS
10
5.5813617322834643
20
-2.2958222047244092
11
5.5784344094488185
21
-2.2829967322834643
0
LINE
8
BLACK
6
CONTINUOUS
10
5.5784344094488185
20
-2.2829967322834643
11
5.5740894881889762
21
-2.2705796456692915
0
LINE
8
BLACK
6
CONTINUOUS
10
5.5740894881889762
20
-2.2705796456692915
11
5.5683816141732283
21
-2.2587271259842518
0
LINE
8
BLACK
6
CONTINUOUS
10
5.5683816141732283
20
-2.2587271259842518
11
5.5613825590551178
21
-2.247588188976378
0
LINE
8
BLACK
6
CONTINUOUS
10
5.5613825590551178
20
-2.247588188976378
11
5.5531803543307081
21
-2.2373029527559054
0
LINE
8
BLACK
6
CONTINUOUS
10
5.5531803543307081
20
-2.2373029527559054
11
5.5438781496062992
21
-2.2280007480314961
0
LINE
8
BLACK
6
CONTINUOUS
10
5.5438781496062992
20
-2.2280007480314961
11
5.533592913385827
21
-2.2197985433070864
0
LINE
8
BLACK
6
CONTINUOUS
10
5.533592913385827
20
-2.2197985433070864
11
5.5224539763779523
21
-2.2127994881889763
0
LINE
8
BLACK
6
CONTINUOUS
10
5.5224539763779523
20
-2.2127994881889763
11
5.5106014566929131
21
-2.2070916141732284
0
LINE
8
BLACK
6
CONTINUOUS
10
5.5106014566929131
20
-2.2070916141732284
11
5.4981843700787403
21
-2.2027466929133857
0
LINE
8
BLACK
6
CONTINUOUS
10
5.4981843700787403
20
-2.2027466929133857
11
5.4853588976377949
21
-2.1998193700787403
0
LINE
8
BLACK
6
CONTINUOUS
10
5.4853588976377949
20
-2.1998193700787403
11
5.4722862992125982
21
-2.1983464566929132
0
LINE
8
BLACK
6
CONTINUOUS
10
5.4722862992125982
20
-2.1983464566929132
11
5.4591310236220467
21
-2.1983464566929132
0
LINE
8
BLACK
6
CONTINUOUS
10
5.4591310236220467
20
-2.1983464566929132
11
5.44605842519685
21
-2.1998193700787403
0
LINE
8
BLACK
6
CONTINUOUS
10
5.44605842519685
20
-2.1998193700787403
11
5.4332329527559056
21
-2.2027466929133857
0
LINE
8
BLACK
6
CONTINUOUS
10
5.4332329527559056
20
-2.2027466929133857
11
5.4208158661417318
21
-2.2070916141732284
0
LINE
8
BLACK
6
CONTINUOUS
10
5.4208158661417318
20
-2.2070916141732284
11
5.4089633464566926
21
-2.2127994881889763
0
LINE
8
BLACK
6
CONTINUOUS
10
5.4089633464566926
20
-2.2127994881889763
11
5.3978244094488188
21
-2.2197985433070864
0
LINE
8
BLACK
6
CONTINUOUS
10
5.3978244094488188
20
-2.2197985433070864
11
5.3875391732283466
21
-2.2280007480314961
0
LINE
8
BLACK
6
CONTINUOUS
10
5.3875391732283466
20
-2.2280007480314961
11
5.3782369685039368
21
-2.2373029527559054
0
LINE
8
BLACK
6
CONTINUOUS
10
5.3782369685039368
20
-2.2373029527559054
11
5.3700347637795272
21
-2.247588188976378
0
LINE
8
BLACK
6
CONTINUOUS
10
5.3700347637795272
20
-2.247588188976378
11
5.3630357086614175
21
-2.2587271259842518
0
LINE
8
BLACK
6
CONTINUOUS
10
5.3630357086614175
20
-2.2587271259842518
11
5.3573278346456688
21
-2.2705796456692915
0
LINE
8
BLACK
6
CONTINUOUS
10
5.3573278346456688
20
-2.2705796456692915
11
5.3529829133858264
21
-2.2829967322834643
0
LINE
8
BLACK
6
CONTINUOUS
10
5.3529829133858264
20
-2.2829967322834643
11
5.3500555905511806
21
-2.2958222047244092
0
LINE
8
BLACK
6
CONTINUOUS
10
5.3500555905511806
20
-2.2958222047244092
11
5.3485826771653544
21
-2.3088948031496064
0
LINE
8
BLACK
6
CONTINUOUS
10
5.3485826771653544
20
-2.3088948031496064
11
5.3485826771653544
21
-2.3220500787401575
0
LINE
8
BLACK
6
CONTINUOUS
10
4.6344117322834641
20
-2.2177129921259842
11
4.6444848425196845
21
-2.2204120472440945
0
LINE
8
BLACK
6
CONTINUOUS
10
4.6444848425196845
20
-2.2204120472440945
11
4.654119488188976
21
-2.2244028740157478
0
LINE
8
BLACK
6
CONTINUOUS
10
4.654119488188976
20
-2.2244028740157478
11
4.663150787401575
21
-2.2296170866141733
0
LINE
8
BLACK
6
CONTINUOUS
10
4.663150787401575
20
-2.2296170866141733
11
4.6714242125984251
21
-2.2359655118110235
0
LINE
8
BLACK
6
CONTINUOUS
10
4.6714242125984251
20
-2.2359655118110235
11
4.6787982677165356
21
-2.2433395669291336
0
LINE
8
BLACK
6
CONTINUOUS
10
4.6787982677165356
20
-2.2433395669291336
11
4.6851466929133858
21
-2.2516129921259842
0
LINE
8
BLACK
6
CONTINUOUS
10
4.6851466929133858
20
-2.2516129921259842
11
4.6903609055118105
21
-2.2606442913385827
0
LINE
8
BLACK
6
CONTINUOUS
10
4.6903609055118105
20
-2.2606442913385827
11
4.6943517322834643
21
-2.2702789370078738
0
LINE
8
BLACK
6
CONTINUOUS
10
4.6943517322834643
20
-2.2702789370078738
11
4.697050787401575
21
-2.2803520472440946
0
LINE
8
BLACK
6
CONTINUOUS
10
4.697050787401575
20
-2.2803520472440946
11
4.6984119685039367
21
-2.2906912992125985
0
LINE
8
BLACK
6
CONTINUOUS
10
4.6984119685039367
20
-2.2906912992125985
11
4.6984119685039367
21
-2.3011197244094488
0
LINE
8
BLACK
6
CONTINUOUS
10
4.6984119685039367
20
-2.3011197244094488
11
4.697050787401575
21
-2.3114589763779527
0
LINE
8
BLACK
6
CONTINUOUS
10
4.697050787401575
20
-2.3114589763779527
11
4.6943517322834643
21
-2.3215320866141731
0
LINE
8
BLACK
6
CONTINUOUS
10
4.6943517322834643
20
-2.3215320866141731
11
4.6903609055118105
21
-2.3311667322834646
0
LINE
8
BLACK
6
CONTINUOUS
10
4.6903609055118105
20
-2.3311667322834646
11
4.6851466929133858
21
-2.3401980314960631
0
LINE
8
BLACK
6
CONTINUOUS
10
4.6851466929133858
20
-2.3401980314960631
11
4.6787982677165356
21
-2.3484714566929132
0
LINE
8
BLACK
6
CONTINUOUS
10
4.6787982677165356
20
-2.3484714566929132
11
4.6714242125984251
21
-2.3558455118110238
0
LINE
8
BLACK
6
CONTINUOUS
10
4.6714242125984251
20
-2.3558455118110238
11
4.663150787401575
21
-2.3621939370078739
0
LINE
8
BLACK
6
CONTINUOUS
10
4.663150787401575
20
-2.3621939370078739
11
4.654119488188976
21
-2.3674081496062991
0
LINE
8
BLACK
6
CONTINUOUS
10
4.654119488188976
20
-2.3674081496062991
11
4.6444848425196845
21
-2.3713989763779528
0
LINE
8
BLACK
6
CONTINUOUS
10
4.6444848425196845
20
-2.3713989763779528
11
4.6344117322834641
21
-2.3740980314960631
0
LINE
8
BLACK
6
CONTINUOUS
10
4.6344117322834641
20
-2.3740980314960631
11
4.6240724803149602
21
-2.3754592125984253
0
LINE
8
BLACK
6
CONTINUOUS
10
4.6240724803149602
20
-2.3754592125984253
11
4.6136440551181099
21
-2.3754592125984253
0
LINE
8
BLACK
6
CONTINUOUS
10
4.6136440551181099
20
-2.3754592125984253
11
4.603304803149606
21
-2.3740980314960631
0
LINE
8
BLACK
6
CONTINUOUS
10
4.603304803149606
20
-2.3740980314960631
11
4.5932316929133856
21
-2.3713989763779528
0
LINE
8
BLACK
6
CONTINUOUS
10
4.5932316929133856
20
-2.3713989763779528
11
4.5835970472440941
21
-2.3674081496062991
0
LINE
8
BLACK
6
CONTINUOUS
10
4.5835970472440941
20
-2.3674081496062991
11
4.5745657480314961
21
-2.3621939370078739
0
LINE
8
BLACK
6
CONTINUOUS
10
4.5745657480314961
20
-2.3621939370078739
11
4.5662923228346459
21
-2.3558455118110238
0
LINE
8
BLACK
6
CONTINUOUS
10
4.5662923228346459
20
-2.3558455118110238
11
4.5589182677165354
21
-2.3484714566929132
0
LINE
8
BLACK
6
CONTINUOUS
10
4.5589182677165354
20
-2.3484714566929132
11
4.5525698425196852
21
-2.3401980314960631
0
LINE
8
BLACK
6
CONTINUOUS
10
4.5525698425196852
20
-2.3401980314960631
11
4.5473556299212596
21
-2.3311667322834646
0
LINE
8
BLACK
6
CONTINUOUS
10
4.5473556299212596
20
-2.3311667322834646
11
4.5433648031496059
21
-2.3215320866141731
0
LINE
8
BLACK
6
CONTINUOUS
10
4.5433648031496059
20
-2.3215320866141731
11
4.540665748031496
21
-2.3114589763779527
0
LINE
8
BLACK
6
CONTINUOUS
10
4.540665748031496
20
-2.3114589763779527
11
4.5393045669291334
21
-2.3011197244094488
0
LINE
8
BLACK
6
CONTINUOUS
10
4.5393045669291334
20
-2.3011197244094488
11
4.5393045669291334
21
-2.2908091338582675
0
LINE
8
BLACK
6
CONTINUOUS
10
4.5393045669291334
20
-2.2908091338582675
11
4.5393045669291334
21
-2.2906912992125985
0
LINE
8
BLACK
6
CONTINUOUS
10
4.5393045669291334
20
-2.2906912992125985
11
4.540665748031496
21
-2.2803520472440946
0
LINE
8
BLACK
6
CONTINUOUS
10
4.540665748031496
20
-2.2803520472440946
11
4.5433648031496059
21
-2.2702789370078738
0
LINE
8
BLACK
6
CONTINUOUS
10
4.5433648031496059
20
-2.2702789370078738
11
4.5473556299212596
21
-2.2606442913385827
0
LINE
8
BLACK
6
CONTINUOUS
10
4.5473556299212596
20
-2.2606442913385827
11
4.5525698425196852
21
-2.2516129921259842
0
LINE
8
BLACK
6
CONTINUOUS
10
4.5525698425196852
20
-2.2516129921259842
11
4.5589182677165354
21
-2.2433395669291336
0
LINE
8
BLACK
6
CONTINUOUS
10
4.5589182677165354
20
-2.2433395669291336
11
4.5662923228346459
21
-2.2359655118110235
0
LINE
8
BLACK
6
CONTINUOUS
10
4.5662923228346459
20
-2.2359655118110235
11
4.5745657480314961
21
-2.2296170866141733
0
LINE
8
BLACK
6
CONTINUOUS
10
4.5745657480314961
20
-2.2296170866141733
11
4.5835970472440941
21
-2.2244028740157478
0
LINE
8
BLACK
6
CONTINUOUS
10
4.5835970472440941
20
-2.2244028740157478
11
4.5932316929133856
21
-2.2204120472440945
0
LINE
8
BLACK
6
CONTINUOUS
10
4.5932316929133856
20
-2.2204120472440945
11
4.603304803149606
21
-2.2177129921259842
0
LINE
8
BLACK
6
CONTINUOUS
10
4.603304803149606
20
-2.2177129921259842
11
4.6136440551181099
21
-2.216351811023622
0
LINE
8
BLACK
6
CONTINUOUS
10
4.6136440551181099
20
-2.216351811023622
11
4.6240724803149602
21
-2.216351811023622
0
LINE
8
BLACK
6
CONTINUOUS
10
4.6240724803149602
20
-2.216351811023622
11
4.6344117322834641
21
-2.2177129921259842
0
LINE
8
BLACK
6
CONTINUOUS
10
4.5411023622047244
20
-2.3010018897637794
11
4.5424327952755901
21
-2.3111074803149605
0
LINE
8
BLACK
6
CONTINUOUS
10
4.5424327952755901
20
-2.3111074803149605
11
4.5450708661417325
21
-2.3209529527559054
0
LINE
8
BLACK
6
CONTINUOUS
10
4.5450708661417325
20
-2.3209529527559054
11
4.5489714566929136
21
-2.3303698818897636
0
LINE
8
BLACK
6
CONTINUOUS
10
4.5489714566929136
20
-2.3303698818897636
11
4.5540678740157476
21
-2.3391970866141731
0
LINE
8
BLACK
6
CONTINUOUS
10
4.5540678740157476
20
-2.3391970866141731
11
4.5602728346456693
21
-2.3472835433070864
0
LINE
8
BLACK
6
CONTINUOUS
10
4.5602728346456693
20
-2.3472835433070864
11
4.5674802362204723
21
-2.3544909448818898
0
LINE
8
BLACK
6
CONTINUOUS
10
4.5674802362204723
20
-2.3544909448818898
11
4.5755666929133856
21
-2.3606959055118111
0
LINE
8
BLACK
6
CONTINUOUS
10
4.5755666929133856
20
-2.3606959055118111
11
4.5843938976377956
21
-2.3657923228346456
0
LINE
8
BLACK
6
CONTINUOUS
10
4.5843938976377956
20
-2.3657923228346456
11
4.5938108267716533
21
-2.3696929133858267
0
LINE
8
BLACK
6
CONTINUOUS
10
4.5938108267716533
20
-2.3696929133858267
11
4.6036562992125987
21
-2.3723309842519686
0
LINE
8
BLACK
6
CONTINUOUS
10
4.6036562992125987
20
-2.3723309842519686
11
4.6137618897637793
21
-2.3736614173228348
0
LINE
8
BLACK
6
CONTINUOUS
10
4.6137618897637793
20
-2.3736614173228348
11
4.6239546456692908
21
-2.3736614173228348
0
LINE
8
BLACK
6
CONTINUOUS
10
4.6239546456692908
20
-2.3736614173228348
11
4.6340602362204724
21
-2.3723309842519686
0
LINE
8
BLACK
6
CONTINUOUS
10
4.6340602362204724
20
-2.3723309842519686
11
4.6439057086614168
21
-2.3696929133858267
0
LINE
8
BLACK
6
CONTINUOUS
10
4.6439057086614168
20
-2.3696929133858267
11
4.6533226377952754
21
-2.3657923228346456
0
LINE
8
BLACK
6
CONTINUOUS
10
4.6533226377952754
20
-2.3657923228346456
11
4.6621498425196846
21
-2.3606959055118111
0
LINE
8
BLACK
6
CONTINUOUS
10
4.6621498425196846
20
-2.3606959055118111
11
4.6702362992125988
21
-2.3544909448818898
0
LINE
8
BLACK
6
CONTINUOUS
10
4.6702362992125988
20
-2.3544909448818898
11
4.6774437007874017
21
-2.3472835433070864
0
LINE
8
BLACK
6
CONTINUOUS
10
4.6774437007874017
20
-2.3472835433070864
11
4.6836486614173225
21
-2.3391970866141731
0
LINE
8
BLACK
6
CONTINUOUS
10
4.6836486614173225
20
-2.3391970866141731
11
4.6887450787401574
21
-2.3303698818897636
0
LINE
8
BLACK
6
CONTINUOUS
10
4.6887450787401574
20
-2.3303698818897636
11
4.6926456692913385
21
-2.3209529527559054
0
LINE
8
BLACK
6
CONTINUOUS
10
4.6926456692913385
20
-2.3209529527559054
11
4.6952837401574801
21
-2.3111074803149605
0
LINE
8
BLACK
6
CONTINUOUS
10
4.6952837401574801
20
-2.3111074803149605
11
4.6966141732283466
21
-2.3010018897637794
0
LINE
8
BLACK
6
CONTINUOUS
10
4.6966141732283466
20
-2.3010018897637794
11
4.6966141732283466
21
-2.2908091338582675
0
LINE
8
BLACK
6
CONTINUOUS
10
4.6966141732283466
20
-2.2908091338582675
11
4.6952837401574801
21
-2.2807035433070864
0
LINE
8
BLACK
6
CONTINUOUS
10
4.6952837401574801
20
-2.2807035433070864
11
4.6926456692913385
21
-2.2708580708661419
0
LINE
8
BLACK
6
CONTINUOUS
10
4.6926456692913385
20
-2.2708580708661419
11
4.6887450787401574
21
-2.2614411417322833
0
LINE
8
BLACK
6
CONTINUOUS
10
4.6887450787401574
20
-2.2614411417322833
11
4.6836486614173225
21
-2.2526139370078742
0
LINE
8
BLACK
6
CONTINUOUS
10
4.6836486614173225
20
-2.2526139370078742
11
4.6774437007874017
21
-2.2445274803149604
0
LINE
8
BLACK
6
CONTINUOUS
10
4.6774437007874017
20
-2.2445274803149604
11
4.6702362992125988
21
-2.2373200787401575
0
LINE
8
BLACK
6
CONTINUOUS
10
4.6702362992125988
20
-2.2373200787401575
11
4.6621498425196846
21
-2.2311151181102362
0
LINE
8
BLACK
6
CONTINUOUS
10
4.6621498425196846
20
-2.2311151181102362
11
4.6533226377952754
21
-2.2260187007874017
0
LINE
8
BLACK
6
CONTINUOUS
10
4.6533226377952754
20
-2.2260187007874017
11
4.6439057086614168
21
-2.2221181102362206
0
LINE
8
BLACK
6
CONTINUOUS
10
4.6439057086614168
20
-2.2221181102362206
11
4.6340602362204724
21
-2.2194800393700787
0
LINE
8
BLACK
6
CONTINUOUS
10
4.6340602362204724
20
-2.2194800393700787
11
4.6239546456692908
21
-2.2181496062992125
0
LINE
8
BLACK
6
CONTINUOUS
10
4.6239546456692908
20
-2.2181496062992125
11
4.6137618897637793
21
-2.2181496062992125
0
LINE
8
BLACK
6
CONTINUOUS
10
4.6137618897637793
20
-2.2181496062992125
11
4.6036562992125987
21
-2.2194800393700787
0
LINE
8
BLACK
6
CONTINUOUS
10
4.6036562992125987
20
-2.2194800393700787
11
4.5938108267716533
21
-2.2221181102362206
0
LINE
8
BLACK
6
CONTINUOUS
10
4.5938108267716533
20
-2.2221181102362206
11
4.5843938976377956
21
-2.2260187007874017
0
LINE
8
BLACK
6
CONTINUOUS
10
4.5843938976377956
20
-2.2260187007874017
11
4.5755666929133856
21
-2.2311151181102362
0
LINE
8
BLACK
6
CONTINUOUS
10
4.5755666929133856
20
-2.2311151181102362
11
4.5674802362204723
21
-2.2373200787401575
0
LINE
8
BLACK
6
CONTINUOUS
10
4.5674802362204723
20
-2.2373200787401575
11
4.5602728346456693
21
-2.2445274803149604
0
LINE
8
BLACK
6
CONTINUOUS
10
4.5602728346456693
20
-2.2445274803149604
11
4.5540678740157476
21
-2.2526139370078742
0
LINE
8
BLACK
6
CONTINUOUS
10
4.5540678740157476
20
-2.2526139370078742
11
4.5489714566929136
21
-2.2614411417322833
0
LINE
8
BLACK
6
CONTINUOUS
10
4.5489714566929136
20
-2.2614411417322833
11
4.5450708661417325
21
-2.2708580708661419
0
LINE
8
BLACK
6
CONTINUOUS
10
4.5450708661417325
20
-2.2708580708661419
11
4.5424327952755901
21
-2.2807035433070864
0
LINE
8
BLACK
6
CONTINUOUS
10
4.5424327952755901
20
-2.2807035433070864
11
4.5411023622047244
21
-2.2908091338582675
0
LINE
8
BLACK
6
CONTINUOUS
10
4.5411023622047244
20
-2.2908091338582675
11
4.5411023622047244
21
-2.3010018897637794
0
LINE
8
BLACK
6
CONTINUOUS
10
5.0094117322834641
20
-2.2177129921259842
11
5.0194848425196845
21
-2.2204120472440945
0
LINE
8
BLACK
6
CONTINUOUS
10
5.0194848425196845
20
-2.2204120472440945
11
5.029119488188976
21
-2.2244028740157478
0
LINE
8
BLACK
6
CONTINUOUS
10
5.029119488188976
20
-2.2244028740157478
11
5.038150787401575
21
-2.2296170866141733
0
LINE
8
BLACK
6
CONTINUOUS
10
5.038150787401575
20
-2.2296170866141733
11
5.0464242125984251
21
-2.2359655118110235
0
LINE
8
BLACK
6
CONTINUOUS
10
5.0464242125984251
20
-2.2359655118110235
11
5.0537982677165356
21
-2.2433395669291336
0
LINE
8
BLACK
6
CONTINUOUS
10
5.0537982677165356
20
-2.2433395669291336
11
5.0601466929133858
21
-2.2516129921259842
0
LINE
8
BLACK
6
CONTINUOUS
10
5.0601466929133858
20
-2.2516129921259842
11
5.0653609055118105
21
-2.2606442913385827
0
LINE
8
BLACK
6
CONTINUOUS
10
5.0653609055118105
20
-2.2606442913385827
11
5.0693517322834643
21
-2.2702789370078738
0
LINE
8
BLACK
6
CONTINUOUS
10
5.0693517322834643
20
-2.2702789370078738
11
5.072050787401575
21
-2.2803520472440946
0
LINE
8
BLACK
6
CONTINUOUS
10
5.072050787401575
20
-2.2803520472440946
11
5.0734119685039367
21
-2.2906912992125985
0
LINE
8
BLACK
6
CONTINUOUS
10
5.0734119685039367
20
-2.2906912992125985
11
5.0734119685039367
21
-2.3011197244094488
0
LINE
8
BLACK
6
CONTINUOUS
10
5.0734119685039367
20
-2.3011197244094488
11
5.072050787401575
21
-2.3114589763779527
0
LINE
8
BLACK
6
CONTINUOUS
10
5.072050787401575
20
-2.3114589763779527
11
5.0693517322834643
21
-2.3215320866141731
0
LINE
8
BLACK
6
CONTINUOUS
10
5.0693517322834643
20
-2.3215320866141731
11
5.0653609055118105
21
-2.3311667322834646
0
LINE
8
BLACK
6
CONTINUOUS
10
5.0653609055118105
20
-2.3311667322834646
11
5.0601466929133858
21
-2.3401980314960631
0
LINE
8
BLACK
6
CONTINUOUS
10
5.0601466929133858
20
-2.3401980314960631
11
5.0537982677165356
21
-2.3484714566929132
0
LINE
8
BLACK
6
CONTINUOUS
10
5.0537982677165356
20
-2.3484714566929132
11
5.0464242125984251
21
-2.3558455118110238
0
LINE
8
BLACK
6
CONTINUOUS
10
5.0464242125984251
20
-2.3558455118110238
11
5.038150787401575
21
-2.3621939370078739
0
LINE
8
BLACK
6
CONTINUOUS
10
5.038150787401575
20
-2.3621939370078739
11
5.029119488188976
21
-2.3674081496062991
0
LINE
8
BLACK
6
CONTINUOUS
10
5.029119488188976
20
-2.3674081496062991
11
5.0194848425196845
21
-2.3713989763779528
0
LINE
8
BLACK
6
CONTINUOUS
10
5.0194848425196845
20
-2.3713989763779528
11
5.0094117322834641
21
-2.3740980314960631
0
LINE
8
BLACK
6
CONTINUOUS
10
5.0094117322834641
20
-2.3740980314960631
11
4.9990724803149602
21
-2.3754592125984253
0
LINE
8
BLACK
6
CONTINUOUS
10
4.9990724803149602
20
-2.3754592125984253
11
4.9886440551181099
21
-2.3754592125984253
0
LINE
8
BLACK
6
CONTINUOUS
10
4.9886440551181099
20
-2.3754592125984253
11
4.978304803149606
21
-2.3740980314960631
0
LINE
8
BLACK
6
CONTINUOUS
10
4.978304803149606
20
-2.3740980314960631
11
4.9682316929133856
21
-2.3713989763779528
0
LINE
8
BLACK
6
CONTINUOUS
10
4.9682316929133856
20
-2.3713989763779528
11
4.9585970472440941
21
-2.3674081496062991
0
LINE
8
BLACK
6
CONTINUOUS
10
4.9585970472440941
20
-2.3674081496062991
11
4.9495657480314961
21
-2.3621939370078739
0
LINE
8
BLACK
6
CONTINUOUS
10
4.9495657480314961
20
-2.3621939370078739
11
4.9412923228346459
21
-2.3558455118110238
0
LINE
8
BLACK
6
CONTINUOUS
10
4.9412923228346459
20
-2.3558455118110238
11
4.9339182677165354
21
-2.3484714566929132
0
LINE
8
BLACK
6
CONTINUOUS
10
4.9339182677165354
20
-2.3484714566929132
11
4.9275698425196852
21
-2.3401980314960631
0
LINE
8
BLACK
6
CONTINUOUS
10
4.9275698425196852
20
-2.3401980314960631
11
4.9223556299212596
21
-2.3311667322834646
0
LINE
8
BLACK
6
CONTINUOUS
10
4.9223556299212596
20
-2.3311667322834646
11
4.9183648031496059
21
-2.3215320866141731
0
LINE
8
BLACK
6
CONTINUOUS
10
4.9183648031496059
20
-2.3215320866141731
11
4.915665748031496
21
-2.3114589763779527
0
LINE
8
BLACK
6
CONTINUOUS
10
4.915665748031496
20
-2.3114589763779527
11
4.9143045669291334
21
-2.3011197244094488
0
LINE
8
BLACK
6
CONTINUOUS
10
4.9143045669291334
20
-2.3011197244094488
11
4.9143045669291334
21
-2.2908091338582675
0
LINE
8
BLACK
6
CONTINUOUS
10
4.9143045669291334
20
-2.2908091338582675
11
4.9143045669291334
21
-2.2906912992125985
0
LINE
8
BLACK
6
CONTINUOUS
10
4.9143045669291334
20
-2.2906912992125985
11
4.915665748031496
21
-2.2803520472440946
0
LINE
8
BLACK
6
CONTINUOUS
10
4.915665748031496
20
-2.2803520472440946
11
4.9183648031496059
21
-2.2702789370078738
0
LINE
8
BLACK
6
CONTINUOUS
10
4.9183648031496059
20
-2.2702789370078738
11
4.9223556299212596
21
-2.2606442913385827
0
LINE
8
BLACK
6
CONTINUOUS
10
4.9223556299212596
20
-2.2606442913385827
11
4.9275698425196852
21
-2.2516129921259842
0
LINE
8
BLACK
6
CONTINUOUS
10
4.9275698425196852
20
-2.2516129921259842
11
4.9339182677165354
21
-2.2433395669291336
0
LINE
8
BLACK
6
CONTINUOUS
10
4.9339182677165354
20
-2.2433395669291336
11
4.9412923228346459
21
-2.2359655118110235
0
LINE
8
BLACK
6
CONTINUOUS
10
4.9412923228346459
20
-2.2359655118110235
11
4.9495657480314961
21
-2.2296170866141733
0
LINE
8
BLACK
6
CONTINUOUS
10
4.9495657480314961
20
-2.2296170866141733
11
4.9585970472440941
21
-2.2244028740157478
0
LINE
8
BLACK
6
CONTINUOUS
10
4.9585970472440941
20
-2.2244028740157478
11
4.9682316929133856
21
-2.2204120472440945
0
LINE
8
BLACK
6
CONTINUOUS
10
4.9682316929133856
20
-2.2204120472440945
11
4.978304803149606
21
-2.2177129921259842
0
LINE
8
BLACK
6
CONTINUOUS
10
4.978304803149606
20
-2.2177129921259842
11
4.9886440551181099
21
-2.216351811023622
0
LINE
8
BLACK
6
CONTINUOUS
10
4.9886440551181099
20
-2.216351811023622
11
4.9990724803149602
21
-2.216351811023622
0
LINE
8
BLACK
6
CONTINUOUS
10
4.9990724803149602
20
-2.216351811023622
11
5.0094117322834641
21
-2.2177129921259842
0
LINE
8
BLACK
6
CONTINUOUS
10
4.9161023622047244
20
-2.3010018897637794
11
4.9174327952755901
21
-2.3111074803149605
0
LINE
8
BLACK
6
CONTINUOUS
10
4.9174327952755901
20
-2.3111074803149605
11
4.9200708661417325
21
-2.3209529527559054
0
LINE
8
BLACK
6
CONTINUOUS
10
4.9200708661417325
20
-2.3209529527559054
11
4.9239714566929136
21
-2.3303698818897636
0
LINE
8
BLACK
6
CONTINUOUS
10
4.9239714566929136
20
-2.3303698818897636
11
4.9290678740157476
21
-2.3391970866141731
0
LINE
8
BLACK
6
CONTINUOUS
10
4.9290678740157476
20
-2.3391970866141731
11
4.9352728346456693
21
-2.3472835433070864
0
LINE
8
BLACK
6
CONTINUOUS
10
4.9352728346456693
20
-2.3472835433070864
11
4.9424802362204723
21
-2.3544909448818898
0
LINE
8
BLACK
6
CONTINUOUS
10
4.9424802362204723
20
-2.3544909448818898
11
4.9505666929133856
21
-2.3606959055118111
0
LINE
8
BLACK
6
CONTINUOUS
10
4.9505666929133856
20
-2.3606959055118111
11
4.9593938976377956
21
-2.3657923228346456
0
LINE
8
BLACK
6
CONTINUOUS
10
4.9593938976377956
20
-2.3657923228346456
11
4.9688108267716533
21
-2.3696929133858267
0
LINE
8
BLACK
6
CONTINUOUS
10
4.9688108267716533
20
-2.3696929133858267
11
4.9786562992125987
21
-2.3723309842519686
0
LINE
8
BLACK
6
CONTINUOUS
10
4.9786562992125987
20
-2.3723309842519686
11
4.9887618897637793
21
-2.3736614173228348
0
LINE
8
BLACK
6
CONTINUOUS
10
4.9887618897637793
20
-2.3736614173228348
11
4.9989546456692908
21
-2.3736614173228348
0
LINE
8
BLACK
6
CONTINUOUS
10
4.9989546456692908
20
-2.3736614173228348
11
5.0090602362204724
21
-2.3723309842519686
0
LINE
8
BLACK
6
CONTINUOUS
10
5.0090602362204724
20
-2.3723309842519686
11
5.0189057086614168
21
-2.3696929133858267
0
LINE
8
BLACK
6
CONTINUOUS
10
5.0189057086614168
20
-2.3696929133858267
11
5.0283226377952754
21
-2.3657923228346456
0
LINE
8
BLACK
6
CONTINUOUS
10
5.0283226377952754
20
-2.3657923228346456
11
5.0371498425196846
21
-2.3606959055118111
0
LINE
8
BLACK
6
CONTINUOUS
10
5.0371498425196846
20
-2.3606959055118111
11
5.0452362992125988
21
-2.3544909448818898
0
LINE
8
BLACK
6
CONTINUOUS
10
5.0452362992125988
20
-2.3544909448818898
11
5.0524437007874017
21
-2.3472835433070864
0
LINE
8
BLACK
6
CONTINUOUS
10
5.0524437007874017
20
-2.3472835433070864
11
5.0586486614173225
21
-2.3391970866141731
0
LINE
8
BLACK
6
CONTINUOUS
10
5.0586486614173225
20
-2.3391970866141731
11
5.0637450787401574
21
-2.3303698818897636
0
LINE
8
BLACK
6
CONTINUOUS
10
5.0637450787401574
20
-2.3303698818897636
11
5.0676456692913385
21
-2.3209529527559054
0
LINE
8
BLACK
6
CONTINUOUS
10
5.0676456692913385
20
-2.3209529527559054
11
5.0702837401574801
21
-2.3111074803149605
0
LINE
8
BLACK
6
CONTINUOUS
10
5.0702837401574801
20
-2.3111074803149605
11
5.0716141732283466
21
-2.3010018897637794
0
LINE
8
BLACK
6
CONTINUOUS
10
5.0716141732283466
20
-2.3010018897637794
11
5.0716141732283466
21
-2.2908091338582675
0
LINE
8
BLACK
6
CONTINUOUS
10
5.0716141732283466
20
-2.2908091338582675
11
5.0702837401574801
21
-2.2807035433070864
0
LINE
8
BLACK
6
CONTINUOUS
10
5.0702837401574801
20
-2.2807035433070864
11
5.0676456692913385
21
-2.2708580708661419
0
LINE
8
BLACK
6
CONTINUOUS
10
5.0676456692913385
20
-2.2708580708661419
11
5.0637450787401574
21
-2.2614411417322833
0
LINE
8
BLACK
6
CONTINUOUS
10
5.0637450787401574
20
-2.2614411417322833
11
5.0586486614173225
21
-2.2526139370078742
0
LINE
8
BLACK
6
CONTINUOUS
10
5.0586486614173225
20
-2.2526139370078742
11
5.0524437007874017
21
-2.2445274803149604
0
LINE
8
BLACK
6
CONTINUOUS
10
5.0524437007874017
20
-2.2445274803149604
11
5.0452362992125988
21
-2.2373200787401575
0
LINE
8
BLACK
6
CONTINUOUS
10
5.0452362992125988
20
-2.2373200787401575
11
5.0371498425196846
21
-2.2311151181102362
0
LINE
8
BLACK
6
CONTINUOUS
10
5.0371498425196846
20
-2.2311151181102362
11
5.0283226377952754
21
-2.2260187007874017
0
LINE
8
BLACK
6
CONTINUOUS
10
5.0283226377952754
20
-2.2260187007874017
11
5.0189057086614168
21
-2.2221181102362206
0
LINE
8
BLACK
6
CONTINUOUS
10
5.0189057086614168
20
-2.2221181102362206
11
5.0090602362204724
21
-2.2194800393700787
0
LINE
8
BLACK
6
CONTINUOUS
10
5.0090602362204724
20
-2.2194800393700787
11
4.9989546456692908
21
-2.2181496062992125
0
LINE
8
BLACK
6
CONTINUOUS
10
4.9989546456692908
20
-2.2181496062992125
11
4.9887618897637793
21
-2.2181496062992125
0
LINE
8
BLACK
6
CONTINUOUS
10
4.9887618897637793
20
-2.2181496062992125
11
4.9786562992125987
21
-2.2194800393700787
0
LINE
8
BLACK
6
CONTINUOUS
10
4.9786562992125987
20
-2.2194800393700787
11
4.9688108267716533
21
-2.2221181102362206
0
LINE
8
BLACK
6
CONTINUOUS
10
4.9688108267716533
20
-2.2221181102362206
11
4.9593938976377956
21
-2.2260187007874017
0
LINE
8
BLACK
6
CONTINUOUS
10
4.9593938976377956
20
-2.2260187007874017
11
4.9505666929133856
21
-2.2311151181102362
0
LINE
8
BLACK
6
CONTINUOUS
10
4.9505666929133856
20
-2.2311151181102362
11
4.9424802362204723
21
-2.2373200787401575
0
LINE
8
BLACK
6
CONTINUOUS
10
4.9424802362204723
20
-2.2373200787401575
11
4.9352728346456693
21
-2.2445274803149604
0
LINE
8
BLACK
6
CONTINUOUS
10
4.9352728346456693
20
-2.2445274803149604
11
4.9290678740157476
21
-2.2526139370078742
0
LINE
8
BLACK
6
CONTINUOUS
10
4.9290678740157476
20
-2.2526139370078742
11
4.9239714566929136
21
-2.2614411417322833
0
LINE
8
BLACK
6
CONTINUOUS
10
4.9239714566929136
20
-2.2614411417322833
11
4.9200708661417325
21
-2.2708580708661419
0
LINE
8
BLACK
6
CONTINUOUS
10
4.9200708661417325
20
-2.2708580708661419
11
4.9174327952755901
21
-2.2807035433070864
0
LINE
8
BLACK
6
CONTINUOUS
10
4.9174327952755901
20
-2.2807035433070864
11
4.9161023622047244
21
-2.2908091338582675
0
LINE
8
BLACK
6
CONTINUOUS
10
4.9161023622047244
20
-2.2908091338582675
11
4.9161023622047244
21
-2.3010018897637794
0
LINE
8
BLACK
6
CONTINUOUS
10
5.9386445669291339
20
-2.230826496062992
11
5.9456055511811021
21
-2.2330882677165356
0
LINE
8
BLACK
6
CONTINUOUS
10
5.9456055511811021
20
-2.2330882677165356
11
5.9521269685039373
21
-2.2364111023622049
0
LINE
8
BLACK
6
CONTINUOUS
10
5.9521269685039373
20
-2.2364111023622049
11
5.9580483464566925
21
-2.2407132283464568
0
LINE
8
BLACK
6
CONTINUOUS
10
5.9580483464566925
20
-2.2407132283464568
11
5.9632237795275591
21
-2.2458886614173226
0
LINE
8
BLACK
6
CONTINUOUS
10
5.9632237795275591
20
-2.2458886614173226
11
5.9675259055118106
21
-2.2518100393700786
0
LINE
8
BLACK
6
CONTINUOUS
10
5.9675259055118106
20
-2.2518100393700786
11
5.9708487401574803
21
-2.2583314566929134
0
LINE
8
BLACK
6
CONTINUOUS
10
5.9708487401574803
20
-2.2583314566929134
11
5.9731105118110239
21
-2.265292440944882
0
LINE
8
BLACK
6
CONTINUOUS
10
5.9731105118110239
20
-2.265292440944882
11
5.9742554724409445
21
-2.2725214960629923
0
LINE
8
BLACK
6
CONTINUOUS
10
5.9742554724409445
20
-2.2725214960629923
11
5.9742554724409445
21
-2.2798407086614172
0
LINE
8
BLACK
6
CONTINUOUS
10
5.9742554724409445
20
-2.2798407086614172
11
5.9731105118110239
21
-2.2870697637795274
0
LINE
8
BLACK
6
CONTINUOUS
10
5.9731105118110239
20
-2.2870697637795274
11
5.9708487401574803
21
-2.2940307480314961
0
LINE
8
BLACK
6
CONTINUOUS
10
5.9708487401574803
20
-2.2940307480314961
11
5.9675259055118106
21
-2.3005521653543308
0
LINE
8
BLACK
6
CONTINUOUS
10
5.9675259055118106
20
-2.3005521653543308
11
5.9632237795275591
21
-2.3064735433070864
0
LINE
8
BLACK
6
CONTINUOUS
10
5.9632237795275591
20
-2.3064735433070864
11
5.9580483464566925
21
-2.3116489763779526
0
LINE
8
BLACK
6
CONTINUOUS
10
5.9580483464566925
20
-2.3116489763779526
11
5.9521269685039373
21
-2.3159511023622046
0
LINE
8
BLACK
6
CONTINUOUS
10
5.9521269685039373
20
-2.3159511023622046
11
5.9456055511811021
21
-2.3192739370078739
0
LINE
8
BLACK
6
CONTINUOUS
10
5.9456055511811021
20
-2.3192739370078739
11
5.9386445669291339
21
-2.3215357086614175
0
LINE
8
BLACK
6
CONTINUOUS
10
5.9386445669291339
20
-2.3215357086614175
11
5.9314155118110232
21
-2.3226806692913384
0
LINE
8
BLACK
6
CONTINUOUS
10
5.9314155118110232
20
-2.3226806692913384
11
5.9240962992125983
21
-2.3226806692913384
0
LINE
8
BLACK
6
CONTINUOUS
10
5.9240962992125983
20
-2.3226806692913384
11
5.9168672440944885
21
-2.3215357086614175
0
LINE
8
BLACK
6
CONTINUOUS
10
5.9168672440944885
20
-2.3215357086614175
11
5.9099062598425194
21
-2.3192739370078739
0
LINE
8
BLACK
6
CONTINUOUS
10
5.9099062598425194
20
-2.3192739370078739
11
5.9033848425196851
21
-2.3159511023622046
0
LINE
8
BLACK
6
CONTINUOUS
10
5.9033848425196851
20
-2.3159511023622046
11
5.897463464566929
21
-2.3116489763779526
0
LINE
8
BLACK
6
CONTINUOUS
10
5.897463464566929
20
-2.3116489763779526
11
5.8922880314960633
21
-2.3064735433070864
0
LINE
8
BLACK
6
CONTINUOUS
10
5.8922880314960633
20
-2.3064735433070864
11
5.8879859055118109
21
-2.3005521653543308
0
LINE
8
BLACK
6
CONTINUOUS
10
5.8879859055118109
20
-2.3005521653543308
11
5.8846630708661412
21
-2.2940307480314961
0
LINE
8
BLACK
6
CONTINUOUS
10
5.8846630708661412
20
-2.2940307480314961
11
5.8824012992125985
21
-2.2870697637795274
0
LINE
8
BLACK
6
CONTINUOUS
10
5.8824012992125985
20
-2.2870697637795274
11
5.881256338582677
21
-2.2798407086614172
0
LINE
8
BLACK
6
CONTINUOUS
10
5.881256338582677
20
-2.2798407086614172
11
5.881256338582677
21
-2.2726651181102362
0
LINE
8
BLACK
6
CONTINUOUS
10
5.881256338582677
20
-2.2726651181102362
11
5.881256338582677
21
-2.2725214960629923
0
LINE
8
BLACK
6
CONTINUOUS
10
5.881256338582677
20
-2.2725214960629923
11
5.8824012992125985
21
-2.265292440944882
0
LINE
8
BLACK
6
CONTINUOUS
10
5.8824012992125985
20
-2.265292440944882
11
5.8846630708661412
21
-2.2583314566929134
0
LINE
8
BLACK
6
CONTINUOUS
10
5.8846630708661412
20
-2.2583314566929134
11
5.8879859055118109
21
-2.2518100393700786
0
LINE
8
BLACK
6
CONTINUOUS
10
5.8879859055118109
20
-2.2518100393700786
11
5.8922880314960633
21
-2.2458886614173226
0
LINE
8
BLACK
6
CONTINUOUS
10
5.8922880314960633
20
-2.2458886614173226
11
5.897463464566929
21
-2.2407132283464568
0
LINE
8
BLACK
6
CONTINUOUS
10
5.897463464566929
20
-2.2407132283464568
11
5.9033848425196851
21
-2.2364111023622049
0
LINE
8
BLACK
6
CONTINUOUS
10
5.9033848425196851
20
-2.2364111023622049
11
5.9099062598425194
21
-2.2330882677165356
0
LINE
8
BLACK
6
CONTINUOUS
10
5.9099062598425194
20
-2.2330882677165356
11
5.9168672440944885
21
-2.230826496062992
0
LINE
8
BLACK
6
CONTINUOUS
10
5.9168672440944885
20
-2.230826496062992
11
5.9240962992125983
21
-2.229681535433071
0
LINE
8
BLACK
6
CONTINUOUS
10
5.9240962992125983
20
-2.229681535433071
11
5.9314155118110232
21
-2.229681535433071
0
LINE
8
BLACK
6
CONTINUOUS
10
5.9314155118110232
20
-2.229681535433071
11
5.9386445669291339
21
-2.230826496062992
0
LINE
8
BLACK
6
CONTINUOUS
10
5.883081062992126
20
-2.2796970866141733
11
5.8841811023622048
21
-2.2866424803149608
0
LINE
8
BLACK
6
CONTINUOUS
10
5.8841811023622048
20
-2.2866424803149608
11
5.8863540944881887
21
-2.2933302755905509
0
LINE
8
BLACK
6
CONTINUOUS
10
5.8863540944881887
20
-2.2933302755905509
11
5.8895465354330705
21
-2.2995958267716534
0
LINE
8
BLACK
6
CONTINUOUS
10
5.8895465354330705
20
-2.2995958267716534
11
5.8936798425196848
21
-2.3052848031496063
0
LINE
8
BLACK
6
CONTINUOUS
10
5.8936798425196848
20
-2.3052848031496063
11
5.8986522047244092
21
-2.3102571653543307
0
LINE
8
BLACK
6
CONTINUOUS
10
5.8986522047244092
20
-2.3102571653543307
11
5.9043411811023621
21
-2.314390472440945
0
LINE
8
BLACK
6
CONTINUOUS
10
5.9043411811023621
20
-2.314390472440945
11
5.9106067322834646
21
-2.3175829133858268
0
LINE
8
BLACK
6
CONTINUOUS
10
5.9106067322834646
20
-2.3175829133858268
11
5.9172945275590552
21
-2.3197559055118111
0
LINE
8
BLACK
6
CONTINUOUS
10
5.9172945275590552
20
-2.3197559055118111
11
5.9242399212598427
21
-2.3208559448818895
0
LINE
8
BLACK
6
CONTINUOUS
10
5.9242399212598427
20
-2.3208559448818895
11
5.9312718897637797
21
-2.3208559448818895
0
LINE
8
BLACK
6
CONTINUOUS
10
5.9312718897637797
20
-2.3208559448818895
11
5.9382172834645672
21
-2.3197559055118111
0
LINE
8
BLACK
6
CONTINUOUS
10
5.9382172834645672
20
-2.3197559055118111
11
5.9449050787401569
21
-2.3175829133858268
0
LINE
8
BLACK
6
CONTINUOUS
10
5.9449050787401569
20
-2.3175829133858268
11
5.9511706299212594
21
-2.314390472440945
0
LINE
8
BLACK
6
CONTINUOUS
10
5.9511706299212594
20
-2.314390472440945
11
5.9568596062992123
21
-2.3102571653543307
0
LINE
8
BLACK
6
CONTINUOUS
10
5.9568596062992123
20
-2.3102571653543307
11
5.9618319685039367
21
-2.3052848031496063
0
LINE
8
BLACK
6
CONTINUOUS
10
5.9618319685039367
20
-2.3052848031496063
11
5.965965275590551
21
-2.2995958267716534
0
LINE
8
BLACK
6
CONTINUOUS
10
5.965965275590551
20
-2.2995958267716534
11
5.9691577165354328
21
-2.2933302755905509
0
LINE
8
BLACK
6
CONTINUOUS
10
5.9691577165354328
20
-2.2933302755905509
11
5.9713307086614176
21
-2.2866424803149608
0
LINE
8
BLACK
6
CONTINUOUS
10
5.9713307086614176
20
-2.2866424803149608
11
5.9724307480314955
21
-2.2796970866141733
0
LINE
8
BLACK
6
CONTINUOUS
10
5.9724307480314955
20
-2.2796970866141733
11
5.9724307480314955
21
-2.2726651181102362
0
LINE
8
BLACK
6
CONTINUOUS
10
5.9724307480314955
20
-2.2726651181102362
11
5.9713307086614176
21
-2.2657197244094487
0
LINE
8
BLACK
6
CONTINUOUS
10
5.9713307086614176
20
-2.2657197244094487
11
5.9691577165354328
21
-2.2590319291338581
0
LINE
8
BLACK
6
CONTINUOUS
10
5.9691577165354328
20
-2.2590319291338581
11
5.965965275590551
21
-2.252766377952756
0
LINE
8
BLACK
6
CONTINUOUS
10
5.965965275590551
20
-2.252766377952756
11
5.9618319685039367
21
-2.2470774015748032
0
LINE
8
BLACK
6
CONTINUOUS
10
5.9618319685039367
20
-2.2470774015748032
11
5.9568596062992123
21
-2.2421050393700788
0
LINE
8
BLACK
6
CONTINUOUS
10
5.9568596062992123
20
-2.2421050393700788
11
5.9511706299212594
21
-2.2379717322834645
0
LINE
8
BLACK
6
CONTINUOUS
10
5.9511706299212594
20
-2.2379717322834645
11
5.9449050787401569
21
-2.2347792913385827
0
LINE
8
BLACK
6
CONTINUOUS
10
5.9449050787401569
20
-2.2347792913385827
11
5.9382172834645672
21
-2.2326062992125983
0
LINE
8
BLACK
6
CONTINUOUS
10
5.9382172834645672
20
-2.2326062992125983
11
5.9312718897637797
21
-2.2315062598425195
0
LINE
8
BLACK
6
CONTINUOUS
10
5.9312718897637797
20
-2.2315062598425195
11
5.9242399212598427
21
-2.2315062598425195
0
LINE
8
BLACK
6
CONTINUOUS
10
5.9242399212598427
20
-2.2315062598425195
11
5.9172945275590552
21
-2.2326062992125983
0
LINE
8
BLACK
6
CONTINUOUS
10
5.9172945275590552
20
-2.2326062992125983
11
5.9106067322834646
21
-2.2347792913385827
0
LINE
8
BLACK
6
CONTINUOUS
10
5.9106067322834646
20
-2.2347792913385827
11
5.9043411811023621
21
-2.2379717322834645
0
LINE
8
BLACK
6
CONTINUOUS
10
5.9043411811023621
20
-2.2379717322834645
11
5.8986522047244092
21
-2.2421050393700788
0
LINE
8
BLACK
6
CONTINUOUS
10
5.8986522047244092
20
-2.2421050393700788
11
5.8936798425196848
21
-2.2470774015748032
0
LINE
8
BLACK
6
CONTINUOUS
10
5.8936798425196848
20
-2.2470774015748032
11
5.8895465354330705
21
-2.252766377952756
0
LINE
8
BLACK
6
CONTINUOUS
10
5.8895465354330705
20
-2.252766377952756
11
5.8863540944881887
21
-2.2590319291338581
0
LINE
8
BLACK
6
CONTINUOUS
10
5.8863540944881887
20
-2.2590319291338581
11
5.8841811023622048
21
-2.2657197244094487
0
LINE
8
BLACK
6
CONTINUOUS
10
5.8841811023622048
20
-2.2657197244094487
11
5.883081062992126
21
-2.2726651181102362
0
LINE
8
BLACK
6
CONTINUOUS
10
5.883081062992126
20
-2.2726651181102362
11
5.883081062992126
21
-2.2796970866141733
0
LINE
8
BLACK
6
CONTINUOUS
10
2.434618031496063
20
-2.231199409448819
11
2.4415217716535431
21
-2.2334425984251967
0
LINE
8
BLACK
6
CONTINUOUS
10
2.4415217716535431
20
-2.2334425984251967
11
2.4479896062992124
21
-2.2367381102362205
0
LINE
8
BLACK
6
CONTINUOUS
10
2.4479896062992124
20
-2.2367381102362205
11
2.4538622440944882
21
-2.2410048425196849
0
LINE
8
BLACK
6
CONTINUOUS
10
2.4538622440944882
20
-2.2410048425196849
11
2.4589951574803148
21
-2.2461377559055116
0
LINE
8
BLACK
6
CONTINUOUS
10
2.4589951574803148
20
-2.2461377559055116
11
2.4632618897637797
21
-2.2520103937007874
0
LINE
8
BLACK
6
CONTINUOUS
10
2.4632618897637797
20
-2.2520103937007874
11
2.4665574015748031
21
-2.2584782283464566
0
LINE
8
BLACK
6
CONTINUOUS
10
2.4665574015748031
20
-2.2584782283464566
11
2.4688005905511812
21
-2.2653819685039371
0
LINE
8
BLACK
6
CONTINUOUS
10
2.4688005905511812
20
-2.2653819685039371
11
2.4699361417322834
21
-2.2725516141732283
0
LINE
8
BLACK
6
CONTINUOUS
10
2.4699361417322834
20
-2.2725516141732283
11
2.4699361417322834
21
-2.2798105905511812
0
LINE
8
BLACK
6
CONTINUOUS
10
2.4699361417322834
20
-2.2798105905511812
11
2.4688005905511812
21
-2.2869802362204723
0
LINE
8
BLACK
6
CONTINUOUS
10
2.4688005905511812
20
-2.2869802362204723
11
2.4665574015748031
21
-2.2938839763779528
0
LINE
8
BLACK
6
CONTINUOUS
10
2.4665574015748031
20
-2.2938839763779528
11
2.4632618897637797
21
-2.3003518110236221
0
LINE
8
BLACK
6
CONTINUOUS
10
2.4632618897637797
20
-2.3003518110236221
11
2.4589951574803148
21
-2.3062244488188974
0
LINE
8
BLACK
6
CONTINUOUS
10
2.4589951574803148
20
-2.3062244488188974
11
2.4538622440944882
21
-2.3113573622047245
0
LINE
8
BLACK
6
CONTINUOUS
10
2.4538622440944882
20
-2.3113573622047245
11
2.4479896062992124
21
-2.315624094488189
0
LINE
8
BLACK
6
CONTINUOUS
10
2.4479896062992124
20
-2.315624094488189
11
2.4415217716535431
21
-2.3189196062992123
0
LINE
8
BLACK
6
CONTINUOUS
10
2.4415217716535431
20
-2.3189196062992123
11
2.434618031496063
21
-2.3211627952755904
0
LINE
8
BLACK
6
CONTINUOUS
10
2.434618031496063
20
-2.3211627952755904
11
2.4274483858267715
21
-2.3222983464566926
0
LINE
8
BLACK
6
CONTINUOUS
10
2.4274483858267715
20
-2.3222983464566926
11
2.420189409448819
21
-2.3222983464566926
0
LINE
8
BLACK
6
CONTINUOUS
10
2.420189409448819
20
-2.3222983464566926
11
2.4130197637795274
21
-2.3211627952755904
0
LINE
8
BLACK
6
CONTINUOUS
10
2.4130197637795274
20
-2.3211627952755904
11
2.4061160236220474
21
-2.3189196062992123
0
LINE
8
BLACK
6
CONTINUOUS
10
2.4061160236220474
20
-2.3189196062992123
11
2.3996481889763781
21
-2.315624094488189
0
LINE
8
BLACK
6
CONTINUOUS
10
2.3996481889763781
20
-2.315624094488189
11
2.3937755511811023
21
-2.3113573622047245
0
LINE
8
BLACK
6
CONTINUOUS
10
2.3937755511811023
20
-2.3113573622047245
11
2.3886426377952756
21
-2.3062244488188974
0
LINE
8
BLACK
6
CONTINUOUS
10
2.3886426377952756
20
-2.3062244488188974
11
2.3843759055118108
21
-2.3003518110236221
0
LINE
8
BLACK
6
CONTINUOUS
10
2.3843759055118108
20
-2.3003518110236221
11
2.3810803937007874
21
-2.2938839763779528
0
LINE
8
BLACK
6
CONTINUOUS
10
2.3810803937007874
20
-2.2938839763779528
11
2.3788372047244093
21
-2.2869802362204723
0
LINE
8
BLACK
6
CONTINUOUS
10
2.3788372047244093
20
-2.2869802362204723
11
2.3777016535433071
21
-2.2798105905511812
0
LINE
8
BLACK
6
CONTINUOUS
10
2.3777016535433071
20
-2.2798105905511812
11
2.3777016535433071
21
-2.2726953149606297
0
LINE
8
BLACK
6
CONTINUOUS
10
2.3777016535433071
20
-2.2726953149606297
11
2.3777016535433071
21
-2.2725516141732283
0
LINE
8
BLACK
6
CONTINUOUS
10
2.3777016535433071
20
-2.2725516141732283
11
2.3788372047244093
21
-2.2653819685039371
0
LINE
8
BLACK
6
CONTINUOUS
10
2.3788372047244093
20
-2.2653819685039371
11
2.3810803937007874
21
-2.2584782283464566
0
LINE
8
BLACK
6
CONTINUOUS
10
2.3810803937007874
20
-2.2584782283464566
11
2.3843759055118108
21
-2.2520103937007874
0
LINE
8
BLACK
6
CONTINUOUS
10
2.3843759055118108
20
-2.2520103937007874
11
2.3886426377952756
21
-2.2461377559055116
0
LINE
8
BLACK
6
CONTINUOUS
10
2.3886426377952756
20
-2.2461377559055116
11
2.3937755511811023
21
-2.2410048425196849
0
LINE
8
BLACK
6
CONTINUOUS
10
2.3937755511811023
20
-2.2410048425196849
11
2.3996481889763781
21
-2.2367381102362205
0
LINE
8
BLACK
6
CONTINUOUS
10
2.3996481889763781
20
-2.2367381102362205
11
2.4061160236220474
21
-2.2334425984251967
0
LINE
8
BLACK
6
CONTINUOUS
10
2.4061160236220474
20
-2.2334425984251967
11
2.4130197637795274
21
-2.231199409448819
0
LINE
8
BLACK
6
CONTINUOUS
10
2.4130197637795274
20
-2.231199409448819
11
2.420189409448819
21
-2.2300638582677164
0
LINE
8
BLACK
6
CONTINUOUS
10
2.420189409448819
20
-2.2300638582677164
11
2.4274483858267715
21
-2.2300638582677164
0
LINE
8
BLACK
6
CONTINUOUS
10
2.4274483858267715
20
-2.2300638582677164
11
2.434618031496063
21
-2.231199409448819
0
LINE
8
BLACK
6
CONTINUOUS
10
2.3795275590551181
20
-2.2796668897637793
11
2.380618149606299
21
-2.2865526771653544
0
LINE
8
BLACK
6
CONTINUOUS
10
2.380618149606299
20
-2.2865526771653544
11
2.3827724803149604
21
-2.2931830708661418
0
LINE
8
BLACK
6
CONTINUOUS
10
2.3827724803149604
20
-2.2931830708661418
11
2.3859375196850392
21
-2.2993948425196851
0
LINE
8
BLACK
6
CONTINUOUS
10
2.3859375196850392
20
-2.2993948425196851
11
2.3900353543307085
21
-2.3050349606299214
0
LINE
8
BLACK
6
CONTINUOUS
10
2.3900353543307085
20
-2.3050349606299214
11
2.3949650393700788
21
-2.3099646456692913
0
LINE
8
BLACK
6
CONTINUOUS
10
2.3949650393700788
20
-2.3099646456692913
11
2.4006051574803151
21
-2.3140624803149605
0
LINE
8
BLACK
6
CONTINUOUS
10
2.4006051574803151
20
-2.3140624803149605
11
2.4068169291338584
21
-2.3172275196850394
0
LINE
8
BLACK
6
CONTINUOUS
10
2.4068169291338584
20
-2.3172275196850394
11
2.4134473228346458
21
-2.3193818503937007
0
LINE
8
BLACK
6
CONTINUOUS
10
2.4134473228346458
20
-2.3193818503937007
11
2.4203331102362204
21
-2.320472440944882
0
LINE
8
BLACK
6
CONTINUOUS
10
2.4203331102362204
20
-2.320472440944882
11
2.42730468503937
21
-2.320472440944882
0
LINE
8
BLACK
6
CONTINUOUS
10
2.42730468503937
20
-2.320472440944882
11
2.4341904724409447
21
-2.3193818503937007
0
LINE
8
BLACK
6
CONTINUOUS
10
2.4341904724409447
20
-2.3193818503937007
11
2.4408208661417321
21
-2.3172275196850394
0
LINE
8
BLACK
6
CONTINUOUS
10
2.4408208661417321
20
-2.3172275196850394
11
2.4470326377952754
21
-2.3140624803149605
0
LINE
8
BLACK
6
CONTINUOUS
10
2.4470326377952754
20
-2.3140624803149605
11
2.4526727559055117
21
-2.3099646456692913
0
LINE
8
BLACK
6
CONTINUOUS
10
2.4526727559055117
20
-2.3099646456692913
11
2.457602440944882
21
-2.3050349606299214
0
LINE
8
BLACK
6
CONTINUOUS
10
2.457602440944882
20
-2.3050349606299214
11
2.4617002755905513
21
-2.2993948425196851
0
LINE
8
BLACK
6
CONTINUOUS
10
2.4617002755905513
20
-2.2993948425196851
11
2.4648653149606297
21
-2.2931830708661418
0
LINE
8
BLACK
6
CONTINUOUS
10
2.4648653149606297
20
-2.2931830708661418
11
2.4670196456692914
21
-2.2865526771653544
0
LINE
8
BLACK
6
CONTINUOUS
10
2.4670196456692914
20
-2.2865526771653544
11
2.4681102362204723
21
-2.2796668897637793
0
LINE
8
BLACK
6
CONTINUOUS
10
2.4681102362204723
20
-2.2796668897637793
11
2.4681102362204723
21
-2.2726953149606297
0
LINE
8
BLACK
6
CONTINUOUS
10
2.4681102362204723
20
-2.2726953149606297
11
2.4670196456692914
21
-2.2658095275590551
0
LINE
8
BLACK
6
CONTINUOUS
10
2.4670196456692914
20
-2.2658095275590551
11
2.4648653149606297
21
-2.2591791338582676
0
LINE
8
BLACK
6
CONTINUOUS
10
2.4648653149606297
20
-2.2591791338582676
11
2.4617002755905513
21
-2.2529673622047244
0
LINE
8
BLACK
6
CONTINUOUS
10
2.4617002755905513
20
-2.2529673622047244
11
2.457602440944882
21
-2.247327244094488
0
LINE
8
BLACK
6
CONTINUOUS
10
2.457602440944882
20
-2.247327244094488
11
2.4526727559055117
21
-2.2423975590551182
0
LINE
8
BLACK
6
CONTINUOUS
10
2.4526727559055117
20
-2.2423975590551182
11
2.4470326377952754
21
-2.2382997244094489
0
LINE
8
BLACK
6
CONTINUOUS
10
2.4470326377952754
20
-2.2382997244094489
11
2.4408208661417321
21
-2.2351346850393701
0
LINE
8
BLACK
6
CONTINUOUS
10
2.4408208661417321
20
-2.2351346850393701
11
2.4341904724409447
21
-2.2329803543307087
0
LINE
8
BLACK
6
CONTINUOUS
10
2.4341904724409447
20
-2.2329803543307087
11
2.42730468503937
21
-2.2318897637795274
0
LINE
8
BLACK
6
CONTINUOUS
10
2.42730468503937
20
-2.2318897637795274
11
2.4203331102362204
21
-2.2318897637795274
0
LINE
8
BLACK
6
CONTINUOUS
10
2.4203331102362204
20
-2.2318897637795274
11
2.4134473228346458
21
-2.2329803543307087
0
LINE
8
BLACK
6
CONTINUOUS
10
2.4134473228346458
20
-2.2329803543307087
11
2.4068169291338584
21
-2.2351346850393701
0
LINE
8
BLACK
6
CONTINUOUS
10
2.4068169291338584
20
-2.2351346850393701
11
2.4006051574803151
21
-2.2382997244094489
0
LINE
8
BLACK
6
CONTINUOUS
10
2.4006051574803151
20
-2.2382997244094489
11
2.3949650393700788
21
-2.2423975590551182
0
LINE
8
BLACK
6
CONTINUOUS
10
2.3949650393700788
20
-2.2423975590551182
11
2.3900353543307085
21
-2.247327244094488
0
LINE
8
BLACK
6
CONTINUOUS
10
2.3900353543307085
20
-2.247327244094488
11
2.3859375196850392
21
-2.2529673622047244
0
LINE
8
BLACK
6
CONTINUOUS
10
2.3859375196850392
20
-2.2529673622047244
11
2.3827724803149604
21
-2.2591791338582676
0
LINE
8
BLACK
6
CONTINUOUS
10
2.3827724803149604
20
-2.2591791338582676
11
2.380618149606299
21
-2.2658095275590551
0
LINE
8
BLACK
6
CONTINUOUS
10
2.380618149606299
20
-2.2658095275590551
11
2.3795275590551181
21
-2.2726953149606297
0
LINE
8
BLACK
6
CONTINUOUS
10
2.3795275590551181
20
-2.2726953149606297
11
2.3795275590551181
21
-2.2796668897637793
0
LINE
8
BLACK
6
CONTINUOUS
10
2.2402853543307084
20
-2.0222249606299214
11
2.2489099212598425
21
-2.0245359055118111
0
LINE
8
BLACK
6
CONTINUOUS
10
2.2489099212598425
20
-2.0245359055118111
11
2.257159094488189
21
-2.0279527952755907
0
LINE
8
BLACK
6
CONTINUOUS
10
2.257159094488189
20
-2.0279527952755907
11
2.264891653543307
21
-2.0324172047244096
0
LINE
8
BLACK
6
CONTINUOUS
10
2.264891653543307
20
-2.0324172047244096
11
2.2719753543307086
21
-2.0378527165354332
0
LINE
8
BLACK
6
CONTINUOUS
10
2.2719753543307086
20
-2.0378527165354332
11
2.2782890157480313
21
-2.0441663779527559
0
LINE
8
BLACK
6
CONTINUOUS
10
2.2782890157480313
20
-2.0441663779527559
11
2.283724527559055
21
-2.0512500787401575
0
LINE
8
BLACK
6
CONTINUOUS
10
2.283724527559055
20
-2.0512500787401575
11
2.2881889370078738
21
-2.0589826377952756
0
LINE
8
BLACK
6
CONTINUOUS
10
2.2881889370078738
20
-2.0589826377952756
11
2.2916058267716535
21
-2.0672318110236221
0
LINE
8
BLACK
6
CONTINUOUS
10
2.2916058267716535
20
-2.0672318110236221
11
2.2939167716535431
21
-2.0758563779527557
0
LINE
8
BLACK
6
CONTINUOUS
10
2.2939167716535431
20
-2.0758563779527557
11
2.295082244094488
21
-2.0847088188976377
0
LINE
8
BLACK
6
CONTINUOUS
10
2.295082244094488
20
-2.0847088188976377
11
2.295082244094488
21
-2.0936376377952755
0
LINE
8
BLACK
6
CONTINUOUS
10
2.295082244094488
20
-2.0936376377952755
11
2.2939167716535431
21
-2.1024900787401575
0
LINE
8
BLACK
6
CONTINUOUS
10
2.2939167716535431
20
-2.1024900787401575
11
2.2916058267716535
21
-2.1111146456692911
0
LINE
8
BLACK
6
CONTINUOUS
10
2.2916058267716535
20
-2.1111146456692911
11
2.2881889370078738
21
-2.1193638188976376
0
LINE
8
BLACK
6
CONTINUOUS
10
2.2881889370078738
20
-2.1193638188976376
11
2.283724527559055
21
-2.1270963779527561
0
LINE
8
BLACK
6
CONTINUOUS
10
2.283724527559055
20
-2.1270963779527561
11
2.2782890157480313
21
-2.1341800787401572
0
LINE
8
BLACK
6
CONTINUOUS
10
2.2782890157480313
20
-2.1341800787401572
11
2.2719753543307086
21
-2.1404937401574804
0
LINE
8
BLACK
6
CONTINUOUS
10
2.2719753543307086
20
-2.1404937401574804
11
2.264891653543307
21
-2.145929251968504
0
LINE
8
BLACK
6
CONTINUOUS
10
2.264891653543307
20
-2.145929251968504
11
2.257159094488189
21
-2.1503936614173229
0
LINE
8
BLACK
6
CONTINUOUS
10
2.257159094488189
20
-2.1503936614173229
11
2.2489099212598425
21
-2.1538105511811021
0
LINE
8
BLACK
6
CONTINUOUS
10
2.2489099212598425
20
-2.1538105511811021
11
2.2402853543307084
21
-2.1561214960629922
0
LINE
8
BLACK
6
CONTINUOUS
10
2.2402853543307084
20
-2.1561214960629922
11
2.2314329133858268
21
-2.1572869685039371
0
LINE
8
BLACK
6
CONTINUOUS
10
2.2314329133858268
20
-2.1572869685039371
11
2.2225040944881891
21
-2.1572869685039371
0
LINE
8
BLACK
6
CONTINUOUS
10
2.2225040944881891
20
-2.1572869685039371
11
2.2136516535433071
21
-2.1561214960629922
0
LINE
8
BLACK
6
CONTINUOUS
10
2.2136516535433071
20
-2.1561214960629922
11
2.205027086614173
21
-2.1538105511811021
0
LINE
8
BLACK
6
CONTINUOUS
10
2.205027086614173
20
-2.1538105511811021
11
2.1967779133858265
21
-2.1503936614173229
0
LINE
8
BLACK
6
CONTINUOUS
10
2.1967779133858265
20
-2.1503936614173229
11
2.1890453543307085
21
-2.145929251968504
0
LINE
8
BLACK
6
CONTINUOUS
10
2.1890453543307085
20
-2.145929251968504
11
2.1819616535433068
21
-2.1404937401574804
0
LINE
8
BLACK
6
CONTINUOUS
10
2.1819616535433068
20
-2.1404937401574804
11
2.1756479921259841
21
-2.1341800787401572
0
LINE
8
BLACK
6
CONTINUOUS
10
2.1756479921259841
20
-2.1341800787401572
11
2.1702124803149605
21
-2.1270963779527561
0
LINE
8
BLACK
6
CONTINUOUS
10
2.1702124803149605
20
-2.1270963779527561
11
2.1657480708661416
21
-2.1193638188976376
0
LINE
8
BLACK
6
CONTINUOUS
10
2.1657480708661416
20
-2.1193638188976376
11
2.162331181102362
21
-2.1111146456692911
0
LINE
8
BLACK
6
CONTINUOUS
10
2.162331181102362
20
-2.1111146456692911
11
2.1600202362204723
21
-2.1024900787401575
0
LINE
8
BLACK
6
CONTINUOUS
10
2.1600202362204723
20
-2.1024900787401575
11
2.1588547637795275
21
-2.0936376377952755
0
LINE
8
BLACK
6
CONTINUOUS
10
2.1588547637795275
20
-2.0936376377952755
11
2.1588547637795275
21
-2.0848282677165355
0
LINE
8
BLACK
6
CONTINUOUS
10
2.1588547637795275
20
-2.0848282677165355
11
2.1588547637795275
21
-2.0847088188976377
0
LINE
8
BLACK
6
CONTINUOUS
10
2.1588547637795275
20
-2.0847088188976377
11
2.1600202362204723
21
-2.0758563779527557
0
LINE
8
BLACK
6
CONTINUOUS
10
2.1600202362204723
20
-2.0758563779527557
11
2.162331181102362
21
-2.0672318110236221
0
LINE
8
BLACK
6
CONTINUOUS
10
2.162331181102362
20
-2.0672318110236221
11
2.1657480708661416
21
-2.0589826377952756
0
LINE
8
BLACK
6
CONTINUOUS
10
2.1657480708661416
20
-2.0589826377952756
11
2.1702124803149605
21
-2.0512500787401575
0
LINE
8
BLACK
6
CONTINUOUS
10
2.1702124803149605
20
-2.0512500787401575
11
2.1756479921259841
21
-2.0441663779527559
0
LINE
8
BLACK
6
CONTINUOUS
10
2.1756479921259841
20
-2.0441663779527559
11
2.1819616535433068
21
-2.0378527165354332
0
LINE
8
BLACK
6
CONTINUOUS
10
2.1819616535433068
20
-2.0378527165354332
11
2.1890453543307085
21
-2.0324172047244096
0
LINE
8
BLACK
6
CONTINUOUS
10
2.1890453543307085
20
-2.0324172047244096
11
2.1967779133858265
21
-2.0279527952755907
0
LINE
8
BLACK
6
CONTINUOUS
10
2.1967779133858265
20
-2.0279527952755907
11
2.205027086614173
21
-2.0245359055118111
0
LINE
8
BLACK
6
CONTINUOUS
10
2.205027086614173
20
-2.0245359055118111
11
2.2136516535433071
21
-2.0222249606299214
0
LINE
8
BLACK
6
CONTINUOUS
10
2.2136516535433071
20
-2.0222249606299214
11
2.2225040944881891
21
-2.0210594881889765
0
LINE
8
BLACK
6
CONTINUOUS
10
2.2225040944881891
20
-2.0210594881889765
11
2.2314329133858268
21
-2.0210594881889765
0
LINE
8
BLACK
6
CONTINUOUS
10
2.2314329133858268
20
-2.0210594881889765
11
2.2402853543307084
21
-2.0222249606299214
0
LINE
8
BLACK
6
CONTINUOUS
10
2.1606771259842521
20
-2.0935181889763781
11
2.1618113779527559
21
-2.1021337795275592
0
LINE
8
BLACK
6
CONTINUOUS
10
2.1618113779527559
20
-2.1021337795275592
11
2.1640605118110234
21
-2.1105275984251968
0
LINE
8
BLACK
6
CONTINUOUS
10
2.1640605118110234
20
-2.1105275984251968
11
2.1673859842519683
21
-2.1185560629921261
0
LINE
8
BLACK
6
CONTINUOUS
10
2.1673859842519683
20
-2.1185560629921261
11
2.1717309842519685
21
-2.1260817716535434
0
LINE
8
BLACK
6
CONTINUOUS
10
2.1717309842519685
20
-2.1260817716535434
11
2.1770210629921261
21
-2.1329759448818897
0
LINE
8
BLACK
6
CONTINUOUS
10
2.1770210629921261
20
-2.1329759448818897
11
2.1831657874015749
21
-2.1391206692913385
0
LINE
8
BLACK
6
CONTINUOUS
10
2.1831657874015749
20
-2.1391206692913385
11
2.1900599606299211
21
-2.144410748031496
0
LINE
8
BLACK
6
CONTINUOUS
10
2.1900599606299211
20
-2.144410748031496
11
2.1975856692913385
21
-2.1487557480314958
0
LINE
8
BLACK
6
CONTINUOUS
10
2.1975856692913385
20
-2.1487557480314958
11
2.2056141338582678
21
-2.1520812204724411
0
LINE
8
BLACK
6
CONTINUOUS
10
2.2056141338582678
20
-2.1520812204724411
11
2.2140079527559053
21
-2.1543303543307086
0
LINE
8
BLACK
6
CONTINUOUS
10
2.2140079527559053
20
-2.1543303543307086
11
2.2226235433070864
21
-2.1554646062992124
0
LINE
8
BLACK
6
CONTINUOUS
10
2.2226235433070864
20
-2.1554646062992124
11
2.231313464566929
21
-2.1554646062992124
0
LINE
8
BLACK
6
CONTINUOUS
10
2.231313464566929
20
-2.1554646062992124
11
2.2399290551181101
21
-2.1543303543307086
0
LINE
8
BLACK
6
CONTINUOUS
10
2.2399290551181101
20
-2.1543303543307086
11
2.2483228740157482
21
-2.1520812204724411
0
LINE
8
BLACK
6
CONTINUOUS
10
2.2483228740157482
20
-2.1520812204724411
11
2.256351338582677
21
-2.1487557480314958
0
LINE
8
BLACK
6
CONTINUOUS
10
2.256351338582677
20
-2.1487557480314958
11
2.2638770472440943
21
-2.144410748031496
0
LINE
8
BLACK
6
CONTINUOUS
10
2.2638770472440943
20
-2.144410748031496
11
2.2707712204724411
21
-2.1391206692913385
0
LINE
8
BLACK
6
CONTINUOUS
10
2.2707712204724411
20
-2.1391206692913385
11
2.2769159448818899
21
-2.1329759448818897
0
LINE
8
BLACK
6
CONTINUOUS
10
2.2769159448818899
20
-2.1329759448818897
11
2.2822060236220474
21
-2.1260817716535434
0
LINE
8
BLACK
6
CONTINUOUS
10
2.2822060236220474
20
-2.1260817716535434
11
2.2865510236220472
21
-2.1185560629921261
0
LINE
8
BLACK
6
CONTINUOUS
10
2.2865510236220472
20
-2.1185560629921261
11
2.289876496062992
21
-2.1105275984251968
0
LINE
8
BLACK
6
CONTINUOUS
10
2.289876496062992
20
-2.1105275984251968
11
2.29212562992126
21
-2.1021337795275592
0
LINE
8
BLACK
6
CONTINUOUS
10
2.29212562992126
20
-2.1021337795275592
11
2.2932598818897638
21
-2.0935181889763781
0
LINE
8
BLACK
6
CONTINUOUS
10
2.2932598818897638
20
-2.0935181889763781
11
2.2932598818897638
21
-2.0848282677165355
0
LINE
8
BLACK
6
CONTINUOUS
10
2.2932598818897638
20
-2.0848282677165355
11
2.29212562992126
21
-2.0762126771653544
0
LINE
8
BLACK
6
CONTINUOUS
10
2.29212562992126
20
-2.0762126771653544
11
2.289876496062992
21
-2.0678188582677164
0
LINE
8
BLACK
6
CONTINUOUS
10
2.289876496062992
20
-2.0678188582677164
11
2.2865510236220472
21
-2.0597903937007875
0
LINE
8
BLACK
6
CONTINUOUS
10
2.2865510236220472
20
-2.0597903937007875
11
2.2822060236220474
21
-2.0522646850393702
0
LINE
8
BLACK
6
CONTINUOUS
10
2.2822060236220474
20
-2.0522646850393702
11
2.2769159448818899
21
-2.0453705118110235
0
LINE
8
BLACK
6
CONTINUOUS
10
2.2769159448818899
20
-2.0453705118110235
11
2.2707712204724411
21
-2.0392257874015747
0
LINE
8
BLACK
6
CONTINUOUS
10
2.2707712204724411
20
-2.0392257874015747
11
2.2638770472440943
21
-2.0339357086614172
0
LINE
8
BLACK
6
CONTINUOUS
10
2.2638770472440943
20
-2.0339357086614172
11
2.256351338582677
21
-2.0295907086614173
0
LINE
8
BLACK
6
CONTINUOUS
10
2.256351338582677
20
-2.0295907086614173
11
2.2483228740157482
21
-2.0262652362204725
0
LINE
8
BLACK
6
CONTINUOUS
10
2.2483228740157482
20
-2.0262652362204725
11
2.2399290551181101
21
-2.0240161023622045
0
LINE
8
BLACK
6
CONTINUOUS
10
2.2399290551181101
20
-2.0240161023622045
11
2.231313464566929
21
-2.0228818503937007
0
LINE
8
BLACK
6
CONTINUOUS
10
2.231313464566929
20
-2.0228818503937007
11
2.2226235433070864
21
-2.0228818503937007
0
LINE
8
BLACK
6
CONTINUOUS
10
2.2226235433070864
20
-2.0228818503937007
11
2.2140079527559053
21
-2.0240161023622045
0
LINE
8
BLACK
6
CONTINUOUS
10
2.2140079527559053
20
-2.0240161023622045
11
2.2056141338582678
21
-2.0262652362204725
0
LINE
8
BLACK
6
CONTINUOUS
10
2.2056141338582678
20
-2.0262652362204725
11
2.1975856692913385
21
-2.0295907086614173
0
LINE
8
BLACK
6
CONTINUOUS
10
2.1975856692913385
20
-2.0295907086614173
11
2.1900599606299211
21
-2.0339357086614172
0
LINE
8
BLACK
6
CONTINUOUS
10
2.1900599606299211
20
-2.0339357086614172
11
2.1831657874015749
21
-2.0392257874015747
0
LINE
8
BLACK
6
CONTINUOUS
10
2.1831657874015749
20
-2.0392257874015747
11
2.1770210629921261
21
-2.0453705118110235
0
LINE
8
BLACK
6
CONTINUOUS
10
2.1770210629921261
20
-2.0453705118110235
11
2.1717309842519685
21
-2.0522646850393702
0
LINE
8
BLACK
6
CONTINUOUS
10
2.1717309842519685
20
-2.0522646850393702
11
2.1673859842519683
21
-2.0597903937007875
0
LINE
8
BLACK
6
CONTINUOUS
10
2.1673859842519683
20
-2.0597903937007875
11
2.1640605118110234
21
-2.0678188582677164
0
LINE
8
BLACK
6
CONTINUOUS
10
2.1640605118110234
20
-2.0678188582677164
11
2.1618113779527559
21
-2.0762126771653544
0
LINE
8
BLACK
6
CONTINUOUS
10
2.1618113779527559
20
-2.0762126771653544
11
2.1606771259842521
21
-2.0848282677165355
0
LINE
8
BLACK
6
CONTINUOUS
10
2.1606771259842521
20
-2.0848282677165355
11
2.1606771259842521
21
-2.0935181889763781
0
LINE
8
BLACK
6
CONTINUOUS
10
6.1395412992125982
20
-2.0269645275590551
11
6.1490890157480314
21
-2.0300667716535434
0
LINE
8
BLACK
6
CONTINUOUS
10
6.1490890157480314
20
-2.0300667716535434
11
6.1580338582677161
21
-2.0346244094488188
0
LINE
8
BLACK
6
CONTINUOUS
10
6.1580338582677161
20
-2.0346244094488188
11
6.1661556299212599
21
-2.0405251968503935
0
LINE
8
BLACK
6
CONTINUOUS
10
6.1661556299212599
20
-2.0405251968503935
11
6.1732543307086614
21
-2.0476238976377954
0
LINE
8
BLACK
6
CONTINUOUS
10
6.1732543307086614
20
-2.0476238976377954
11
6.179155118110236
21
-2.0557456692913387
0
LINE
8
BLACK
6
CONTINUOUS
10
6.179155118110236
20
-2.0557456692913387
11
6.1837127559055114
21
-2.0646905118110235
0
LINE
8
BLACK
6
CONTINUOUS
10
6.1837127559055114
20
-2.0646905118110235
11
6.1868150000000002
21
-2.0742382283464567
0
LINE
8
BLACK
6
CONTINUOUS
10
6.1868150000000002
20
-2.0742382283464567
11
6.1883854724409444
21
-2.0841537007874016
0
LINE
8
BLACK
6
CONTINUOUS
10
6.1883854724409444
20
-2.0841537007874016
11
6.1883854724409444
21
-2.0941927559055116
0
LINE
8
BLACK
6
CONTINUOUS
10
6.1883854724409444
20
-2.0941927559055116
11
6.1868150000000002
21
-2.1041082283464565
0
LINE
8
BLACK
6
CONTINUOUS
10
6.1868150000000002
20
-2.1041082283464565
11
6.1837127559055114
21
-2.1136559448818897
0
LINE
8
BLACK
6
CONTINUOUS
10
6.1837127559055114
20
-2.1136559448818897
11
6.179155118110236
21
-2.1226007874015749
0
LINE
8
BLACK
6
CONTINUOUS
10
6.179155118110236
20
-2.1226007874015749
11
6.1732543307086614
21
-2.1307225590551182
0
LINE
8
BLACK
6
CONTINUOUS
10
6.1732543307086614
20
-2.1307225590551182
11
6.1661556299212599
21
-2.1378212598425197
0
LINE
8
BLACK
6
CONTINUOUS
10
6.1661556299212599
20
-2.1378212598425197
11
6.1580338582677161
21
-2.1437220472440943
0
LINE
8
BLACK
6
CONTINUOUS
10
6.1580338582677161
20
-2.1437220472440943
11
6.1490890157480314
21
-2.1482796850393702
0
LINE
8
BLACK
6
CONTINUOUS
10
6.1490890157480314
20
-2.1482796850393702
11
6.1395412992125982
21
-2.1513819291338581
0
LINE
8
BLACK
6
CONTINUOUS
10
6.1395412992125982
20
-2.1513819291338581
11
6.1296258267716537
21
-2.1529524015748032
0
LINE
8
BLACK
6
CONTINUOUS
10
6.1296258267716537
20
-2.1529524015748032
11
6.1195867716535428
21
-2.1529524015748032
0
LINE
8
BLACK
6
CONTINUOUS
10
6.1195867716535428
20
-2.1529524015748032
11
6.1096712992125983
21
-2.1513819291338581
0
LINE
8
BLACK
6
CONTINUOUS
10
6.1096712992125983
20
-2.1513819291338581
11
6.1001235826771651
21
-2.1482796850393702
0
LINE
8
BLACK
6
CONTINUOUS
10
6.1001235826771651
20
-2.1482796850393702
11
6.0911787401574804
21
-2.1437220472440943
0
LINE
8
BLACK
6
CONTINUOUS
10
6.0911787401574804
20
-2.1437220472440943
11
6.0830569685039366
21
-2.1378212598425197
0
LINE
8
BLACK
6
CONTINUOUS
10
6.0830569685039366
20
-2.1378212598425197
11
6.0759582677165351
21
-2.1307225590551182
0
LINE
8
BLACK
6
CONTINUOUS
10
6.0759582677165351
20
-2.1307225590551182
11
6.0700574803149605
21
-2.1226007874015749
0
LINE
8
BLACK
6
CONTINUOUS
10
6.0700574803149605
20
-2.1226007874015749
11
6.0654998425196851
21
-2.1136559448818897
0
LINE
8
BLACK
6
CONTINUOUS
10
6.0654998425196851
20
-2.1136559448818897
11
6.0623975984251963
21
-2.1041082283464565
0
LINE
8
BLACK
6
CONTINUOUS
10
6.0623975984251963
20
-2.1041082283464565
11
6.0608271259842521
21
-2.0941927559055116
0
LINE
8
BLACK
6
CONTINUOUS
10
6.0608271259842521
20
-2.0941927559055116
11
6.0608271259842521
21
-2.0842931102362203
0
LINE
8
BLACK
6
CONTINUOUS
10
6.0608271259842521
20
-2.0842931102362203
11
6.0608271259842521
21
-2.0841537007874016
0
LINE
8
BLACK
6
CONTINUOUS
10
6.0608271259842521
20
-2.0841537007874016
11
6.0623975984251963
21
-2.0742382283464567
0
LINE
8
BLACK
6
CONTINUOUS
10
6.0623975984251963
20
-2.0742382283464567
11
6.0654998425196851
21
-2.0646905118110235
0
LINE
8
BLACK
6
CONTINUOUS
10
6.0654998425196851
20
-2.0646905118110235
11
6.0700574803149605
21
-2.0557456692913387
0
LINE
8
BLACK
6
CONTINUOUS
10
6.0700574803149605
20
-2.0557456692913387
11
6.0759582677165351
21
-2.0476238976377954
0
LINE
8
BLACK
6
CONTINUOUS
10
6.0759582677165351
20
-2.0476238976377954
11
6.0830569685039366
21
-2.0405251968503935
0
LINE
8
BLACK
6
CONTINUOUS
10
6.0830569685039366
20
-2.0405251968503935
11
6.0911787401574804
21
-2.0346244094488188
0
LINE
8
BLACK
6
CONTINUOUS
10
6.0911787401574804
20
-2.0346244094488188
11
6.1001235826771651
21
-2.0300667716535434
0
LINE
8
BLACK
6
CONTINUOUS
10
6.1001235826771651
20
-2.0300667716535434
11
6.1096712992125983
21
-2.0269645275590551
0
LINE
8
BLACK
6
CONTINUOUS
10
6.1096712992125983
20
-2.0269645275590551
11
6.1195867716535428
21
-2.02539405511811
0
LINE
8
BLACK
6
CONTINUOUS
10
6.1195867716535428
20
-2.02539405511811
11
6.1296258267716537
21
-2.02539405511811
0
LINE
8
BLACK
6
CONTINUOUS
10
6.1296258267716537
20
-2.02539405511811
11
6.1395412992125982
21
-2.0269645275590551
0
LINE
8
BLACK
6
CONTINUOUS
10
6.0625984251968505
20
-2.0940533464566928
11
6.064125275590551
21
-2.1036934251968504
0
LINE
8
BLACK
6
CONTINUOUS
10
6.064125275590551
20
-2.1036934251968504
11
6.0671413385826769
21
-2.1129759842519684
0
LINE
8
BLACK
6
CONTINUOUS
10
6.0671413385826769
20
-2.1129759842519684
11
6.0715724015748034
21
-2.1216724409448817
0
LINE
8
BLACK
6
CONTINUOUS
10
6.0715724015748034
20
-2.1216724409448817
11
6.077309330708661
21
-2.1295686220472438
0
LINE
8
BLACK
6
CONTINUOUS
10
6.077309330708661
20
-2.1295686220472438
11
6.084210905511811
21
-2.1364701968503939
0
LINE
8
BLACK
6
CONTINUOUS
10
6.084210905511811
20
-2.1364701968503939
11
6.0921070866141731
21
-2.1422071259842519
0
LINE
8
BLACK
6
CONTINUOUS
10
6.0921070866141731
20
-2.1422071259842519
11
6.1008035433070864
21
-2.1466381889763779
0
LINE
8
BLACK
6
CONTINUOUS
10
6.1008035433070864
20
-2.1466381889763779
11
6.1100861023622048
21
-2.1496542519685038
0
LINE
8
BLACK
6
CONTINUOUS
10
6.1100861023622048
20
-2.1496542519685038
11
6.1197261811023624
21
-2.1511811023622047
0
LINE
8
BLACK
6
CONTINUOUS
10
6.1197261811023624
20
-2.1511811023622047
11
6.1294864173228349
21
-2.1511811023622047
0
LINE
8
BLACK
6
CONTINUOUS
10
6.1294864173228349
20
-2.1511811023622047
11
6.1391264960629917
21
-2.1496542519685038
0
LINE
8
BLACK
6
CONTINUOUS
10
6.1391264960629917
20
-2.1496542519685038
11
6.1484090551181101
21
-2.1466381889763779
0
LINE
8
BLACK
6
CONTINUOUS
10
6.1484090551181101
20
-2.1466381889763779
11
6.1571055118110234
21
-2.1422071259842519
0
LINE
8
BLACK
6
CONTINUOUS
10
6.1571055118110234
20
-2.1422071259842519
11
6.1650016929133855
21
-2.1364701968503939
0
LINE
8
BLACK
6
CONTINUOUS
10
6.1650016929133855
20
-2.1364701968503939
11
6.1719032677165355
21
-2.1295686220472438
0
LINE
8
BLACK
6
CONTINUOUS
10
6.1719032677165355
20
-2.1295686220472438
11
6.1776401968503931
21
-2.1216724409448817
0
LINE
8
BLACK
6
CONTINUOUS
10
6.1776401968503931
20
-2.1216724409448817
11
6.1820712598425196
21
-2.1129759842519684
0
LINE
8
BLACK
6
CONTINUOUS
10
6.1820712598425196
20
-2.1129759842519684
11
6.1850873228346455
21
-2.1036934251968504
0
LINE
8
BLACK
6
CONTINUOUS
10
6.1850873228346455
20
-2.1036934251968504
11
6.1866141732283459
21
-2.0940533464566928
0
LINE
8
BLACK
6
CONTINUOUS
10
6.1866141732283459
20
-2.0940533464566928
11
6.1866141732283459
21
-2.0842931102362203
0
LINE
8
BLACK
6
CONTINUOUS
10
6.1866141732283459
20
-2.0842931102362203
11
6.1850873228346455
21
-2.0746530314960627
0
LINE
8
BLACK
6
CONTINUOUS
10
6.1850873228346455
20
-2.0746530314960627
11
6.1820712598425196
21
-2.0653704724409447
0
LINE
8
BLACK
6
CONTINUOUS
10
6.1820712598425196
20
-2.0653704724409447
11
6.1776401968503931
21
-2.0566740157480314
0
LINE
8
BLACK
6
CONTINUOUS
10
6.1776401968503931
20
-2.0566740157480314
11
6.1719032677165355
21
-2.0487778346456693
0
LINE
8
BLACK
6
CONTINUOUS
10
6.1719032677165355
20
-2.0487778346456693
11
6.1650016929133855
21
-2.0418762598425197
0
LINE
8
BLACK
6
CONTINUOUS
10
6.1650016929133855
20
-2.0418762598425197
11
6.1571055118110234
21
-2.0361393307086613
0
LINE
8
BLACK
6
CONTINUOUS
10
6.1571055118110234
20
-2.0361393307086613
11
6.1484090551181101
21
-2.0317082677165352
0
LINE
8
BLACK
6
CONTINUOUS
10
6.1484090551181101
20
-2.0317082677165352
11
6.1391264960629917
21
-2.0286922047244094
0
LINE
8
BLACK
6
CONTINUOUS
10
6.1391264960629917
20
-2.0286922047244094
11
6.1294864173228349
21
-2.0271653543307084
0
LINE
8
BLACK
6
CONTINUOUS
10
6.1294864173228349
20
-2.0271653543307084
11
6.1197261811023624
21
-2.0271653543307084
0
LINE
8
BLACK
6
CONTINUOUS
10
6.1197261811023624
20
-2.0271653543307084
11
6.1100861023622048
21
-2.0286922047244094
0
LINE
8
BLACK
6
CONTINUOUS
10
6.1100861023622048
20
-2.0286922047244094
11
6.1008035433070864
21
-2.0317082677165352
0
LINE
8
BLACK
6
CONTINUOUS
10
6.1008035433070864
20
-2.0317082677165352
11
6.0921070866141731
21
-2.0361393307086613
0
LINE
8
BLACK
6
CONTINUOUS
10
6.0921070866141731
20
-2.0361393307086613
11
6.084210905511811
21
-2.0418762598425197
0
LINE
8
BLACK
6
CONTINUOUS
10
6.084210905511811
20
-2.0418762598425197
11
6.077309330708661
21
-2.0487778346456693
0
LINE
8
BLACK
6
CONTINUOUS
10
6.077309330708661
20
-2.0487778346456693
11
6.0715724015748034
21
-2.0566740157480314
0
LINE
8
BLACK
6
CONTINUOUS
10
6.0715724015748034
20
-2.0566740157480314
11
6.0671413385826769
21
-2.0653704724409447
0
LINE
8
BLACK
6
CONTINUOUS
10
6.0671413385826769
20
-2.0653704724409447
11
6.064125275590551
21
-2.0746530314960627
0
LINE
8
BLACK
6
CONTINUOUS
10
6.064125275590551
20
-2.0746530314960627
11
6.0625984251968505
21
-2.0842931102362203
0
LINE
8
BLACK
6
CONTINUOUS
10
6.0625984251968505
20
-2.0842931102362203
11
6.0625984251968505
21
-2.0940533464566928
0
LINE
8
BLACK
6
CONTINUOUS
10
6.1639763779527561
20
-1.9700787401574802
11
6.1743825196850395
21
-1.9707607874015747
0
LINE
8
BLACK
6
CONTINUOUS
10
6.1743825196850395
20
-1.9707607874015747
11
6.1846105905511806
21
-1.9727952755905511
0
LINE
8
BLACK
6
CONTINUOUS
10
6.1846105905511806
20
-1.9727952755905511
11
6.1944855905511806
21
-1.9761474015748031
0
LINE
8
BLACK
6
CONTINUOUS
10
6.1944855905511806
20
-1.9761474015748031
11
6.2038385826771654
21
-1.9807598031496063
0
LINE
8
BLACK
6
CONTINUOUS
10
6.2038385826771654
20
-1.9807598031496063
11
6.2125095275590549
21
-1.9865535039370079
0
LINE
8
BLACK
6
CONTINUOUS
10
6.2125095275590549
20
-1.9865535039370079
11
6.2203500393700786
21
-1.9934294881889763
0
LINE
8
BLACK
6
CONTINUOUS
10
6.2203500393700786
20
-1.9934294881889763
11
6.2272260236220474
21
-2.0012699999999999
0
LINE
8
BLACK
6
CONTINUOUS
10
6.2272260236220474
20
-2.0012699999999999
11
6.2330197244094485
21
-2.0099409448818899
0
LINE
8
BLACK
6
CONTINUOUS
10
6.2330197244094485
20
-2.0099409448818899
11
6.237632125984252
21
-2.0192939370078742
0
LINE
8
BLACK
6
CONTINUOUS
10
6.237632125984252
20
-2.0192939370078742
11
6.2409842519685039
21
-2.0291689370078738
0
LINE
8
BLACK
6
CONTINUOUS
10
6.2409842519685039
20
-2.0291689370078738
11
6.2430187401574804
21
-2.0393970078740158
0
LINE
8
BLACK
6
CONTINUOUS
10
6.2430187401574804
20
-2.0393970078740158
11
6.2437007874015746
21
-2.0498031496062992
0
LINE
8
BLACK
6
CONTINUOUS
10
6.2437007874015746
20
-2.0498031496062992
11
6.2437007874015746
21
-3.1521653543307084
0
LINE
8
BLACK
6
CONTINUOUS
10
6.2437007874015746
20
-3.1521653543307084
11
6.2430187401574804
21
-3.1625714960629923
0
LINE
8
BLACK
6
CONTINUOUS
10
6.2430187401574804
20
-3.1625714960629923
11
6.2409842519685039
21
-3.1727995669291338
0
LINE
8
BLACK
6
CONTINUOUS
10
6.2409842519685039
20
-3.1727995669291338
11
6.237632125984252
21
-3.1826745669291339
0
LINE
8
BLACK
6
CONTINUOUS
10
6.237632125984252
20
-3.1826745669291339
11
6.2330197244094485
21
-3.1920275590551181
0
LINE
8
BLACK
6
CONTINUOUS
10
6.2330197244094485
20
-3.1920275590551181
11
6.2272260236220474
21
-3.2006985039370077
0
LINE
8
BLACK
6
CONTINUOUS
10
6.2272260236220474
20
-3.2006985039370077
11
6.2203500393700786
21
-3.2085390157480314
0
LINE
8
BLACK
6
CONTINUOUS
10
6.2203500393700786
20
-3.2085390157480314
11
6.2125095275590549
21
-3.2154150000000001
0
LINE
8
BLACK
6
CONTINUOUS
10
6.2125095275590549
20
-3.2154150000000001
11
6.2038385826771654
21
-3.2212087007874013
0
LINE
8
BLACK
6
CONTINUOUS
10
6.2038385826771654
20
-3.2212087007874013
11
6.1944855905511806
21
-3.2258211023622048
0
LINE
8
BLACK
6
CONTINUOUS
10
6.1944855905511806
20
-3.2258211023622048
11
6.1846105905511806
21
-3.2291732283464567
0
LINE
8
BLACK
6
CONTINUOUS
10
6.1846105905511806
20
-3.2291732283464567
11
6.1743825196850395
21
-3.2312077165354331
0
LINE
8
BLACK
6
CONTINUOUS
10
6.1743825196850395
20
-3.2312077165354331
11
6.1639763779527561
21
-3.2318897637795274
0
LINE
8
BLACK
6
CONTINUOUS
10
6.1639763779527561
20
-3.2318897637795274
11
2.1875984251968505
21
-3.2318897637795274
0
LINE
8
BLACK
6
CONTINUOUS
10
2.1875984251968505
20
-3.2318897637795274
11
2.1771922834645667
21
-3.2312077165354331
0
LINE
8
BLACK
6
CONTINUOUS
10
2.1771922834645667
20
-3.2312077165354331
11
2.1669642125984252
21
-3.2291732283464567
0
LINE
8
BLACK
6
CONTINUOUS
10
2.1669642125984252
20
-3.2291732283464567
11
2.1570892125984251
21
-3.2258211023622048
0
LINE
8
BLACK
6
CONTINUOUS
10
2.1570892125984251
20
-3.2258211023622048
11
2.1477362204724408
21
-3.2212087007874013
0
LINE
8
BLACK
6
CONTINUOUS
10
2.1477362204724408
20
-3.2212087007874013
11
2.1390652755905513
21
-3.2154150000000001
0
LINE
8
BLACK
6
CONTINUOUS
10
2.1390652755905513
20
-3.2154150000000001
11
2.1312247637795276
21
-3.2085390157480314
0
LINE
8
BLACK
6
CONTINUOUS
10
2.1312247637795276
20
-3.2085390157480314
11
2.1243487795275589
21
-3.2006985039370077
0
LINE
8
BLACK
6
CONTINUOUS
10
2.1243487795275589
20
-3.2006985039370077
11
2.1185550787401572
21
-3.1920275590551181
0
LINE
8
BLACK
6
CONTINUOUS
10
2.1185550787401572
20
-3.1920275590551181
11
2.1139426771653542
21
-3.1826745669291339
0
LINE
8
BLACK
6
CONTINUOUS
10
2.1139426771653542
20
-3.1826745669291339
11
2.1105905511811023
21
-3.1727995669291338
0
LINE
8
BLACK
6
CONTINUOUS
10
2.1105905511811023
20
-3.1727995669291338
11
2.1085560629921258
21
-3.1625714960629923
0
LINE
8
BLACK
6
CONTINUOUS
10
2.1085560629921258
20
-3.1625714960629923
11
2.1078740157480316
21
-3.1521653543307084
0
LINE
8
BLACK
6
CONTINUOUS
10
2.1078740157480316
20
-3.1521653543307084
11
2.1078740157480316
21
-2.0498031496062992
0
LINE
8
BLACK
6
CONTINUOUS
10
2.1078740157480316
20
-2.0498031496062992
11
2.1085560629921258
21
-2.0393970078740158
0
LINE
8
BLACK
6
CONTINUOUS
10
2.1085560629921258
20
-2.0393970078740158
11
2.1105905511811023
21
-2.0291689370078738
0
LINE
8
BLACK
6
CONTINUOUS
10
2.1105905511811023
20
-2.0291689370078738
11
2.1139426771653542
21
-2.0192939370078742
0
LINE
8
BLACK
6
CONTINUOUS
10
2.1139426771653542
20
-2.0192939370078742
11
2.1185550787401572
21
-2.0099409448818899
0
LINE
8
BLACK
6
CONTINUOUS
10
2.1185550787401572
20
-2.0099409448818899
11
2.1243487795275589
21
-2.0012699999999999
0
LINE
8
BLACK
6
CONTINUOUS
10
2.1243487795275589
20
-2.0012699999999999
11
2.1312247637795276
21
-1.9934294881889763
0
LINE
8
BLACK
6
CONTINUOUS
10
2.1312247637795276
20
-1.9934294881889763
11
2.1390652755905513
21
-1.9865535039370079
0
LINE
8
BLACK
6
CONTINUOUS
10
2.1390652755905513
20
-1.9865535039370079
11
2.1477362204724408
21
-1.9807598031496063
0
LINE
8
BLACK
6
CONTINUOUS
10
2.1477362204724408
20
-1.9807598031496063
11
2.1570892125984251
21
-1.9761474015748031
0
LINE
8
BLACK
6
CONTINUOUS
10
2.1570892125984251
20
-1.9761474015748031
11
2.1669642125984252
21
-1.9727952755905511
0
LINE
8
BLACK
6
CONTINUOUS
10
2.1669642125984252
20
-1.9727952755905511
11
2.1771922834645667
21
-1.9707607874015747
0
LINE
8
BLACK
6
CONTINUOUS
10
2.1771922834645667
20
-1.9707607874015747
11
2.1875984251968505
21
-1.9700787401574802
0
LINE
8
BLACK
6
CONTINUOUS
10
2.1875984251968505
20
-1.9700787401574802
11
6.1639763779527561
21
-1.9700787401574802
0
LINE
8
BLACK
6
CONTINUOUS
10
2.1875984251968505
20
-1.9720472440944881
11
2.1825020472440944
21
-1.9720472440944881
0
LINE
8
BLACK
6
CONTINUOUS
10
2.1825020472440944
20
-1.9720472440944881
11
2.1723964566929133
21
-1.9733776771653544
0
LINE
8
BLACK
6
CONTINUOUS
10
2.1723964566929133
20
-1.9733776771653544
11
2.1625509842519683
21
-1.9760157480314959
0
LINE
8
BLACK
6
CONTINUOUS
10
2.1625509842519683
20
-1.9760157480314959
11
2.1531340551181102
21
-1.979916338582677
0
LINE
8
BLACK
6
CONTINUOUS
10
2.1531340551181102
20
-1.979916338582677
11
2.1443068503937006
21
-1.9850127559055117
0
LINE
8
BLACK
6
CONTINUOUS
10
2.1443068503937006
20
-1.9850127559055117
11
2.1362203937007873
21
-1.991217716535433
0
LINE
8
BLACK
6
CONTINUOUS
10
2.1362203937007873
20
-1.991217716535433
11
2.1290129921259844
21
-1.9984251181102362
0
LINE
8
BLACK
6
CONTINUOUS
10
2.1290129921259844
20
-1.9984251181102362
11
2.1228080314960631
21
-2.0065115748031497
0
LINE
8
BLACK
6
CONTINUOUS
10
2.1228080314960631
20
-2.0065115748031497
11
2.1177116141732282
21
-2.0153387795275588
0
LINE
8
BLACK
6
CONTINUOUS
10
2.1177116141732282
20
-2.0153387795275588
11
2.1138110236220471
21
-2.0247557086614174
0
LINE
8
BLACK
6
CONTINUOUS
10
2.1138110236220471
20
-2.0247557086614174
11
2.1111729527559056
21
-2.0346011811023623
0
LINE
8
BLACK
6
CONTINUOUS
10
2.1111729527559056
20
-2.0346011811023623
11
2.1098425196850394
21
-2.0447067716535434
0
LINE
8
BLACK
6
CONTINUOUS
10
2.1098425196850394
20
-2.0447067716535434
11
2.1098425196850394
21
-2.0498031496062992
0
LINE
8
BLACK
6
CONTINUOUS
10
2.1098425196850394
20
-2.0498031496062992
11
2.1098425196850394
21
-3.1521653543307084
0
LINE
8
BLACK
6
CONTINUOUS
10
2.1098425196850394
20
-3.1521653543307084
11
2.1098425196850394
21
-3.1572617322834646
0
LINE
8
BLACK
6
CONTINUOUS
10
2.1098425196850394
20
-3.1572617322834646
11
2.1111729527559056
21
-3.1673673228346457
0
LINE
8
BLACK
6
CONTINUOUS
10
2.1111729527559056
20
-3.1673673228346457
11
2.1138110236220471
21
-3.1772127952755906
0
LINE
8
BLACK
6
CONTINUOUS
10
2.1138110236220471
20
-3.1772127952755906
11
2.1177116141732282
21
-3.1866297244094488
0
LINE
8
BLACK
6
CONTINUOUS
10
2.1177116141732282
20
-3.1866297244094488
11
2.1228080314960631
21
-3.1954569291338584
0
LINE
8
BLACK
6
CONTINUOUS
10
2.1228080314960631
20
-3.1954569291338584
11
2.1290129921259844
21
-3.2035433858267717
0
LINE
8
BLACK
6
CONTINUOUS
10
2.1290129921259844
20
-3.2035433858267717
11
2.1362203937007873
21
-3.2107507874015746
0
LINE
8
BLACK
6
CONTINUOUS
10
2.1362203937007873
20
-3.2107507874015746
11
2.1443068503937006
21
-3.2169557480314959
0
LINE
8
BLACK
6
CONTINUOUS
10
2.1443068503937006
20
-3.2169557480314959
11
2.1531340551181102
21
-3.2220521653543308
0
LINE
8
BLACK
6
CONTINUOUS
10
2.1531340551181102
20
-3.2220521653543308
11
2.1625509842519683
21
-3.2259527559055119
0
LINE
8
BLACK
6
CONTINUOUS
10
2.1625509842519683
20
-3.2259527559055119
11
2.1723964566929133
21
-3.2285908267716534
0
LINE
8
BLACK
6
CONTINUOUS
10
2.1723964566929133
20
-3.2285908267716534
11
2.1825020472440944
21
-3.2299212598425195
0
LINE
8
BLACK
6
CONTINUOUS
10
2.1825020472440944
20
-3.2299212598425195
11
2.1875984251968505
21
-3.2299212598425195
0
LINE
8
BLACK
6
CONTINUOUS
10
2.1875984251968505
20
-3.2299212598425195
11
6.1639763779527561
21
-3.2299212598425195
0
LINE
8
BLACK
6
CONTINUOUS
10
6.1639763779527561
20
-3.2299212598425195
11
6.1690727559055114
21
-3.2299212598425195
0
LINE
8
BLACK
6
CONTINUOUS
10
6.1690727559055114
20
-3.2299212598425195
11
6.1791783464566929
21
-3.2285908267716534
0
LINE
8
BLACK
6
CONTINUOUS
10
6.1791783464566929
20
-3.2285908267716534
11
6.1890238188976374
21
-3.2259527559055119
0
LINE
8
BLACK
6
CONTINUOUS
10
6.1890238188976374
20
-3.2259527559055119
11
6.198440748031496
21
-3.2220521653543308
0
LINE
8
BLACK
6
CONTINUOUS
10
6.198440748031496
20
-3.2220521653543308
11
6.2072679527559051
21
-3.2169557480314959
0
LINE
8
BLACK
6
CONTINUOUS
10
6.2072679527559051
20
-3.2169557480314959
11
6.2153544094488185
21
-3.2107507874015746
0
LINE
8
BLACK
6
CONTINUOUS
10
6.2153544094488185
20
-3.2107507874015746
11
6.2225618110236223
21
-3.2035433858267717
0
LINE
8
BLACK
6
CONTINUOUS
10
6.2225618110236223
20
-3.2035433858267717
11
6.2287667716535431
21
-3.1954569291338584
0
LINE
8
BLACK
6
CONTINUOUS
10
6.2287667716535431
20
-3.1954569291338584
11
6.233863188976378
21
-3.1866297244094488
0
LINE
8
BLACK
6
CONTINUOUS
10
6.233863188976378
20
-3.1866297244094488
11
6.2377637795275591
21
-3.1772127952755906
0
LINE
8
BLACK
6
CONTINUOUS
10
6.2377637795275591
20
-3.1772127952755906
11
6.2404018503937007
21
-3.1673673228346457
0
LINE
8
BLACK
6
CONTINUOUS
10
6.2404018503937007
20
-3.1673673228346457
11
6.2417322834645672
21
-3.1572617322834646
0
LINE
8
BLACK
6
CONTINUOUS
10
6.2417322834645672
20
-3.1572617322834646
11
6.2417322834645672
21
-3.1521653543307084
0
LINE
8
BLACK
6
CONTINUOUS
10
6.2417322834645672
20
-3.1521653543307084
11
6.2417322834645672
21
-2.0498031496062992
0
LINE
8
BLACK
6
CONTINUOUS
10
6.2417322834645672
20
-2.0498031496062992
11
6.2417322834645672
21
-2.0447067716535434
0
LINE
8
BLACK
6
CONTINUOUS
10
6.2417322834645672
20
-2.0447067716535434
11
6.2404018503937007
21
-2.0346011811023623
0
LINE
8
BLACK
6
CONTINUOUS
10
6.2404018503937007
20
-2.0346011811023623
11
6.2377637795275591
21
-2.0247557086614174
0
LINE
8
BLACK
6
CONTINUOUS
10
6.2377637795275591
20
-2.0247557086614174
11
6.233863188976378
21
-2.0153387795275588
0
LINE
8
BLACK
6
CONTINUOUS
10
6.233863188976378
20
-2.0153387795275588
11
6.2287667716535431
21
-2.0065115748031497
0
LINE
8
BLACK
6
CONTINUOUS
10
6.2287667716535431
20
-2.0065115748031497
11
6.2225618110236223
21
-1.9984251181102362
0
LINE
8
BLACK
6
CONTINUOUS
10
6.2225618110236223
20
-1.9984251181102362
11
6.2153544094488185
21
-1.991217716535433
0
LINE
8
BLACK
6
CONTINUOUS
10
6.2153544094488185
20
-1.991217716535433
11
6.2072679527559051
21
-1.9850127559055117
0
LINE
8
BLACK
6
CONTINUOUS
10
6.2072679527559051
20
-1.9850127559055117
11
6.198440748031496
21
-1.979916338582677
0
LINE
8
BLACK
6
CONTINUOUS
10
6.198440748031496
20
-1.979916338582677
11
6.1890238188976374
21
-1.9760157480314959
0
LINE
8
BLACK
6
CONTINUOUS
10
6.1890238188976374
20
-1.9760157480314959
11
6.1791783464566929
21
-1.9733776771653544
0
LINE
8
BLACK
6
CONTINUOUS
10
6.1791783464566929
20
-1.9733776771653544
11
6.1690727559055114
21
-1.9720472440944881
0
LINE
8
BLACK
6
CONTINUOUS
10
6.1690727559055114
20
-1.9720472440944881
11
6.1639763779527561
21
-1.9720472440944881
0
LINE
8
BLACK
6
CONTINUOUS
10
6.1639763779527561
20
-1.9720472440944881
11
2.1875984251968505
21
-1.9720472440944881
  0
ENDSEC
  0
EOF
