  0
SECTION
  2
HEADER
  9
$ANGBASE
  50
0.0
  9
$ANGDIR
  70
1
  9
$MEASUREMENT
  70
0
  0
ENDSEC
  0
SECTION
  2
TABLES
  0
TABLE
  2
LTYPE
  70
4
  0
LTYPE
  5
40F
  2
CONTINUOUS
  70
0
  3
Solid line
  72
65
  73
0
  40
0.0
  0
LTYPE
  5
410
  2
DASHDOT
 70
0
  3
Dash Dot ____ _ ____ _
 72
65
 73
4
 40
2.0
 49
1.25
 49
-0.25
 49
0.25
 49
-0.25
  0
LTYPE
  5
411
  2
DASHED
 70
0
  3
Dashed __ __ __ __ __
 72
65
 73
2
 40
0.75
 49
0.5
 49
-0.25
  0
LTYPE
  5
43B
  2
DOTTED
 70
0
  3
Dotted .  .  .  .
 72
65
 73
2
 40
0.2
 49
0.0
 49
-0.2
  0
ENDTAB
  0
TABLE
  2
STYLE
  70
4
  0
STYLE
  2
KICAD
  70
0
  40
0
  41
1
  42
1
  50
0
  71
0
  3
isocp.shx
  0
STYLE
  2
KICADB
  70
0
  40
0
  41
1
  42
1
  50
0
  71
0
  3
isocp.shx
  0
STYLE
  2
KICADI
  70
0
  40
0
  41
1
  42
1
  50
15
  71
0
  3
isocp.shx
  0
STYLE
  2
KICADBI
  70
0
  40
0
  41
1
  42
1
  50
15
  71
0
  3
isocp.shx
  0
ENDTAB
  0
TABLE
  2
LAYER
  70
1
  0
LAYER
  2
BLACK
  70
0
  62
7
  6
CONTINUOUS
  0
ENDTAB
  0
ENDSEC
  0
SECTION
  2
ENTITIES
0
LINE
8
BLACK
6
CONTINUOUS
10
2.2175837795275588
20
-2.8487373228346455
11
2.2259120866141733
21
-2.8509688976377952
0
LINE
8
BLACK
6
CONTINUOUS
10
2.2259120866141733
20
-2.8509688976377952
11
2.2338778740157479
21
-2.8542684251968504
0
LINE
8
BLACK
6
CONTINUOUS
10
2.2338778740157479
20
-2.8542684251968504
11
2.2413448425196849
21
-2.8585794881889761
0
LINE
8
BLACK
6
CONTINUOUS
10
2.2413448425196849
20
-2.8585794881889761
11
2.2481851968503936
21
-2.8638282677165354
0
LINE
8
BLACK
6
CONTINUOUS
10
2.2481851968503936
20
-2.8638282677165354
11
2.2542819685039368
21
-2.8699250393700786
0
LINE
8
BLACK
6
CONTINUOUS
10
2.2542819685039368
20
-2.8699250393700786
11
2.2595307480314961
21
-2.8767653937007873
0
LINE
8
BLACK
6
CONTINUOUS
10
2.2595307480314961
20
-2.8767653937007873
11
2.2638418110236218
21
-2.8842323622047243
0
LINE
8
BLACK
6
CONTINUOUS
10
2.2638418110236218
20
-2.8842323622047243
11
2.2671413385826771
21
-2.892198149606299
0
LINE
8
BLACK
6
CONTINUOUS
10
2.2671413385826771
20
-2.892198149606299
11
2.2693729133858267
21
-2.9005264566929134
0
LINE
8
BLACK
6
CONTINUOUS
10
2.2693729133858267
20
-2.9005264566929134
11
2.2704983070866143
21
-2.9090747637795276
0
LINE
8
BLACK
6
CONTINUOUS
10
2.2704983070866143
20
-2.9090747637795276
11
2.2704983070866143
21
-2.9176968897637794
0
LINE
8
BLACK
6
CONTINUOUS
10
2.2704983070866143
20
-2.9176968897637794
11
2.2693729133858267
21
-2.9262451968503935
0
LINE
8
BLACK
6
CONTINUOUS
10
2.2693729133858267
20
-2.9262451968503935
11
2.2671413385826771
21
-2.934573503937008
0
LINE
8
BLACK
6
CONTINUOUS
10
2.2671413385826771
20
-2.934573503937008
11
2.2638418110236218
21
-2.9425392913385826
0
LINE
8
BLACK
6
CONTINUOUS
10
2.2638418110236218
20
-2.9425392913385826
11
2.2595307480314961
21
-2.9500062598425196
0
LINE
8
BLACK
6
CONTINUOUS
10
2.2595307480314961
20
-2.9500062598425196
11
2.2542819685039368
21
-2.9568466141732284
0
LINE
8
BLACK
6
CONTINUOUS
10
2.2542819685039368
20
-2.9568466141732284
11
2.2481851968503936
21
-2.9629433858267715
0
LINE
8
BLACK
6
CONTINUOUS
10
2.2481851968503936
20
-2.9629433858267715
11
2.2413448425196849
21
-2.9681921653543308
0
LINE
8
BLACK
6
CONTINUOUS
10
2.2413448425196849
20
-2.9681921653543308
11
2.2338778740157479
21
-2.9725032283464565
0
LINE
8
BLACK
6
CONTINUOUS
10
2.2338778740157479
20
-2.9725032283464565
11
2.2259120866141733
21
-2.9758027559055118
0
LINE
8
BLACK
6
CONTINUOUS
10
2.2259120866141733
20
-2.9758027559055118
11
2.2175837795275588
21
-2.9780343307086614
0
LINE
8
BLACK
6
CONTINUOUS
10
2.2175837795275588
20
-2.9780343307086614
11
2.2090354724409447
21
-2.9791597244094485
0
LINE
8
BLACK
6
CONTINUOUS
10
2.2090354724409447
20
-2.9791597244094485
11
2.2004133464566928
21
-2.9791597244094485
0
LINE
8
BLACK
6
CONTINUOUS
10
2.2004133464566928
20
-2.9791597244094485
11
2.1918650393700787
21
-2.9780343307086614
0
LINE
8
BLACK
6
CONTINUOUS
10
2.1918650393700787
20
-2.9780343307086614
11
2.1835367322834647
21
-2.9758027559055118
0
LINE
8
BLACK
6
CONTINUOUS
10
2.1835367322834647
20
-2.9758027559055118
11
2.1755709448818896
21
-2.9725032283464565
0
LINE
8
BLACK
6
CONTINUOUS
10
2.1755709448818896
20
-2.9725032283464565
11
2.1681039763779526
21
-2.9681921653543308
0
LINE
8
BLACK
6
CONTINUOUS
10
2.1681039763779526
20
-2.9681921653543308
11
2.1612636220472439
21
-2.9629433858267715
0
LINE
8
BLACK
6
CONTINUOUS
10
2.1612636220472439
20
-2.9629433858267715
11
2.1551668503937007
21
-2.9568466141732284
0
LINE
8
BLACK
6
CONTINUOUS
10
2.1551668503937007
20
-2.9568466141732284
11
2.1499180708661418
21
-2.9500062598425196
0
LINE
8
BLACK
6
CONTINUOUS
10
2.1499180708661418
20
-2.9500062598425196
11
2.1456070078740157
21
-2.9425392913385826
0
LINE
8
BLACK
6
CONTINUOUS
10
2.1456070078740157
20
-2.9425392913385826
11
2.1423074803149604
21
-2.934573503937008
0
LINE
8
BLACK
6
CONTINUOUS
10
2.1423074803149604
20
-2.934573503937008
11
2.1400759055118108
21
-2.9262451968503935
0
LINE
8
BLACK
6
CONTINUOUS
10
2.1400759055118108
20
-2.9262451968503935
11
2.1389505118110237
21
-2.9176968897637794
0
LINE
8
BLACK
6
CONTINUOUS
10
2.1389505118110237
20
-2.9176968897637794
11
2.1389505118110237
21
-2.9090747637795276
0
LINE
8
BLACK
6
CONTINUOUS
10
2.1389505118110237
20
-2.9090747637795276
11
2.1390455118110236
21
-2.9083531102362206
0
LINE
8
BLACK
6
CONTINUOUS
10
2.1390455118110236
20
-2.9083531102362206
11
2.1400759055118108
21
-2.9005264566929134
0
LINE
8
BLACK
6
CONTINUOUS
10
2.1400759055118108
20
-2.9005264566929134
11
2.1423074803149604
21
-2.892198149606299
0
LINE
8
BLACK
6
CONTINUOUS
10
2.1423074803149604
20
-2.892198149606299
11
2.1456070078740157
21
-2.8842323622047243
0
LINE
8
BLACK
6
CONTINUOUS
10
2.1456070078740157
20
-2.8842323622047243
11
2.1499180708661418
21
-2.8767653937007873
0
LINE
8
BLACK
6
CONTINUOUS
10
2.1499180708661418
20
-2.8767653937007873
11
2.1551668503937007
21
-2.8699250393700786
0
LINE
8
BLACK
6
CONTINUOUS
10
2.1551668503937007
20
-2.8699250393700786
11
2.1612636220472439
21
-2.8638282677165354
0
LINE
8
BLACK
6
CONTINUOUS
10
2.1612636220472439
20
-2.8638282677165354
11
2.1681039763779526
21
-2.8585794881889761
0
LINE
8
BLACK
6
CONTINUOUS
10
2.1681039763779526
20
-2.8585794881889761
11
2.1755709448818896
21
-2.8542684251968504
0
LINE
8
BLACK
6
CONTINUOUS
10
2.1755709448818896
20
-2.8542684251968504
11
2.1835367322834647
21
-2.8509688976377952
0
LINE
8
BLACK
6
CONTINUOUS
10
2.1835367322834647
20
-2.8509688976377952
11
2.1918650393700787
21
-2.8487373228346455
0
LINE
8
BLACK
6
CONTINUOUS
10
2.1918650393700787
20
-2.8487373228346455
11
2.2004133464566928
21
-2.8476119291338584
0
LINE
8
BLACK
6
CONTINUOUS
10
2.2004133464566928
20
-2.8476119291338584
11
2.2090354724409447
21
-2.8476119291338584
0
LINE
8
BLACK
6
CONTINUOUS
10
2.2090354724409447
20
-2.8476119291338584
11
2.2175837795275588
21
-2.8487373228346455
0
LINE
8
BLACK
6
CONTINUOUS
10
2.1407778740157482
20
-2.9184185433070864
11
2.1423524803149605
21
-2.9283600000000001
0
LINE
8
BLACK
6
CONTINUOUS
10
2.1423524803149605
20
-2.9283600000000001
11
2.1454628346456692
21
-2.937932755905512
0
LINE
8
BLACK
6
CONTINUOUS
10
2.1454628346456692
20
-2.937932755905512
11
2.1500324409448819
21
-2.9469011023622045
0
LINE
8
BLACK
6
CONTINUOUS
10
2.1500324409448819
20
-2.9469011023622045
11
2.1559487401574802
21
-2.9550441732283463
0
LINE
8
BLACK
6
CONTINUOUS
10
2.1559487401574802
20
-2.9550441732283463
11
2.1630660629921259
21
-2.9621614960629921
0
LINE
8
BLACK
6
CONTINUOUS
10
2.1630660629921259
20
-2.9621614960629921
11
2.1712091338582677
21
-2.9680777952755903
0
LINE
8
BLACK
6
CONTINUOUS
10
2.1712091338582677
20
-2.9680777952755903
11
2.1801774803149607
21
-2.972647401574803
0
LINE
8
BLACK
6
CONTINUOUS
10
2.1801774803149607
20
-2.972647401574803
11
2.1897502362204726
21
-2.9757577559055117
0
LINE
8
BLACK
6
CONTINUOUS
10
2.1897502362204726
20
-2.9757577559055117
11
2.1996916929133858
21
-2.9773323622047245
0
LINE
8
BLACK
6
CONTINUOUS
10
2.1996916929133858
20
-2.9773323622047245
11
2.2097571259842521
21
-2.9773323622047245
0
LINE
8
BLACK
6
CONTINUOUS
10
2.2097571259842521
20
-2.9773323622047245
11
2.2196985826771654
21
-2.9757577559055117
0
LINE
8
BLACK
6
CONTINUOUS
10
2.2196985826771654
20
-2.9757577559055117
11
2.2292713385826772
21
-2.972647401574803
0
LINE
8
BLACK
6
CONTINUOUS
10
2.2292713385826772
20
-2.972647401574803
11
2.2382396850393702
21
-2.9680777952755903
0
LINE
8
BLACK
6
CONTINUOUS
10
2.2382396850393702
20
-2.9680777952755903
11
2.2463827559055116
21
-2.9621614960629921
0
LINE
8
BLACK
6
CONTINUOUS
10
2.2463827559055116
20
-2.9621614960629921
11
2.2535000787401573
21
-2.9550441732283463
0
LINE
8
BLACK
6
CONTINUOUS
10
2.2535000787401573
20
-2.9550441732283463
11
2.2594163779527561
21
-2.9469011023622045
0
LINE
8
BLACK
6
CONTINUOUS
10
2.2594163779527561
20
-2.9469011023622045
11
2.2639859842519683
21
-2.937932755905512
0
LINE
8
BLACK
6
CONTINUOUS
10
2.2639859842519683
20
-2.937932755905512
11
2.267096338582677
21
-2.9283600000000001
0
LINE
8
BLACK
6
CONTINUOUS
10
2.267096338582677
20
-2.9283600000000001
11
2.2686709448818898
21
-2.9184185433070864
0
LINE
8
BLACK
6
CONTINUOUS
10
2.2686709448818898
20
-2.9184185433070864
11
2.2686709448818898
21
-2.9083531102362206
0
LINE
8
BLACK
6
CONTINUOUS
10
2.2686709448818898
20
-2.9083531102362206
11
2.267096338582677
21
-2.8984116535433069
0
LINE
8
BLACK
6
CONTINUOUS
10
2.267096338582677
20
-2.8984116535433069
11
2.2639859842519683
21
-2.888838897637795
0
LINE
8
BLACK
6
CONTINUOUS
10
2.2639859842519683
20
-2.888838897637795
11
2.2594163779527561
21
-2.8798705511811025
0
LINE
8
BLACK
6
CONTINUOUS
10
2.2594163779527561
20
-2.8798705511811025
11
2.2535000787401573
21
-2.8717274803149606
0
LINE
8
BLACK
6
CONTINUOUS
10
2.2535000787401573
20
-2.8717274803149606
11
2.2463827559055116
21
-2.8646101574803149
0
LINE
8
BLACK
6
CONTINUOUS
10
2.2463827559055116
20
-2.8646101574803149
11
2.2382396850393702
21
-2.8586938582677166
0
LINE
8
BLACK
6
CONTINUOUS
10
2.2382396850393702
20
-2.8586938582677166
11
2.2292713385826772
21
-2.8541242519685039
0
LINE
8
BLACK
6
CONTINUOUS
10
2.2292713385826772
20
-2.8541242519685039
11
2.2196985826771654
21
-2.8510138976377952
0
LINE
8
BLACK
6
CONTINUOUS
10
2.2196985826771654
20
-2.8510138976377952
11
2.2097571259842521
21
-2.8494392913385824
0
LINE
8
BLACK
6
CONTINUOUS
10
2.2097571259842521
20
-2.8494392913385824
11
2.1996916929133858
21
-2.8494392913385824
0
LINE
8
BLACK
6
CONTINUOUS
10
2.1996916929133858
20
-2.8494392913385824
11
2.1897502362204726
21
-2.8510138976377952
0
LINE
8
BLACK
6
CONTINUOUS
10
2.1897502362204726
20
-2.8510138976377952
11
2.1801774803149607
21
-2.8541242519685039
0
LINE
8
BLACK
6
CONTINUOUS
10
2.1801774803149607
20
-2.8541242519685039
11
2.1712091338582677
21
-2.8586938582677166
0
LINE
8
BLACK
6
CONTINUOUS
10
2.1712091338582677
20
-2.8586938582677166
11
2.1630660629921259
21
-2.8646101574803149
0
LINE
8
BLACK
6
CONTINUOUS
10
2.1630660629921259
20
-2.8646101574803149
11
2.1559487401574802
21
-2.8717274803149606
0
LINE
8
BLACK
6
CONTINUOUS
10
2.1559487401574802
20
-2.8717274803149606
11
2.1500324409448819
21
-2.8798705511811025
0
LINE
8
BLACK
6
CONTINUOUS
10
2.1500324409448819
20
-2.8798705511811025
11
2.1454628346456692
21
-2.888838897637795
0
LINE
8
BLACK
6
CONTINUOUS
10
2.1454628346456692
20
-2.888838897637795
11
2.1423524803149605
21
-2.8984116535433069
0
LINE
8
BLACK
6
CONTINUOUS
10
2.1423524803149605
20
-2.8984116535433069
11
2.1407778740157482
21
-2.9083531102362206
0
LINE
8
BLACK
6
CONTINUOUS
10
2.1407778740157482
20
-2.9083531102362206
11
2.1407778740157482
21
-2.9184185433070864
0
LINE
8
BLACK
6
CONTINUOUS
10
6.1152215748031491
20
-2.8487373228346455
11
6.1235498818897636
21
-2.8509688976377952
0
LINE
8
BLACK
6
CONTINUOUS
10
6.1235498818897636
20
-2.8509688976377952
11
6.1315156692913382
21
-2.8542684251968504
0
LINE
8
BLACK
6
CONTINUOUS
10
6.1315156692913382
20
-2.8542684251968504
11
6.1389826377952756
21
-2.8585794881889761
0
LINE
8
BLACK
6
CONTINUOUS
10
6.1389826377952756
20
-2.8585794881889761
11
6.1458229921259839
21
-2.8638282677165354
0
LINE
8
BLACK
6
CONTINUOUS
10
6.1458229921259839
20
-2.8638282677165354
11
6.1519197637795271
21
-2.8699250393700786
0
LINE
8
BLACK
6
CONTINUOUS
10
6.1519197637795271
20
-2.8699250393700786
11
6.1571685433070868
21
-2.8767653937007873
0
LINE
8
BLACK
6
CONTINUOUS
10
6.1571685433070868
20
-2.8767653937007873
11
6.1614796062992125
21
-2.8842323622047243
0
LINE
8
BLACK
6
CONTINUOUS
10
6.1614796062992125
20
-2.8842323622047243
11
6.1647791338582678
21
-2.892198149606299
0
LINE
8
BLACK
6
CONTINUOUS
10
6.1647791338582678
20
-2.892198149606299
11
6.167010708661417
21
-2.9005264566929134
0
LINE
8
BLACK
6
CONTINUOUS
10
6.167010708661417
20
-2.9005264566929134
11
6.1681361023622046
21
-2.9090747637795276
0
LINE
8
BLACK
6
CONTINUOUS
10
6.1681361023622046
20
-2.9090747637795276
11
6.1681361023622046
21
-2.9176968897637794
0
LINE
8
BLACK
6
CONTINUOUS
10
6.1681361023622046
20
-2.9176968897637794
11
6.167010708661417
21
-2.9262451968503935
0
LINE
8
BLACK
6
CONTINUOUS
10
6.167010708661417
20
-2.9262451968503935
11
6.1647791338582678
21
-2.934573503937008
0
LINE
8
BLACK
6
CONTINUOUS
10
6.1647791338582678
20
-2.934573503937008
11
6.1614796062992125
21
-2.9425392913385826
0
LINE
8
BLACK
6
CONTINUOUS
10
6.1614796062992125
20
-2.9425392913385826
11
6.1571685433070868
21
-2.9500062598425196
0
LINE
8
BLACK
6
CONTINUOUS
10
6.1571685433070868
20
-2.9500062598425196
11
6.1519197637795271
21
-2.9568466141732284
0
LINE
8
BLACK
6
CONTINUOUS
10
6.1519197637795271
20
-2.9568466141732284
11
6.1458229921259839
21
-2.9629433858267715
0
LINE
8
BLACK
6
CONTINUOUS
10
6.1458229921259839
20
-2.9629433858267715
11
6.1389826377952756
21
-2.9681921653543308
0
LINE
8
BLACK
6
CONTINUOUS
10
6.1389826377952756
20
-2.9681921653543308
11
6.1315156692913382
21
-2.9725032283464565
0
LINE
8
BLACK
6
CONTINUOUS
10
6.1315156692913382
20
-2.9725032283464565
11
6.1235498818897636
21
-2.9758027559055118
0
LINE
8
BLACK
6
CONTINUOUS
10
6.1235498818897636
20
-2.9758027559055118
11
6.1152215748031491
21
-2.9780343307086614
0
LINE
8
BLACK
6
CONTINUOUS
10
6.1152215748031491
20
-2.9780343307086614
11
6.106673267716535
21
-2.9791597244094485
0
LINE
8
BLACK
6
CONTINUOUS
10
6.106673267716535
20
-2.9791597244094485
11
6.0980511417322836
21
-2.9791597244094485
0
LINE
8
BLACK
6
CONTINUOUS
10
6.0980511417322836
20
-2.9791597244094485
11
6.0895028346456694
21
-2.9780343307086614
0
LINE
8
BLACK
6
CONTINUOUS
10
6.0895028346456694
20
-2.9780343307086614
11
6.081174527559055
21
-2.9758027559055118
0
LINE
8
BLACK
6
CONTINUOUS
10
6.081174527559055
20
-2.9758027559055118
11
6.0732087401574804
21
-2.9725032283464565
0
LINE
8
BLACK
6
CONTINUOUS
10
6.0732087401574804
20
-2.9725032283464565
11
6.0657417716535429
21
-2.9681921653543308
0
LINE
8
BLACK
6
CONTINUOUS
10
6.0657417716535429
20
-2.9681921653543308
11
6.0589014173228346
21
-2.9629433858267715
0
LINE
8
BLACK
6
CONTINUOUS
10
6.0589014173228346
20
-2.9629433858267715
11
6.0528046456692914
21
-2.9568466141732284
0
LINE
8
BLACK
6
CONTINUOUS
10
6.0528046456692914
20
-2.9568466141732284
11
6.0475558661417326
21
-2.9500062598425196
0
LINE
8
BLACK
6
CONTINUOUS
10
6.0475558661417326
20
-2.9500062598425196
11
6.043244803149606
21
-2.9425392913385826
0
LINE
8
BLACK
6
CONTINUOUS
10
6.043244803149606
20
-2.9425392913385826
11
6.0399452755905507
21
-2.934573503937008
0
LINE
8
BLACK
6
CONTINUOUS
10
6.0399452755905507
20
-2.934573503937008
11
6.0377137007874015
21
-2.9262451968503935
0
LINE
8
BLACK
6
CONTINUOUS
10
6.0377137007874015
20
-2.9262451968503935
11
6.036588307086614
21
-2.9176968897637794
0
LINE
8
BLACK
6
CONTINUOUS
10
6.036588307086614
20
-2.9176968897637794
11
6.036588307086614
21
-2.9090747637795276
0
LINE
8
BLACK
6
CONTINUOUS
10
6.036588307086614
20
-2.9090747637795276
11
6.0366833070866139
21
-2.9083531102362206
0
LINE
8
BLACK
6
CONTINUOUS
10
6.0366833070866139
20
-2.9083531102362206
11
6.0377137007874015
21
-2.9005264566929134
0
LINE
8
BLACK
6
CONTINUOUS
10
6.0377137007874015
20
-2.9005264566929134
11
6.0399452755905507
21
-2.892198149606299
0
LINE
8
BLACK
6
CONTINUOUS
10
6.0399452755905507
20
-2.892198149606299
11
6.043244803149606
21
-2.8842323622047243
0
LINE
8
BLACK
6
CONTINUOUS
10
6.043244803149606
20
-2.8842323622047243
11
6.0475558661417326
21
-2.8767653937007873
0
LINE
8
BLACK
6
CONTINUOUS
10
6.0475558661417326
20
-2.8767653937007873
11
6.0528046456692914
21
-2.8699250393700786
0
LINE
8
BLACK
6
CONTINUOUS
10
6.0528046456692914
20
-2.8699250393700786
11
6.0589014173228346
21
-2.8638282677165354
0
LINE
8
BLACK
6
CONTINUOUS
10
6.0589014173228346
20
-2.8638282677165354
11
6.0657417716535429
21
-2.8585794881889761
0
LINE
8
BLACK
6
CONTINUOUS
10
6.0657417716535429
20
-2.8585794881889761
11
6.0732087401574804
21
-2.8542684251968504
0
LINE
8
BLACK
6
CONTINUOUS
10
6.0732087401574804
20
-2.8542684251968504
11
6.081174527559055
21
-2.8509688976377952
0
LINE
8
BLACK
6
CONTINUOUS
10
6.081174527559055
20
-2.8509688976377952
11
6.0895028346456694
21
-2.8487373228346455
0
LINE
8
BLACK
6
CONTINUOUS
10
6.0895028346456694
20
-2.8487373228346455
11
6.0980511417322836
21
-2.8476119291338584
0
LINE
8
BLACK
6
CONTINUOUS
10
6.0980511417322836
20
-2.8476119291338584
11
6.106673267716535
21
-2.8476119291338584
0
LINE
8
BLACK
6
CONTINUOUS
10
6.106673267716535
20
-2.8476119291338584
11
6.1152215748031491
21
-2.8487373228346455
0
LINE
8
BLACK
6
CONTINUOUS
10
6.0384156692913384
20
-2.9184185433070864
11
6.0399902755905508
21
-2.9283600000000001
0
LINE
8
BLACK
6
CONTINUOUS
10
6.0399902755905508
20
-2.9283600000000001
11
6.04310062992126
21
-2.937932755905512
0
LINE
8
BLACK
6
CONTINUOUS
10
6.04310062992126
20
-2.937932755905512
11
6.0476702362204726
21
-2.9469011023622045
0
LINE
8
BLACK
6
CONTINUOUS
10
6.0476702362204726
20
-2.9469011023622045
11
6.0535865354330705
21
-2.9550441732283463
0
LINE
8
BLACK
6
CONTINUOUS
10
6.0535865354330705
20
-2.9550441732283463
11
6.0607038582677166
21
-2.9621614960629921
0
LINE
8
BLACK
6
CONTINUOUS
10
6.0607038582677166
20
-2.9621614960629921
11
6.0688469291338585
21
-2.9680777952755903
0
LINE
8
BLACK
6
CONTINUOUS
10
6.0688469291338585
20
-2.9680777952755903
11
6.0778152755905515
21
-2.972647401574803
0
LINE
8
BLACK
6
CONTINUOUS
10
6.0778152755905515
20
-2.972647401574803
11
6.0873880314960624
21
-2.9757577559055117
0
LINE
8
BLACK
6
CONTINUOUS
10
6.0873880314960624
20
-2.9757577559055117
11
6.0973294881889766
21
-2.9773323622047245
0
LINE
8
BLACK
6
CONTINUOUS
10
6.0973294881889766
20
-2.9773323622047245
11
6.107394921259842
21
-2.9773323622047245
0
LINE
8
BLACK
6
CONTINUOUS
10
6.107394921259842
20
-2.9773323622047245
11
6.1173363779527561
21
-2.9757577559055117
0
LINE
8
BLACK
6
CONTINUOUS
10
6.1173363779527561
20
-2.9757577559055117
11
6.126909133858268
21
-2.972647401574803
0
LINE
8
BLACK
6
CONTINUOUS
10
6.126909133858268
20
-2.972647401574803
11
6.1358774803149601
21
-2.9680777952755903
0
LINE
8
BLACK
6
CONTINUOUS
10
6.1358774803149601
20
-2.9680777952755903
11
6.1440205511811019
21
-2.9621614960629921
0
LINE
8
BLACK
6
CONTINUOUS
10
6.1440205511811019
20
-2.9621614960629921
11
6.1511378740157481
21
-2.9550441732283463
0
LINE
8
BLACK
6
CONTINUOUS
10
6.1511378740157481
20
-2.9550441732283463
11
6.1570541732283459
21
-2.9469011023622045
0
LINE
8
BLACK
6
CONTINUOUS
10
6.1570541732283459
20
-2.9469011023622045
11
6.1616237795275586
21
-2.937932755905512
0
LINE
8
BLACK
6
CONTINUOUS
10
6.1616237795275586
20
-2.937932755905512
11
6.1647341338582677
21
-2.9283600000000001
0
LINE
8
BLACK
6
CONTINUOUS
10
6.1647341338582677
20
-2.9283600000000001
11
6.1663087401574801
21
-2.9184185433070864
0
LINE
8
BLACK
6
CONTINUOUS
10
6.1663087401574801
20
-2.9184185433070864
11
6.1663087401574801
21
-2.9083531102362206
0
LINE
8
BLACK
6
CONTINUOUS
10
6.1663087401574801
20
-2.9083531102362206
11
6.1647341338582677
21
-2.8984116535433069
0
LINE
8
BLACK
6
CONTINUOUS
10
6.1647341338582677
20
-2.8984116535433069
11
6.1616237795275586
21
-2.888838897637795
0
LINE
8
BLACK
6
CONTINUOUS
10
6.1616237795275586
20
-2.888838897637795
11
6.1570541732283459
21
-2.8798705511811025
0
LINE
8
BLACK
6
CONTINUOUS
10
6.1570541732283459
20
-2.8798705511811025
11
6.1511378740157481
21
-2.8717274803149606
0
LINE
8
BLACK
6
CONTINUOUS
10
6.1511378740157481
20
-2.8717274803149606
11
6.1440205511811019
21
-2.8646101574803149
0
LINE
8
BLACK
6
CONTINUOUS
10
6.1440205511811019
20
-2.8646101574803149
11
6.1358774803149601
21
-2.8586938582677166
0
LINE
8
BLACK
6
CONTINUOUS
10
6.1358774803149601
20
-2.8586938582677166
11
6.126909133858268
21
-2.8541242519685039
0
LINE
8
BLACK
6
CONTINUOUS
10
6.126909133858268
20
-2.8541242519685039
11
6.1173363779527561
21
-2.8510138976377952
0
LINE
8
BLACK
6
CONTINUOUS
10
6.1173363779527561
20
-2.8510138976377952
11
6.107394921259842
21
-2.8494392913385824
0
LINE
8
BLACK
6
CONTINUOUS
10
6.107394921259842
20
-2.8494392913385824
11
6.0973294881889766
21
-2.8494392913385824
0
LINE
8
BLACK
6
CONTINUOUS
10
6.0973294881889766
20
-2.8494392913385824
11
6.0873880314960624
21
-2.8510138976377952
0
LINE
8
BLACK
6
CONTINUOUS
10
6.0873880314960624
20
-2.8510138976377952
11
6.0778152755905515
21
-2.8541242519685039
0
LINE
8
BLACK
6
CONTINUOUS
10
6.0778152755905515
20
-2.8541242519685039
11
6.0688469291338585
21
-2.8586938582677166
0
LINE
8
BLACK
6
CONTINUOUS
10
6.0688469291338585
20
-2.8586938582677166
11
6.0607038582677166
21
-2.8646101574803149
0
LINE
8
BLACK
6
CONTINUOUS
10
6.0607038582677166
20
-2.8646101574803149
11
6.0535865354330705
21
-2.8717274803149606
0
LINE
8
BLACK
6
CONTINUOUS
10
6.0535865354330705
20
-2.8717274803149606
11
6.0476702362204726
21
-2.8798705511811025
0
LINE
8
BLACK
6
CONTINUOUS
10
6.0476702362204726
20
-2.8798705511811025
11
6.04310062992126
21
-2.888838897637795
0
LINE
8
BLACK
6
CONTINUOUS
10
6.04310062992126
20
-2.888838897637795
11
6.0399902755905508
21
-2.8984116535433069
0
LINE
8
BLACK
6
CONTINUOUS
10
6.0399902755905508
20
-2.8984116535433069
11
6.0384156692913384
21
-2.9083531102362206
0
LINE
8
BLACK
6
CONTINUOUS
10
6.0384156692913384
20
-2.9083531102362206
11
6.0384156692913384
21
-2.9184185433070864
0
LINE
8
BLACK
6
CONTINUOUS
10
2.2180412598425194
20
-1.8228155118110236
11
2.2266658267716535
21
-1.8251264566929133
0
LINE
8
BLACK
6
CONTINUOUS
10
2.2266658267716535
20
-1.8251264566929133
11
2.234915
21
-1.8285433464566929
0
LINE
8
BLACK
6
CONTINUOUS
10
2.234915
20
-1.8285433464566929
11
2.242647559055118
21
-1.8330077559055118
0
LINE
8
BLACK
6
CONTINUOUS
10
2.242647559055118
20
-1.8330077559055118
11
2.2497312598425196
21
-1.8384432677165354
0
LINE
8
BLACK
6
CONTINUOUS
10
2.2497312598425196
20
-1.8384432677165354
11
2.2560449212598424
21
-1.8447569291338581
0
LINE
8
BLACK
6
CONTINUOUS
10
2.2560449212598424
20
-1.8447569291338581
11
2.261480433070866
21
-1.8518406299212598
0
LINE
8
BLACK
6
CONTINUOUS
10
2.261480433070866
20
-1.8518406299212598
11
2.2659448425196849
21
-1.8595731889763778
0
LINE
8
BLACK
6
CONTINUOUS
10
2.2659448425196849
20
-1.8595731889763778
11
2.2693617322834645
21
-1.8678223622047243
0
LINE
8
BLACK
6
CONTINUOUS
10
2.2693617322834645
20
-1.8678223622047243
11
2.2716726771653541
21
-1.8764469291338581
0
LINE
8
BLACK
6
CONTINUOUS
10
2.2716726771653541
20
-1.8764469291338581
11
2.272838149606299
21
-1.8852993700787402
0
LINE
8
BLACK
6
CONTINUOUS
10
2.272838149606299
20
-1.8852993700787402
11
2.272838149606299
21
-1.8942281889763779
0
LINE
8
BLACK
6
CONTINUOUS
10
2.272838149606299
20
-1.8942281889763779
11
2.2716726771653541
21
-1.9030806299212597
0
LINE
8
BLACK
6
CONTINUOUS
10
2.2716726771653541
20
-1.9030806299212597
11
2.2693617322834645
21
-1.9117051968503938
0
LINE
8
BLACK
6
CONTINUOUS
10
2.2693617322834645
20
-1.9117051968503938
11
2.2659448425196849
21
-1.91995437007874
0
LINE
8
BLACK
6
CONTINUOUS
10
2.2659448425196849
20
-1.91995437007874
11
2.261480433070866
21
-1.9276869291338583
0
LINE
8
BLACK
6
CONTINUOUS
10
2.261480433070866
20
-1.9276869291338583
11
2.2560449212598424
21
-1.9347706299212597
0
LINE
8
BLACK
6
CONTINUOUS
10
2.2560449212598424
20
-1.9347706299212597
11
2.2497312598425196
21
-1.9410842913385826
0
LINE
8
BLACK
6
CONTINUOUS
10
2.2497312598425196
20
-1.9410842913385826
11
2.242647559055118
21
-1.9465198031496063
0
LINE
8
BLACK
6
CONTINUOUS
10
2.242647559055118
20
-1.9465198031496063
11
2.234915
21
-1.9509842125984251
0
LINE
8
BLACK
6
CONTINUOUS
10
2.234915
20
-1.9509842125984251
11
2.2266658267716535
21
-1.9544011023622048
0
LINE
8
BLACK
6
CONTINUOUS
10
2.2266658267716535
20
-1.9544011023622048
11
2.2180412598425194
21
-1.9567120472440944
0
LINE
8
BLACK
6
CONTINUOUS
10
2.2180412598425194
20
-1.9567120472440944
11
2.2091888188976379
21
-1.9578775196850393
0
LINE
8
BLACK
6
CONTINUOUS
10
2.2091888188976379
20
-1.9578775196850393
11
2.2002600000000001
21
-1.9578775196850393
0
LINE
8
BLACK
6
CONTINUOUS
10
2.2002600000000001
20
-1.9578775196850393
11
2.1914075590551181
21
-1.9567120472440944
0
LINE
8
BLACK
6
CONTINUOUS
10
2.1914075590551181
20
-1.9567120472440944
11
2.182782992125984
21
-1.9544011023622048
0
LINE
8
BLACK
6
CONTINUOUS
10
2.182782992125984
20
-1.9544011023622048
11
2.1745338188976375
21
-1.9509842125984251
0
LINE
8
BLACK
6
CONTINUOUS
10
2.1745338188976375
20
-1.9509842125984251
11
2.1668012598425195
21
-1.9465198031496063
0
LINE
8
BLACK
6
CONTINUOUS
10
2.1668012598425195
20
-1.9465198031496063
11
2.1597175590551179
21
-1.9410842913385826
0
LINE
8
BLACK
6
CONTINUOUS
10
2.1597175590551179
20
-1.9410842913385826
11
2.1534038976377952
21
-1.9347706299212597
0
LINE
8
BLACK
6
CONTINUOUS
10
2.1534038976377952
20
-1.9347706299212597
11
2.1479683858267715
21
-1.9276869291338583
0
LINE
8
BLACK
6
CONTINUOUS
10
2.1479683858267715
20
-1.9276869291338583
11
2.1435039763779526
21
-1.91995437007874
0
LINE
8
BLACK
6
CONTINUOUS
10
2.1435039763779526
20
-1.91995437007874
11
2.140087086614173
21
-1.9117051968503938
0
LINE
8
BLACK
6
CONTINUOUS
10
2.140087086614173
20
-1.9117051968503938
11
2.1377761417322834
21
-1.9030806299212597
0
LINE
8
BLACK
6
CONTINUOUS
10
2.1377761417322834
20
-1.9030806299212597
11
2.1366106692913385
21
-1.8942281889763779
0
LINE
8
BLACK
6
CONTINUOUS
10
2.1366106692913385
20
-1.8942281889763779
11
2.1366106692913385
21
-1.8854188188976377
0
LINE
8
BLACK
6
CONTINUOUS
10
2.1366106692913385
20
-1.8854188188976377
11
2.1366106692913385
21
-1.8852993700787402
0
LINE
8
BLACK
6
CONTINUOUS
10
2.1366106692913385
20
-1.8852993700787402
11
2.1377761417322834
21
-1.8764469291338581
0
LINE
8
BLACK
6
CONTINUOUS
10
2.1377761417322834
20
-1.8764469291338581
11
2.140087086614173
21
-1.8678223622047243
0
LINE
8
BLACK
6
CONTINUOUS
10
2.140087086614173
20
-1.8678223622047243
11
2.1435039763779526
21
-1.8595731889763778
0
LINE
8
BLACK
6
CONTINUOUS
10
2.1435039763779526
20
-1.8595731889763778
11
2.1479683858267715
21
-1.8518406299212598
0
LINE
8
BLACK
6
CONTINUOUS
10
2.1479683858267715
20
-1.8518406299212598
11
2.1534038976377952
21
-1.8447569291338581
0
LINE
8
BLACK
6
CONTINUOUS
10
2.1534038976377952
20
-1.8447569291338581
11
2.1597175590551179
21
-1.8384432677165354
0
LINE
8
BLACK
6
CONTINUOUS
10
2.1597175590551179
20
-1.8384432677165354
11
2.1668012598425195
21
-1.8330077559055118
0
LINE
8
BLACK
6
CONTINUOUS
10
2.1668012598425195
20
-1.8330077559055118
11
2.1745338188976375
21
-1.8285433464566929
0
LINE
8
BLACK
6
CONTINUOUS
10
2.1745338188976375
20
-1.8285433464566929
11
2.182782992125984
21
-1.8251264566929133
0
LINE
8
BLACK
6
CONTINUOUS
10
2.182782992125984
20
-1.8251264566929133
11
2.1914075590551181
21
-1.8228155118110236
0
LINE
8
BLACK
6
CONTINUOUS
10
2.1914075590551181
20
-1.8228155118110236
11
2.2002600000000001
21
-1.8216500393700787
0
LINE
8
BLACK
6
CONTINUOUS
10
2.2002600000000001
20
-1.8216500393700787
11
2.2091888188976379
21
-1.8216500393700787
0
LINE
8
BLACK
6
CONTINUOUS
10
2.2091888188976379
20
-1.8216500393700787
11
2.2180412598425194
21
-1.8228155118110236
0
LINE
8
BLACK
6
CONTINUOUS
10
2.1384330314960631
20
-1.8941087401574803
11
2.1395672834645669
21
-1.9027243307086614
0
LINE
8
BLACK
6
CONTINUOUS
10
2.1395672834645669
20
-1.9027243307086614
11
2.1418164173228345
21
-1.9111181496062992
0
LINE
8
BLACK
6
CONTINUOUS
10
2.1418164173228345
20
-1.9111181496062992
11
2.1451418897637793
21
-1.9191466141732283
0
LINE
8
BLACK
6
CONTINUOUS
10
2.1451418897637793
20
-1.9191466141732283
11
2.1494868897637796
21
-1.9266723228346456
0
LINE
8
BLACK
6
CONTINUOUS
10
2.1494868897637796
20
-1.9266723228346456
11
2.1547769685039371
21
-1.9335664960629921
0
LINE
8
BLACK
6
CONTINUOUS
10
2.1547769685039371
20
-1.9335664960629921
11
2.1609216929133859
21
-1.9397112204724409
0
LINE
8
BLACK
6
CONTINUOUS
10
2.1609216929133859
20
-1.9397112204724409
11
2.1678158661417322
21
-1.9450012992125985
0
LINE
8
BLACK
6
CONTINUOUS
10
2.1678158661417322
20
-1.9450012992125985
11
2.1753415748031495
21
-1.9493462992125983
0
LINE
8
BLACK
6
CONTINUOUS
10
2.1753415748031495
20
-1.9493462992125983
11
2.1833700393700788
21
-1.9526717716535433
0
LINE
8
BLACK
6
CONTINUOUS
10
2.1833700393700788
20
-1.9526717716535433
11
2.1917638582677164
21
-1.9549209055118111
0
LINE
8
BLACK
6
CONTINUOUS
10
2.1917638582677164
20
-1.9549209055118111
11
2.2003794488188975
21
-1.9560551574803149
0
LINE
8
BLACK
6
CONTINUOUS
10
2.2003794488188975
20
-1.9560551574803149
11
2.20906937007874
21
-1.9560551574803149
0
LINE
8
BLACK
6
CONTINUOUS
10
2.20906937007874
20
-1.9560551574803149
11
2.2176849606299212
21
-1.9549209055118111
0
LINE
8
BLACK
6
CONTINUOUS
10
2.2176849606299212
20
-1.9549209055118111
11
2.2260787795275592
21
-1.9526717716535433
0
LINE
8
BLACK
6
CONTINUOUS
10
2.2260787795275592
20
-1.9526717716535433
11
2.234107244094488
21
-1.9493462992125983
0
LINE
8
BLACK
6
CONTINUOUS
10
2.234107244094488
20
-1.9493462992125983
11
2.2416329527559054
21
-1.9450012992125985
0
LINE
8
BLACK
6
CONTINUOUS
10
2.2416329527559054
20
-1.9450012992125985
11
2.2485271259842521
21
-1.9397112204724409
0
LINE
8
BLACK
6
CONTINUOUS
10
2.2485271259842521
20
-1.9397112204724409
11
2.2546718503937009
21
-1.9335664960629921
0
LINE
8
BLACK
6
CONTINUOUS
10
2.2546718503937009
20
-1.9335664960629921
11
2.2599619291338584
21
-1.9266723228346456
0
LINE
8
BLACK
6
CONTINUOUS
10
2.2599619291338584
20
-1.9266723228346456
11
2.2643069291338582
21
-1.9191466141732283
0
LINE
8
BLACK
6
CONTINUOUS
10
2.2643069291338582
20
-1.9191466141732283
11
2.2676324015748031
21
-1.9111181496062992
0
LINE
8
BLACK
6
CONTINUOUS
10
2.2676324015748031
20
-1.9111181496062992
11
2.269881535433071
21
-1.9027243307086614
0
LINE
8
BLACK
6
CONTINUOUS
10
2.269881535433071
20
-1.9027243307086614
11
2.2710157874015748
21
-1.8941087401574803
0
LINE
8
BLACK
6
CONTINUOUS
10
2.2710157874015748
20
-1.8941087401574803
11
2.2710157874015748
21
-1.8854188188976377
0
LINE
8
BLACK
6
CONTINUOUS
10
2.2710157874015748
20
-1.8854188188976377
11
2.269881535433071
21
-1.8768032283464566
0
LINE
8
BLACK
6
CONTINUOUS
10
2.269881535433071
20
-1.8768032283464566
11
2.2676324015748031
21
-1.8684094094488188
0
LINE
8
BLACK
6
CONTINUOUS
10
2.2676324015748031
20
-1.8684094094488188
11
2.2643069291338582
21
-1.8603809448818898
0
LINE
8
BLACK
6
CONTINUOUS
10
2.2643069291338582
20
-1.8603809448818898
11
2.2599619291338584
21
-1.8528552362204724
0
LINE
8
BLACK
6
CONTINUOUS
10
2.2599619291338584
20
-1.8528552362204724
11
2.2546718503937009
21
-1.8459610629921259
0
LINE
8
BLACK
6
CONTINUOUS
10
2.2546718503937009
20
-1.8459610629921259
11
2.2485271259842521
21
-1.8398163385826771
0
LINE
8
BLACK
6
CONTINUOUS
10
2.2485271259842521
20
-1.8398163385826771
11
2.2416329527559054
21
-1.8345262598425196
0
LINE
8
BLACK
6
CONTINUOUS
10
2.2416329527559054
20
-1.8345262598425196
11
2.234107244094488
21
-1.8301812598425196
0
LINE
8
BLACK
6
CONTINUOUS
10
2.234107244094488
20
-1.8301812598425196
11
2.2260787795275592
21
-1.8268557874015747
0
LINE
8
BLACK
6
CONTINUOUS
10
2.2260787795275592
20
-1.8268557874015747
11
2.2176849606299212
21
-1.824606653543307
0
LINE
8
BLACK
6
CONTINUOUS
10
2.2176849606299212
20
-1.824606653543307
11
2.20906937007874
21
-1.8234724015748032
0
LINE
8
BLACK
6
CONTINUOUS
10
2.20906937007874
20
-1.8234724015748032
11
2.2003794488188975
21
-1.8234724015748032
0
LINE
8
BLACK
6
CONTINUOUS
10
2.2003794488188975
20
-1.8234724015748032
11
2.1917638582677164
21
-1.824606653543307
0
LINE
8
BLACK
6
CONTINUOUS
10
2.1917638582677164
20
-1.824606653543307
11
2.1833700393700788
21
-1.8268557874015747
0
LINE
8
BLACK
6
CONTINUOUS
10
2.1833700393700788
20
-1.8268557874015747
11
2.1753415748031495
21
-1.8301812598425196
0
LINE
8
BLACK
6
CONTINUOUS
10
2.1753415748031495
20
-1.8301812598425196
11
2.1678158661417322
21
-1.8345262598425196
0
LINE
8
BLACK
6
CONTINUOUS
10
2.1678158661417322
20
-1.8345262598425196
11
2.1609216929133859
21
-1.8398163385826771
0
LINE
8
BLACK
6
CONTINUOUS
10
2.1609216929133859
20
-1.8398163385826771
11
2.1547769685039371
21
-1.8459610629921259
0
LINE
8
BLACK
6
CONTINUOUS
10
2.1547769685039371
20
-1.8459610629921259
11
2.1494868897637796
21
-1.8528552362204724
0
LINE
8
BLACK
6
CONTINUOUS
10
2.1494868897637796
20
-1.8528552362204724
11
2.1451418897637793
21
-1.8603809448818898
0
LINE
8
BLACK
6
CONTINUOUS
10
2.1451418897637793
20
-1.8603809448818898
11
2.1418164173228345
21
-1.8684094094488188
0
LINE
8
BLACK
6
CONTINUOUS
10
2.1418164173228345
20
-1.8684094094488188
11
2.1395672834645669
21
-1.8768032283464566
0
LINE
8
BLACK
6
CONTINUOUS
10
2.1395672834645669
20
-1.8768032283464566
11
2.1384330314960631
21
-1.8854188188976377
0
LINE
8
BLACK
6
CONTINUOUS
10
2.1384330314960631
20
-1.8854188188976377
11
2.1384330314960631
21
-1.8941087401574803
0
LINE
8
BLACK
6
CONTINUOUS
10
6.1172972047244096
20
-1.8275550787401575
11
6.1268449212598428
21
-1.8306573228346457
0
LINE
8
BLACK
6
CONTINUOUS
10
6.1268449212598428
20
-1.8306573228346457
11
6.1357897637795276
21
-1.8352149606299213
0
LINE
8
BLACK
6
CONTINUOUS
10
6.1357897637795276
20
-1.8352149606299213
11
6.1439115354330704
21
-1.8411157480314959
0
LINE
8
BLACK
6
CONTINUOUS
10
6.1439115354330704
20
-1.8411157480314959
11
6.1510102362204719
21
-1.8482144488188976
0
LINE
8
BLACK
6
CONTINUOUS
10
6.1510102362204719
20
-1.8482144488188976
11
6.1569110236220475
21
-1.856336220472441
0
LINE
8
BLACK
6
CONTINUOUS
10
6.1569110236220475
20
-1.856336220472441
11
6.1614686614173229
21
-1.8652810629921259
0
LINE
8
BLACK
6
CONTINUOUS
10
6.1614686614173229
20
-1.8652810629921259
11
6.1645709055118107
21
-1.8748287795275591
0
LINE
8
BLACK
6
CONTINUOUS
10
6.1645709055118107
20
-1.8748287795275591
11
6.1661413779527559
21
-1.8847442519685038
0
LINE
8
BLACK
6
CONTINUOUS
10
6.1661413779527559
20
-1.8847442519685038
11
6.1661413779527559
21
-1.894783307086614
0
LINE
8
BLACK
6
CONTINUOUS
10
6.1661413779527559
20
-1.894783307086614
11
6.1645709055118107
21
-1.9046987795275589
0
LINE
8
BLACK
6
CONTINUOUS
10
6.1645709055118107
20
-1.9046987795275589
11
6.1614686614173229
21
-1.9142464960629921
0
LINE
8
BLACK
6
CONTINUOUS
10
6.1614686614173229
20
-1.9142464960629921
11
6.1569110236220475
21
-1.9231913385826771
0
LINE
8
BLACK
6
CONTINUOUS
10
6.1569110236220475
20
-1.9231913385826771
11
6.1510102362204719
21
-1.9313131102362204
0
LINE
8
BLACK
6
CONTINUOUS
10
6.1510102362204719
20
-1.9313131102362204
11
6.1439115354330704
21
-1.9384118110236219
0
LINE
8
BLACK
6
CONTINUOUS
10
6.1439115354330704
20
-1.9384118110236219
11
6.1357897637795276
21
-1.9443125984251968
0
LINE
8
BLACK
6
CONTINUOUS
10
6.1357897637795276
20
-1.9443125984251968
11
6.1268449212598428
21
-1.9488702362204724
0
LINE
8
BLACK
6
CONTINUOUS
10
6.1268449212598428
20
-1.9488702362204724
11
6.1172972047244096
21
-1.9519724803149605
0
LINE
8
BLACK
6
CONTINUOUS
10
6.1172972047244096
20
-1.9519724803149605
11
6.1073817322834643
21
-1.9535429527559054
0
LINE
8
BLACK
6
CONTINUOUS
10
6.1073817322834643
20
-1.9535429527559054
11
6.0973426771653543
21
-1.9535429527559054
0
LINE
8
BLACK
6
CONTINUOUS
10
6.0973426771653543
20
-1.9535429527559054
11
6.0874272047244089
21
-1.9519724803149605
0
LINE
8
BLACK
6
CONTINUOUS
10
6.0874272047244089
20
-1.9519724803149605
11
6.0778794881889766
21
-1.9488702362204724
0
LINE
8
BLACK
6
CONTINUOUS
10
6.0778794881889766
20
-1.9488702362204724
11
6.068934645669291
21
-1.9443125984251968
0
LINE
8
BLACK
6
CONTINUOUS
10
6.068934645669291
20
-1.9443125984251968
11
6.0608128740157481
21
-1.9384118110236219
0
LINE
8
BLACK
6
CONTINUOUS
10
6.0608128740157481
20
-1.9384118110236219
11
6.0537141732283466
21
-1.9313131102362204
0
LINE
8
BLACK
6
CONTINUOUS
10
6.0537141732283466
20
-1.9313131102362204
11
6.0478133858267711
21
-1.9231913385826771
0
LINE
8
BLACK
6
CONTINUOUS
10
6.0478133858267711
20
-1.9231913385826771
11
6.0432557480314957
21
-1.9142464960629921
0
LINE
8
BLACK
6
CONTINUOUS
10
6.0432557480314957
20
-1.9142464960629921
11
6.0401535039370078
21
-1.9046987795275589
0
LINE
8
BLACK
6
CONTINUOUS
10
6.0401535039370078
20
-1.9046987795275589
11
6.0385830314960627
21
-1.894783307086614
0
LINE
8
BLACK
6
CONTINUOUS
10
6.0385830314960627
20
-1.894783307086614
11
6.0385830314960627
21
-1.8848836614173228
0
LINE
8
BLACK
6
CONTINUOUS
10
6.0385830314960627
20
-1.8848836614173228
11
6.0385830314960627
21
-1.8847442519685038
0
LINE
8
BLACK
6
CONTINUOUS
10
6.0385830314960627
20
-1.8847442519685038
11
6.0401535039370078
21
-1.8748287795275591
0
LINE
8
BLACK
6
CONTINUOUS
10
6.0401535039370078
20
-1.8748287795275591
11
6.0432557480314957
21
-1.8652810629921259
0
LINE
8
BLACK
6
CONTINUOUS
10
6.0432557480314957
20
-1.8652810629921259
11
6.0478133858267711
21
-1.856336220472441
0
LINE
8
BLACK
6
CONTINUOUS
10
6.0478133858267711
20
-1.856336220472441
11
6.0537141732283466
21
-1.8482144488188976
0
LINE
8
BLACK
6
CONTINUOUS
10
6.0537141732283466
20
-1.8482144488188976
11
6.0608128740157481
21
-1.8411157480314959
0
LINE
8
BLACK
6
CONTINUOUS
10
6.0608128740157481
20
-1.8411157480314959
11
6.068934645669291
21
-1.8352149606299213
0
LINE
8
BLACK
6
CONTINUOUS
10
6.068934645669291
20
-1.8352149606299213
11
6.0778794881889766
21
-1.8306573228346457
0
LINE
8
BLACK
6
CONTINUOUS
10
6.0778794881889766
20
-1.8306573228346457
11
6.0874272047244089
21
-1.8275550787401575
0
LINE
8
BLACK
6
CONTINUOUS
10
6.0874272047244089
20
-1.8275550787401575
11
6.0973426771653543
21
-1.8259846062992127
0
LINE
8
BLACK
6
CONTINUOUS
10
6.0973426771653543
20
-1.8259846062992127
11
6.1073817322834643
21
-1.8259846062992127
0
LINE
8
BLACK
6
CONTINUOUS
10
6.1073817322834643
20
-1.8259846062992127
11
6.1172972047244096
21
-1.8275550787401575
0
LINE
8
BLACK
6
CONTINUOUS
10
6.0403543307086611
20
-1.8946438976377953
11
6.0418811811023625
21
-1.9042839763779527
0
LINE
8
BLACK
6
CONTINUOUS
10
6.0418811811023625
20
-1.9042839763779527
11
6.0448972440944884
21
-1.9135665354330709
0
LINE
8
BLACK
6
CONTINUOUS
10
6.0448972440944884
20
-1.9135665354330709
11
6.049328307086614
21
-1.9222629921259842
0
LINE
8
BLACK
6
CONTINUOUS
10
6.049328307086614
20
-1.9222629921259842
11
6.0550652362204724
21
-1.9301591732283465
0
LINE
8
BLACK
6
CONTINUOUS
10
6.0550652362204724
20
-1.9301591732283465
11
6.0619668110236216
21
-1.9370607480314961
0
LINE
8
BLACK
6
CONTINUOUS
10
6.0619668110236216
20
-1.9370607480314961
11
6.0698629921259837
21
-1.9427976771653543
0
LINE
8
BLACK
6
CONTINUOUS
10
6.0698629921259837
20
-1.9427976771653543
11
6.0785594488188979
21
-1.9472287401574804
0
LINE
8
BLACK
6
CONTINUOUS
10
6.0785594488188979
20
-1.9472287401574804
11
6.0878420078740154
21
-1.9502448031496062
0
LINE
8
BLACK
6
CONTINUOUS
10
6.0878420078740154
20
-1.9502448031496062
11
6.097482086614173
21
-1.951771653543307
0
LINE
8
BLACK
6
CONTINUOUS
10
6.097482086614173
20
-1.951771653543307
11
6.1072423228346455
21
-1.951771653543307
0
LINE
8
BLACK
6
CONTINUOUS
10
6.1072423228346455
20
-1.951771653543307
11
6.1168824015748031
21
-1.9502448031496062
0
LINE
8
BLACK
6
CONTINUOUS
10
6.1168824015748031
20
-1.9502448031496062
11
6.1261649606299216
21
-1.9472287401574804
0
LINE
8
BLACK
6
CONTINUOUS
10
6.1261649606299216
20
-1.9472287401574804
11
6.1348614173228349
21
-1.9427976771653543
0
LINE
8
BLACK
6
CONTINUOUS
10
6.1348614173228349
20
-1.9427976771653543
11
6.142757598425197
21
-1.9370607480314961
0
LINE
8
BLACK
6
CONTINUOUS
10
6.142757598425197
20
-1.9370607480314961
11
6.1496591732283461
21
-1.9301591732283465
0
LINE
8
BLACK
6
CONTINUOUS
10
6.1496591732283461
20
-1.9301591732283465
11
6.1553961023622046
21
-1.9222629921259842
0
LINE
8
BLACK
6
CONTINUOUS
10
6.1553961023622046
20
-1.9222629921259842
11
6.1598271653543302
21
-1.9135665354330709
0
LINE
8
BLACK
6
CONTINUOUS
10
6.1598271653543302
20
-1.9135665354330709
11
6.1628432283464569
21
-1.9042839763779527
0
LINE
8
BLACK
6
CONTINUOUS
10
6.1628432283464569
20
-1.9042839763779527
11
6.1643700787401574
21
-1.8946438976377953
0
LINE
8
BLACK
6
CONTINUOUS
10
6.1643700787401574
20
-1.8946438976377953
11
6.1643700787401574
21
-1.8848836614173228
0
LINE
8
BLACK
6
CONTINUOUS
10
6.1643700787401574
20
-1.8848836614173228
11
6.1628432283464569
21
-1.8752435826771654
0
LINE
8
BLACK
6
CONTINUOUS
10
6.1628432283464569
20
-1.8752435826771654
11
6.1598271653543302
21
-1.8659610236220472
0
LINE
8
BLACK
6
CONTINUOUS
10
6.1598271653543302
20
-1.8659610236220472
11
6.1553961023622046
21
-1.8572645669291339
0
LINE
8
BLACK
6
CONTINUOUS
10
6.1553961023622046
20
-1.8572645669291339
11
6.1496591732283461
21
-1.8493683858267715
0
LINE
8
BLACK
6
CONTINUOUS
10
6.1496591732283461
20
-1.8493683858267715
11
6.142757598425197
21
-1.842466811023622
0
LINE
8
BLACK
6
CONTINUOUS
10
6.142757598425197
20
-1.842466811023622
11
6.1348614173228349
21
-1.8367298818897637
0
LINE
8
BLACK
6
CONTINUOUS
10
6.1348614173228349
20
-1.8367298818897637
11
6.1261649606299216
21
-1.8322988188976377
0
LINE
8
BLACK
6
CONTINUOUS
10
6.1261649606299216
20
-1.8322988188976377
11
6.1168824015748031
21
-1.8292827559055118
0
LINE
8
BLACK
6
CONTINUOUS
10
6.1168824015748031
20
-1.8292827559055118
11
6.1072423228346455
21
-1.8277559055118109
0
LINE
8
BLACK
6
CONTINUOUS
10
6.1072423228346455
20
-1.8277559055118109
11
6.097482086614173
21
-1.8277559055118109
0
LINE
8
BLACK
6
CONTINUOUS
10
6.097482086614173
20
-1.8277559055118109
11
6.0878420078740154
21
-1.8292827559055118
0
LINE
8
BLACK
6
CONTINUOUS
10
6.0878420078740154
20
-1.8292827559055118
11
6.0785594488188979
21
-1.8322988188976377
0
LINE
8
BLACK
6
CONTINUOUS
10
6.0785594488188979
20
-1.8322988188976377
11
6.0698629921259837
21
-1.8367298818897637
0
LINE
8
BLACK
6
CONTINUOUS
10
6.0698629921259837
20
-1.8367298818897637
11
6.0619668110236216
21
-1.842466811023622
0
LINE
8
BLACK
6
CONTINUOUS
10
6.0619668110236216
20
-1.842466811023622
11
6.0550652362204724
21
-1.8493683858267715
0
LINE
8
BLACK
6
CONTINUOUS
10
6.0550652362204724
20
-1.8493683858267715
11
6.049328307086614
21
-1.8572645669291339
0
LINE
8
BLACK
6
CONTINUOUS
10
6.049328307086614
20
-1.8572645669291339
11
6.0448972440944884
21
-1.8659610236220472
0
LINE
8
BLACK
6
CONTINUOUS
10
6.0448972440944884
20
-1.8659610236220472
11
6.0418811811023625
21
-1.8752435826771654
0
LINE
8
BLACK
6
CONTINUOUS
10
6.0418811811023625
20
-1.8752435826771654
11
6.0403543307086611
21
-1.8848836614173228
0
LINE
8
BLACK
6
CONTINUOUS
10
6.0403543307086611
20
-1.8848836614173228
11
6.0403543307086611
21
-1.8946438976377953
0
LINE
8
BLACK
6
CONTINUOUS
10
6.1417322834645667
20
-1.7706692913385826
11
6.1521384251968501
21
-1.7713513385826771
0
LINE
8
BLACK
6
CONTINUOUS
10
6.1521384251968501
20
-1.7713513385826771
11
6.162366496062992
21
-1.7733858267716536
0
LINE
8
BLACK
6
CONTINUOUS
10
6.162366496062992
20
-1.7733858267716536
11
6.1722414960629921
21
-1.7767379527559055
0
LINE
8
BLACK
6
CONTINUOUS
10
6.1722414960629921
20
-1.7767379527559055
11
6.1815944881889759
21
-1.7813503543307085
0
LINE
8
BLACK
6
CONTINUOUS
10
6.1815944881889759
20
-1.7813503543307085
11
6.1902654330708664
21
-1.7871440551181101
0
LINE
8
BLACK
6
CONTINUOUS
10
6.1902654330708664
20
-1.7871440551181101
11
6.19810594488189
21
-1.7940200393700787
0
LINE
8
BLACK
6
CONTINUOUS
10
6.19810594488189
20
-1.7940200393700787
11
6.2049819291338579
21
-1.8018605511811023
0
LINE
8
BLACK
6
CONTINUOUS
10
6.2049819291338579
20
-1.8018605511811023
11
6.21077562992126
21
-1.8105314960629921
0
LINE
8
BLACK
6
CONTINUOUS
10
6.21077562992126
20
-1.8105314960629921
11
6.2153880314960626
21
-1.8198844881889764
0
LINE
8
BLACK
6
CONTINUOUS
10
6.2153880314960626
20
-1.8198844881889764
11
6.2187401574803145
21
-1.8297594881889763
0
LINE
8
BLACK
6
CONTINUOUS
10
6.2187401574803145
20
-1.8297594881889763
11
6.2207746456692909
21
-1.839987559055118
0
LINE
8
BLACK
6
CONTINUOUS
10
6.2207746456692909
20
-1.839987559055118
11
6.2214566929133861
21
-1.8503937007874016
0
LINE
8
BLACK
6
CONTINUOUS
10
6.2214566929133861
20
-1.8503937007874016
11
6.2214566929133861
21
-2.9527559055118111
0
LINE
8
BLACK
6
CONTINUOUS
10
6.2214566929133861
20
-2.9527559055118111
11
6.2207746456692909
21
-2.9631620472440945
0
LINE
8
BLACK
6
CONTINUOUS
10
6.2207746456692909
20
-2.9631620472440945
11
6.2187401574803145
21
-2.973390118110236
0
LINE
8
BLACK
6
CONTINUOUS
10
6.2187401574803145
20
-2.973390118110236
11
6.2153880314960626
21
-2.9832651181102361
0
LINE
8
BLACK
6
CONTINUOUS
10
6.2153880314960626
20
-2.9832651181102361
11
6.21077562992126
21
-2.9926181102362204
0
LINE
8
BLACK
6
CONTINUOUS
10
6.21077562992126
20
-2.9926181102362204
11
6.2049819291338579
21
-3.0012890551181099
0
LINE
8
BLACK
6
CONTINUOUS
10
6.2049819291338579
20
-3.0012890551181099
11
6.19810594488189
21
-3.0091295669291336
0
LINE
8
BLACK
6
CONTINUOUS
10
6.19810594488189
20
-3.0091295669291336
11
6.1902654330708664
21
-3.0160055511811024
0
LINE
8
BLACK
6
CONTINUOUS
10
6.1902654330708664
20
-3.0160055511811024
11
6.1815944881889759
21
-3.021799251968504
0
LINE
8
BLACK
6
CONTINUOUS
10
6.1815944881889759
20
-3.021799251968504
11
6.1722414960629921
21
-3.026411653543307
0
LINE
8
BLACK
6
CONTINUOUS
10
6.1722414960629921
20
-3.026411653543307
11
6.162366496062992
21
-3.0297637795275589
0
LINE
8
BLACK
6
CONTINUOUS
10
6.162366496062992
20
-3.0297637795275589
11
6.1521384251968501
21
-3.0317982677165354
0
LINE
8
BLACK
6
CONTINUOUS
10
6.1521384251968501
20
-3.0317982677165354
11
6.1417322834645667
21
-3.0324803149606296
0
LINE
8
BLACK
6
CONTINUOUS
10
6.1417322834645667
20
-3.0324803149606296
11
2.1653543307086616
21
-3.0324803149606296
0
LINE
8
BLACK
6
CONTINUOUS
10
2.1653543307086616
20
-3.0324803149606296
11
2.1549481889763777
21
-3.0317982677165354
0
LINE
8
BLACK
6
CONTINUOUS
10
2.1549481889763777
20
-3.0317982677165354
11
2.1447201181102362
21
-3.0297637795275589
0
LINE
8
BLACK
6
CONTINUOUS
10
2.1447201181102362
20
-3.0297637795275589
11
2.1348451181102361
21
-3.026411653543307
0
LINE
8
BLACK
6
CONTINUOUS
10
2.1348451181102361
20
-3.026411653543307
11
2.1254921259842519
21
-3.021799251968504
0
LINE
8
BLACK
6
CONTINUOUS
10
2.1254921259842519
20
-3.021799251968504
11
2.1168211811023623
21
-3.0160055511811024
0
LINE
8
BLACK
6
CONTINUOUS
10
2.1168211811023623
20
-3.0160055511811024
11
2.1089806692913386
21
-3.0091295669291336
0
LINE
8
BLACK
6
CONTINUOUS
10
2.1089806692913386
20
-3.0091295669291336
11
2.1021046850393699
21
-3.0012890551181099
0
LINE
8
BLACK
6
CONTINUOUS
10
2.1021046850393699
20
-3.0012890551181099
11
2.0963109842519683
21
-2.9926181102362204
0
LINE
8
BLACK
6
CONTINUOUS
10
2.0963109842519683
20
-2.9926181102362204
11
2.0916985826771652
21
-2.9832651181102361
0
LINE
8
BLACK
6
CONTINUOUS
10
2.0916985826771652
20
-2.9832651181102361
11
2.0883464566929133
21
-2.973390118110236
0
LINE
8
BLACK
6
CONTINUOUS
10
2.0883464566929133
20
-2.973390118110236
11
2.0863119685039369
21
-2.9631620472440945
0
LINE
8
BLACK
6
CONTINUOUS
10
2.0863119685039369
20
-2.9631620472440945
11
2.0856299212598426
21
-2.9527559055118111
0
LINE
8
BLACK
6
CONTINUOUS
10
2.0856299212598426
20
-2.9527559055118111
11
2.0856299212598426
21
-1.8503937007874016
0
LINE
8
BLACK
6
CONTINUOUS
10
2.0856299212598426
20
-1.8503937007874016
11
2.0863119685039369
21
-1.839987559055118
0
LINE
8
BLACK
6
CONTINUOUS
10
2.0863119685039369
20
-1.839987559055118
11
2.0883464566929133
21
-1.8297594881889763
0
LINE
8
BLACK
6
CONTINUOUS
10
2.0883464566929133
20
-1.8297594881889763
11
2.0916985826771652
21
-1.8198844881889764
0
LINE
8
BLACK
6
CONTINUOUS
10
2.0916985826771652
20
-1.8198844881889764
11
2.0963109842519683
21
-1.8105314960629921
0
LINE
8
BLACK
6
CONTINUOUS
10
2.0963109842519683
20
-1.8105314960629921
11
2.1021046850393699
21
-1.8018605511811023
0
LINE
8
BLACK
6
CONTINUOUS
10
2.1021046850393699
20
-1.8018605511811023
11
2.1089806692913386
21
-1.7940200393700787
0
LINE
8
BLACK
6
CONTINUOUS
10
2.1089806692913386
20
-1.7940200393700787
11
2.1168211811023623
21
-1.7871440551181101
0
LINE
8
BLACK
6
CONTINUOUS
10
2.1168211811023623
20
-1.7871440551181101
11
2.1254921259842519
21
-1.7813503543307085
0
LINE
8
BLACK
6
CONTINUOUS
10
2.1254921259842519
20
-1.7813503543307085
11
2.1348451181102361
21
-1.7767379527559055
0
LINE
8
BLACK
6
CONTINUOUS
10
2.1348451181102361
20
-1.7767379527559055
11
2.1447201181102362
21
-1.7733858267716536
0
LINE
8
BLACK
6
CONTINUOUS
10
2.1447201181102362
20
-1.7733858267716536
11
2.1549481889763777
21
-1.7713513385826771
0
LINE
8
BLACK
6
CONTINUOUS
10
2.1549481889763777
20
-1.7713513385826771
11
2.1653543307086616
21
-1.7706692913385826
0
LINE
8
BLACK
6
CONTINUOUS
10
2.1653543307086616
20
-1.7706692913385826
11
6.1417322834645667
21
-1.7706692913385826
0
LINE
8
BLACK
6
CONTINUOUS
10
2.1653543307086616
20
-1.7726377952755905
11
2.1602579527559054
21
-1.7726377952755905
0
LINE
8
BLACK
6
CONTINUOUS
10
2.1602579527559054
20
-1.7726377952755905
11
2.1501523622047243
21
-1.7739682283464566
0
LINE
8
BLACK
6
CONTINUOUS
10
2.1501523622047243
20
-1.7739682283464566
11
2.1403068897637794
21
-1.7766062992125984
0
LINE
8
BLACK
6
CONTINUOUS
10
2.1403068897637794
20
-1.7766062992125984
11
2.1308899606299212
21
-1.7805068897637795
0
LINE
8
BLACK
6
CONTINUOUS
10
2.1308899606299212
20
-1.7805068897637795
11
2.1220627559055116
21
-1.7856033070866142
0
LINE
8
BLACK
6
CONTINUOUS
10
2.1220627559055116
20
-1.7856033070866142
11
2.1139762992125983
21
-1.7918082677165355
0
LINE
8
BLACK
6
CONTINUOUS
10
2.1139762992125983
20
-1.7918082677165355
11
2.1067688976377954
21
-1.7990156692913386
0
LINE
8
BLACK
6
CONTINUOUS
10
2.1067688976377954
20
-1.7990156692913386
11
2.1005639370078741
21
-1.8071021259842519
0
LINE
8
BLACK
6
CONTINUOUS
10
2.1005639370078741
20
-1.8071021259842519
11
2.0954675196850392
21
-1.8159293307086615
0
LINE
8
BLACK
6
CONTINUOUS
10
2.0954675196850392
20
-1.8159293307086615
11
2.0915669291338581
21
-1.8253462598425196
0
LINE
8
BLACK
6
CONTINUOUS
10
2.0915669291338581
20
-1.8253462598425196
11
2.0889288582677166
21
-1.8351917322834645
0
LINE
8
BLACK
6
CONTINUOUS
10
2.0889288582677166
20
-1.8351917322834645
11
2.0875984251968505
21
-1.8452973228346456
0
LINE
8
BLACK
6
CONTINUOUS
10
2.0875984251968505
20
-1.8452973228346456
11
2.0875984251968505
21
-1.8503937007874016
0
LINE
8
BLACK
6
CONTINUOUS
10
2.0875984251968505
20
-1.8503937007874016
11
2.0875984251968505
21
-2.9527559055118111
0
LINE
8
BLACK
6
CONTINUOUS
10
2.0875984251968505
20
-2.9527559055118111
11
2.0875984251968505
21
-2.9578522834645669
0
LINE
8
BLACK
6
CONTINUOUS
10
2.0875984251968505
20
-2.9578522834645669
11
2.0889288582677166
21
-2.967957874015748
0
LINE
8
BLACK
6
CONTINUOUS
10
2.0889288582677166
20
-2.967957874015748
11
2.0915669291338581
21
-2.9778033464566929
0
LINE
8
BLACK
6
CONTINUOUS
10
2.0915669291338581
20
-2.9778033464566929
11
2.0954675196850392
21
-2.987220275590551
0
LINE
8
BLACK
6
CONTINUOUS
10
2.0954675196850392
20
-2.987220275590551
11
2.1005639370078741
21
-2.9960474803149606
0
LINE
8
BLACK
6
CONTINUOUS
10
2.1005639370078741
20
-2.9960474803149606
11
2.1067688976377954
21
-3.0041339370078739
0
LINE
8
BLACK
6
CONTINUOUS
10
2.1067688976377954
20
-3.0041339370078739
11
2.1139762992125983
21
-3.0113413385826773
0
LINE
8
BLACK
6
CONTINUOUS
10
2.1139762992125983
20
-3.0113413385826773
11
2.1220627559055116
21
-3.0175462992125985
0
LINE
8
BLACK
6
CONTINUOUS
10
2.1220627559055116
20
-3.0175462992125985
11
2.1308899606299212
21
-3.022642716535433
0
LINE
8
BLACK
6
CONTINUOUS
10
2.1308899606299212
20
-3.022642716535433
11
2.1403068897637794
21
-3.0265433070866141
0
LINE
8
BLACK
6
CONTINUOUS
10
2.1403068897637794
20
-3.0265433070866141
11
2.1501523622047243
21
-3.0291813779527557
0
LINE
8
BLACK
6
CONTINUOUS
10
2.1501523622047243
20
-3.0291813779527557
11
2.1602579527559054
21
-3.0305118110236218
0
LINE
8
BLACK
6
CONTINUOUS
10
2.1602579527559054
20
-3.0305118110236218
11
2.1653543307086616
21
-3.0305118110236218
0
LINE
8
BLACK
6
CONTINUOUS
10
2.1653543307086616
20
-3.0305118110236218
11
6.1417322834645667
21
-3.0305118110236218
0
LINE
8
BLACK
6
CONTINUOUS
10
6.1417322834645667
20
-3.0305118110236218
11
6.1468286614173229
21
-3.0305118110236218
0
LINE
8
BLACK
6
CONTINUOUS
10
6.1468286614173229
20
-3.0305118110236218
11
6.1569342519685035
21
-3.0291813779527557
0
LINE
8
BLACK
6
CONTINUOUS
10
6.1569342519685035
20
-3.0291813779527557
11
6.1667797244094489
21
-3.0265433070866141
0
LINE
8
BLACK
6
CONTINUOUS
10
6.1667797244094489
20
-3.0265433070866141
11
6.1761966535433066
21
-3.022642716535433
0
LINE
8
BLACK
6
CONTINUOUS
10
6.1761966535433066
20
-3.022642716535433
11
6.1850238582677166
21
-3.0175462992125985
0
LINE
8
BLACK
6
CONTINUOUS
10
6.1850238582677166
20
-3.0175462992125985
11
6.1931103149606299
21
-3.0113413385826773
0
LINE
8
BLACK
6
CONTINUOUS
10
6.1931103149606299
20
-3.0113413385826773
11
6.2003177165354328
21
-3.0041339370078739
0
LINE
8
BLACK
6
CONTINUOUS
10
6.2003177165354328
20
-3.0041339370078739
11
6.2065226771653546
21
-2.9960474803149606
0
LINE
8
BLACK
6
CONTINUOUS
10
6.2065226771653546
20
-2.9960474803149606
11
6.2116190944881886
21
-2.987220275590551
0
LINE
8
BLACK
6
CONTINUOUS
10
6.2116190944881886
20
-2.987220275590551
11
6.2155196850393697
21
-2.9778033464566929
0
LINE
8
BLACK
6
CONTINUOUS
10
6.2155196850393697
20
-2.9778033464566929
11
6.2181577559055112
21
-2.967957874015748
0
LINE
8
BLACK
6
CONTINUOUS
10
6.2181577559055112
20
-2.967957874015748
11
6.2194881889763778
21
-2.9578522834645669
0
LINE
8
BLACK
6
CONTINUOUS
10
6.2194881889763778
20
-2.9578522834645669
11
6.2194881889763778
21
-2.9527559055118111
0
LINE
8
BLACK
6
CONTINUOUS
10
6.2194881889763778
20
-2.9527559055118111
11
6.2194881889763778
21
-1.8503937007874016
0
LINE
8
BLACK
6
CONTINUOUS
10
6.2194881889763778
20
-1.8503937007874016
11
6.2194881889763778
21
-1.8452973228346456
0
LINE
8
BLACK
6
CONTINUOUS
10
6.2194881889763778
20
-1.8452973228346456
11
6.2181577559055112
21
-1.8351917322834645
0
LINE
8
BLACK
6
CONTINUOUS
10
6.2181577559055112
20
-1.8351917322834645
11
6.2155196850393697
21
-1.8253462598425196
0
LINE
8
BLACK
6
CONTINUOUS
10
6.2155196850393697
20
-1.8253462598425196
11
6.2116190944881886
21
-1.8159293307086615
0
LINE
8
BLACK
6
CONTINUOUS
10
6.2116190944881886
20
-1.8159293307086615
11
6.2065226771653546
21
-1.8071021259842519
0
LINE
8
BLACK
6
CONTINUOUS
10
6.2065226771653546
20
-1.8071021259842519
11
6.2003177165354328
21
-1.7990156692913386
0
LINE
8
BLACK
6
CONTINUOUS
10
6.2003177165354328
20
-1.7990156692913386
11
6.1931103149606299
21
-1.7918082677165355
0
LINE
8
BLACK
6
CONTINUOUS
10
6.1931103149606299
20
-1.7918082677165355
11
6.1850238582677166
21
-1.7856033070866142
0
LINE
8
BLACK
6
CONTINUOUS
10
6.1850238582677166
20
-1.7856033070866142
11
6.1761966535433066
21
-1.7805068897637795
0
LINE
8
BLACK
6
CONTINUOUS
10
6.1761966535433066
20
-1.7805068897637795
11
6.1667797244094489
21
-1.7766062992125984
0
LINE
8
BLACK
6
CONTINUOUS
10
6.1667797244094489
20
-1.7766062992125984
11
6.1569342519685035
21
-1.7739682283464566
0
LINE
8
BLACK
6
CONTINUOUS
10
6.1569342519685035
20
-1.7739682283464566
11
6.1468286614173229
21
-1.7726377952755905
0
LINE
8
BLACK
6
CONTINUOUS
10
6.1468286614173229
20
-1.7726377952755905
11
6.1417322834645667
21
-1.7726377952755905
0
LINE
8
BLACK
6
CONTINUOUS
10
6.1417322834645667
20
-1.7726377952755905
11
2.1653543307086616
21
-1.7726377952755905
  0
ENDSEC
  0
EOF
